<mxfile host="www.draw.io" modified="2019-11-05T08:18:00.383Z" agent="Mozilla/5.0 (Macintosh; Intel Mac OS X 10_14_6) AppleWebKit/605.1.15 (KHTML, like Gecko) Version/13.0.2 Safari/605.1.15" etag="6lZcWAJ2OPdkmhRNJarg" version="12.2.0" type="github" pages="1">
  <diagram id="4tfqf6dTGICktGbwDTD9" name="Page-1">
    <mxGraphModel dx="1172" dy="695" grid="1" gridSize="10" guides="1" tooltips="1" connect="1" arrows="1" fold="1" page="1" pageScale="1" pageWidth="827" pageHeight="1169" math="0" shadow="0">
      <root>
        <mxCell id="0"/>
        <mxCell id="1" parent="0"/>
        <mxCell id="Wobj9NWWxrkdj5AmO_Qd-1" value="&lt;b&gt;Nash&amp;nbsp;&lt;/b&gt;Cloud Platform &amp;nbsp; 功能隔离" style="fillColor=#F6F6F6;strokeColor=none;shadow=0;gradientColor=none;fontSize=14;align=left;spacing=10;fontColor=#717171;9E9E9E;verticalAlign=top;spacingTop=-4;fontStyle=0;spacingLeft=40;html=1;" parent="1" vertex="1">
          <mxGeometry x="761" y="461" width="559" height="480" as="geometry"/>
        </mxCell>
        <mxCell id="Wobj9NWWxrkdj5AmO_Qd-2" value="" style="rounded=1;absoluteArcSize=1;arcSize=2;html=1;strokeColor=none;gradientColor=none;shadow=0;dashed=0;strokeColor=none;fontSize=12;fontColor=#9E9E9E;align=left;verticalAlign=top;spacing=10;spacingTop=-4;fillColor=#FFF8E1;" parent="1" vertex="1">
          <mxGeometry x="523" y="307.5" width="800" height="100" as="geometry"/>
        </mxCell>
        <mxCell id="Wobj9NWWxrkdj5AmO_Qd-3" value="Nash Multi-tenancy Servic Map &amp;nbsp;&amp;nbsp;" style="fillColor=#4DA1F5;strokeColor=none;shadow=1;gradientColor=none;fontSize=14;align=left;spacingLeft=50;fontColor=#ffffff;html=1;" parent="1" vertex="1">
          <mxGeometry x="510" y="210" width="820" height="40" as="geometry"/>
        </mxCell>
        <mxCell id="Wobj9NWWxrkdj5AmO_Qd-4" value="" style="strokeColor=#dddddd;fillColor=#ffffff;shadow=1;strokeWidth=1;rounded=1;absoluteArcSize=1;arcSize=2;fontSize=10;fontColor=#9E9E9E;align=center;html=1;" parent="1" vertex="1">
          <mxGeometry x="1180" y="180" width="60" height="60" as="geometry"/>
        </mxCell>
        <mxCell id="Wobj9NWWxrkdj5AmO_Qd-5" value="" style="dashed=0;connectable=0;html=1;fillColor=#5184F3;strokeColor=none;shape=mxgraph.gcp2.campaign_manager;part=1;labelPosition=right;verticalLabelPosition=middle;align=left;verticalAlign=middle;spacingLeft=5;fontColor=#999999;fontSize=12;" parent="Wobj9NWWxrkdj5AmO_Qd-4" vertex="1">
          <mxGeometry width="45" height="45" relative="1" as="geometry">
            <mxPoint x="5" y="7" as="offset"/>
          </mxGeometry>
        </mxCell>
        <mxCell id="Wobj9NWWxrkdj5AmO_Qd-6" value="" style="strokeColor=#dddddd;fillColor=#ffffff;shadow=1;strokeWidth=1;rounded=1;absoluteArcSize=1;arcSize=2;fontSize=10;fontColor=#9E9E9E;align=center;html=1;" parent="1" vertex="1">
          <mxGeometry x="1100" y="180" width="60" height="60" as="geometry"/>
        </mxCell>
        <mxCell id="Wobj9NWWxrkdj5AmO_Qd-7" value="" style="dashed=0;connectable=0;html=1;fillColor=#5184F3;strokeColor=none;shape=mxgraph.gcp2.google_analytics;part=1;labelPosition=right;verticalLabelPosition=middle;align=left;verticalAlign=middle;spacingLeft=5;fontColor=#999999;fontSize=12;" parent="Wobj9NWWxrkdj5AmO_Qd-6" vertex="1">
          <mxGeometry width="45" height="45" relative="1" as="geometry">
            <mxPoint x="5" y="7" as="offset"/>
          </mxGeometry>
        </mxCell>
        <mxCell id="Wobj9NWWxrkdj5AmO_Qd-8" value="" style="strokeColor=#dddddd;fillColor=#ffffff;shadow=1;strokeWidth=1;rounded=1;absoluteArcSize=1;arcSize=2;fontSize=10;fontColor=#9E9E9E;align=center;html=1;" parent="1" vertex="1">
          <mxGeometry x="967" y="515.5" width="150" height="60" as="geometry"/>
        </mxCell>
        <mxCell id="Wobj9NWWxrkdj5AmO_Qd-9" value="&lt;font color=&quot;#000000&quot;&gt;&lt;span&gt;客户管理&lt;/span&gt;&lt;/font&gt;&lt;br&gt;Cloud Service" style="dashed=0;connectable=0;html=1;fillColor=#5184F3;strokeColor=none;shape=mxgraph.gcp2.hexIcon;prIcon=cloud_storage;part=1;labelPosition=right;verticalLabelPosition=middle;align=left;verticalAlign=middle;spacingLeft=5;fontColor=#999999;fontSize=12;" parent="Wobj9NWWxrkdj5AmO_Qd-8" vertex="1">
          <mxGeometry y="0.5" width="44" height="39" relative="1" as="geometry">
            <mxPoint x="5" y="-19.5" as="offset"/>
          </mxGeometry>
        </mxCell>
        <mxCell id="Wobj9NWWxrkdj5AmO_Qd-10" value="" style="strokeColor=#dddddd;fillColor=#ffffff;shadow=1;strokeWidth=1;rounded=1;absoluteArcSize=1;arcSize=2;fontSize=10;fontColor=#9E9E9E;align=center;html=1;" parent="1" vertex="1">
          <mxGeometry x="780" y="515.5" width="150" height="60" as="geometry"/>
        </mxCell>
        <mxCell id="Wobj9NWWxrkdj5AmO_Qd-11" value="&lt;font color=&quot;#000000&quot;&gt;&lt;span&gt;营销管理&lt;/span&gt;&lt;/font&gt;&lt;br&gt;Cloud Service" style="dashed=0;connectable=0;html=1;fillColor=#5184F3;strokeColor=none;shape=mxgraph.gcp2.hexIcon;prIcon=cloud_storage;part=1;labelPosition=right;verticalLabelPosition=middle;align=left;verticalAlign=middle;spacingLeft=5;fontColor=#999999;fontSize=12;" parent="Wobj9NWWxrkdj5AmO_Qd-10" vertex="1">
          <mxGeometry y="0.5" width="44" height="39" relative="1" as="geometry">
            <mxPoint x="5" y="-19.5" as="offset"/>
          </mxGeometry>
        </mxCell>
        <mxCell id="Wobj9NWWxrkdj5AmO_Qd-12" value="数据隔离 三种模式" style="points=[[0,0,0],[0.25,0,0],[0.5,0,0],[0.75,0,0],[1,0,0],[1,0.25,0],[1,0.5,0],[1,0.75,0],[1,1,0],[0.75,1,0],[0.5,1,0],[0.25,1,0],[0,1,0],[0,0.75,0],[0,0.5,0],[0,0.25,0]];rounded=1;absoluteArcSize=1;arcSize=2;html=1;strokeColor=none;gradientColor=none;shadow=0;dashed=0;fontSize=12;fontColor=#9E9E9E;align=left;verticalAlign=top;spacing=10;spacingTop=-4;fillColor=#F6F6F6;" parent="1" vertex="1">
          <mxGeometry x="761" y="977" width="559" height="490" as="geometry"/>
        </mxCell>
        <mxCell id="Wobj9NWWxrkdj5AmO_Qd-13" value="" style="points=[[0,0,0],[0.25,0,0],[0.5,0,0],[0.75,0,0],[1,0,0],[1,0.25,0],[1,0.5,0],[1,0.75,0],[1,1,0],[0.75,1,0],[0.5,1,0],[0.25,1,0],[0,1,0],[0,0.75,0],[0,0.5,0],[0,0.25,0]];rounded=1;absoluteArcSize=1;arcSize=2;html=1;strokeColor=none;gradientColor=none;shadow=0;dashed=0;fontSize=12;fontColor=#9E9E9E;align=left;verticalAlign=top;spacing=10;spacingTop=-4;fillColor=#FCE4EC;" parent="Wobj9NWWxrkdj5AmO_Qd-12" vertex="1">
          <mxGeometry width="240" height="180" relative="1" as="geometry">
            <mxPoint x="9" y="36.5" as="offset"/>
          </mxGeometry>
        </mxCell>
        <mxCell id="Wobj9NWWxrkdj5AmO_Qd-14" value="DB" style="points=[[0,0,0],[0.25,0,0],[0.5,0,0],[0.75,0,0],[1,0,0],[1,0.25,0],[1,0.5,0],[1,0.75,0],[1,1,0],[0.75,1,0],[0.5,1,0],[0.25,1,0],[0,1,0],[0,0.75,0],[0,0.5,0],[0,0.25,0]];rounded=1;absoluteArcSize=1;arcSize=2;html=1;strokeColor=none;gradientColor=none;shadow=0;dashed=0;fontSize=12;fontColor=#9E9E9E;align=left;verticalAlign=top;spacing=10;spacingTop=-4;fillColor=#E8F5E9;" parent="Wobj9NWWxrkdj5AmO_Qd-13" vertex="1">
          <mxGeometry width="100" height="150" relative="1" as="geometry">
            <mxPoint x="10" y="20" as="offset"/>
          </mxGeometry>
        </mxCell>
        <mxCell id="Wobj9NWWxrkdj5AmO_Qd-15" value="" style="points=[[0,0,0],[0.25,0,0],[0.5,0,0],[0.75,0,0],[1,0,0],[1,0.25,0],[1,0.5,0],[1,0.75,0],[1,1,0],[0.75,1,0],[0.5,1,0],[0.25,1,0],[0,1,0],[0,0.75,0],[0,0.5,0],[0,0.25,0]];rounded=1;absoluteArcSize=1;arcSize=2;html=1;strokeColor=none;gradientColor=none;shadow=0;dashed=0;fontSize=12;fontColor=#9E9E9E;align=left;verticalAlign=top;spacing=10;spacingTop=-4;fillColor=#E8F5E9;" parent="Wobj9NWWxrkdj5AmO_Qd-13" vertex="1">
          <mxGeometry x="130" y="20" width="100" height="150" as="geometry">
            <mxPoint x="9" y="15" as="offset"/>
          </mxGeometry>
        </mxCell>
        <mxCell id="Wobj9NWWxrkdj5AmO_Qd-16" value="" style="points=[[0,0,0],[0.25,0,0],[0.5,0,0],[0.75,0,0],[1,0,0],[1,0.25,0],[1,0.5,0],[1,0.75,0],[1,1,0],[0.75,1,0],[0.5,1,0],[0.25,1,0],[0,1,0],[0,0.75,0],[0,0.5,0],[0,0.25,0]];rounded=1;absoluteArcSize=1;arcSize=2;html=1;strokeColor=none;gradientColor=none;shadow=0;dashed=0;fontSize=12;fontColor=#9E9E9E;align=left;verticalAlign=top;spacing=10;spacingTop=-4;fillColor=#F9FBE7;" parent="Wobj9NWWxrkdj5AmO_Qd-13" vertex="1">
          <mxGeometry x="20" y="70" width="80" height="60" as="geometry">
            <mxPoint x="10" y="50" as="offset"/>
          </mxGeometry>
        </mxCell>
        <mxCell id="Wobj9NWWxrkdj5AmO_Qd-17" value="" style="points=[[0,0,0],[0.25,0,0],[0.5,0,0],[0.75,0,0],[1,0,0],[1,0.25,0],[1,0.5,0],[1,0.75,0],[1,1,0],[0.75,1,0],[0.5,1,0],[0.25,1,0],[0,1,0],[0,0.75,0],[0,0.5,0],[0,0.25,0]];rounded=1;absoluteArcSize=1;arcSize=2;html=1;strokeColor=none;gradientColor=none;shadow=0;dashed=0;fontSize=12;fontColor=#9E9E9E;align=left;verticalAlign=top;spacing=10;spacingTop=-4;fillColor=#F9FBE7;" parent="Wobj9NWWxrkdj5AmO_Qd-13" vertex="1">
          <mxGeometry x="140" y="70" width="80" height="60" as="geometry">
            <mxPoint x="10" y="50" as="offset"/>
          </mxGeometry>
        </mxCell>
        <mxCell id="Wobj9NWWxrkdj5AmO_Qd-18" value="&lt;span style=&quot;color: rgb(158 , 158 , 158)&quot;&gt;Tenant A&lt;/span&gt;" style="text;html=1;resizable=0;points=[];autosize=1;align=left;verticalAlign=top;spacingTop=-4;" parent="Wobj9NWWxrkdj5AmO_Qd-13" vertex="1">
          <mxGeometry x="30" y="90" width="60" height="20" as="geometry"/>
        </mxCell>
        <mxCell id="Wobj9NWWxrkdj5AmO_Qd-19" value="&lt;span style=&quot;color: rgb(158 , 158 , 158)&quot;&gt;Tenant B&lt;/span&gt;" style="text;html=1;resizable=0;points=[];autosize=1;align=left;verticalAlign=top;spacingTop=-4;" parent="Wobj9NWWxrkdj5AmO_Qd-13" vertex="1">
          <mxGeometry x="150" y="90" width="60" height="20" as="geometry"/>
        </mxCell>
        <mxCell id="Wobj9NWWxrkdj5AmO_Qd-20" value="&lt;span style=&quot;color: rgb(158 , 158 , 158)&quot;&gt;DB&lt;/span&gt;" style="text;html=1;resizable=0;points=[];autosize=1;align=left;verticalAlign=top;spacingTop=-4;fontColor=#000000;" parent="Wobj9NWWxrkdj5AmO_Qd-13" vertex="1">
          <mxGeometry x="135" y="26.5" width="30" height="20" as="geometry"/>
        </mxCell>
        <mxCell id="Wobj9NWWxrkdj5AmO_Qd-21" value="DB" style="points=[[0,0,0],[0.25,0,0],[0.5,0,0],[0.75,0,0],[1,0,0],[1,0.25,0],[1,0.5,0],[1,0.75,0],[1,1,0],[0.75,1,0],[0.5,1,0],[0.25,1,0],[0,1,0],[0,0.75,0],[0,0.5,0],[0,0.25,0]];rounded=1;absoluteArcSize=1;arcSize=2;html=1;strokeColor=none;gradientColor=none;shadow=0;dashed=0;fontSize=12;fontColor=#9E9E9E;align=left;verticalAlign=top;spacing=10;spacingTop=-4;fillColor=#E3F2FD;" parent="Wobj9NWWxrkdj5AmO_Qd-12" vertex="1">
          <mxGeometry width="250" height="180" relative="1" as="geometry">
            <mxPoint x="289" y="36.5" as="offset"/>
          </mxGeometry>
        </mxCell>
        <mxCell id="Wobj9NWWxrkdj5AmO_Qd-22" value="&lt;p style=&quot;margin: 0px ; font-stretch: normal ; line-height: normal ; font-family: &amp;#34;helvetica neue&amp;#34;&quot;&gt;&lt;br&gt;&lt;/p&gt;" style="points=[[0,0,0],[0.25,0,0],[0.5,0,0],[0.75,0,0],[1,0,0],[1,0.25,0],[1,0.5,0],[1,0.75,0],[1,1,0],[0.75,1,0],[0.5,1,0],[0.25,1,0],[0,1,0],[0,0.75,0],[0,0.5,0],[0,0.25,0]];rounded=1;absoluteArcSize=1;arcSize=2;html=1;strokeColor=none;gradientColor=none;shadow=0;dashed=0;fontSize=12;fontColor=#9E9E9E;align=left;verticalAlign=top;spacing=10;spacingTop=-4;fillColor=#FFF3E0;" parent="Wobj9NWWxrkdj5AmO_Qd-21" vertex="1">
          <mxGeometry width="110" height="120" relative="1" as="geometry">
            <mxPoint x="10" y="50" as="offset"/>
          </mxGeometry>
        </mxCell>
        <mxCell id="Wobj9NWWxrkdj5AmO_Qd-23" value="Tenant A" style="points=[[0,0,0],[0.25,0,0],[0.5,0,0],[0.75,0,0],[1,0,0],[1,0.25,0],[1,0.5,0],[1,0.75,0],[1,1,0],[0.75,1,0],[0.5,1,0],[0.25,1,0],[0,1,0],[0,0.75,0],[0,0.5,0],[0,0.25,0]];rounded=1;absoluteArcSize=1;arcSize=2;html=1;strokeColor=none;gradientColor=none;shadow=0;dashed=0;fontSize=12;fontColor=#9E9E9E;align=left;verticalAlign=top;spacing=10;spacingTop=-4;fillColor=#EDE7F6;" parent="Wobj9NWWxrkdj5AmO_Qd-22" vertex="1">
          <mxGeometry width="70" height="40" relative="1" as="geometry">
            <mxPoint x="10" y="50" as="offset"/>
          </mxGeometry>
        </mxCell>
        <mxCell id="Wobj9NWWxrkdj5AmO_Qd-24" value="&lt;span style=&quot;color: rgb(158 , 158 , 158)&quot;&gt;Schema&lt;/span&gt;" style="text;html=1;fontColor=#000000;" parent="Wobj9NWWxrkdj5AmO_Qd-22" vertex="1">
          <mxGeometry x="6" y="8.5" width="70" height="30" as="geometry"/>
        </mxCell>
        <mxCell id="Wobj9NWWxrkdj5AmO_Qd-25" value="&lt;p style=&quot;margin: 0px ; font-stretch: normal ; line-height: normal ; font-family: &amp;#34;helvetica neue&amp;#34;&quot;&gt;&lt;br&gt;&lt;/p&gt;" style="points=[[0,0,0],[0.25,0,0],[0.5,0,0],[0.75,0,0],[1,0,0],[1,0.25,0],[1,0.5,0],[1,0.75,0],[1,1,0],[0.75,1,0],[0.5,1,0],[0.25,1,0],[0,1,0],[0,0.75,0],[0,0.5,0],[0,0.25,0]];rounded=1;absoluteArcSize=1;arcSize=2;html=1;strokeColor=none;gradientColor=none;shadow=0;dashed=0;fontSize=12;fontColor=#9E9E9E;align=left;verticalAlign=top;spacing=10;spacingTop=-4;fillColor=#FFF3E0;" parent="Wobj9NWWxrkdj5AmO_Qd-21" vertex="1">
          <mxGeometry x="130" y="50" width="110" height="120" as="geometry">
            <mxPoint x="10" y="50" as="offset"/>
          </mxGeometry>
        </mxCell>
        <mxCell id="Wobj9NWWxrkdj5AmO_Qd-26" value="Tenant B" style="points=[[0,0,0],[0.25,0,0],[0.5,0,0],[0.75,0,0],[1,0,0],[1,0.25,0],[1,0.5,0],[1,0.75,0],[1,1,0],[0.75,1,0],[0.5,1,0],[0.25,1,0],[0,1,0],[0,0.75,0],[0,0.5,0],[0,0.25,0]];rounded=1;absoluteArcSize=1;arcSize=2;html=1;strokeColor=none;gradientColor=none;shadow=0;dashed=0;fontSize=12;fontColor=#9E9E9E;align=left;verticalAlign=top;spacing=10;spacingTop=-4;fillColor=#EDE7F6;" parent="Wobj9NWWxrkdj5AmO_Qd-25" vertex="1">
          <mxGeometry width="70" height="40" relative="1" as="geometry">
            <mxPoint x="10" y="50" as="offset"/>
          </mxGeometry>
        </mxCell>
        <mxCell id="Wobj9NWWxrkdj5AmO_Qd-27" value="&lt;span style=&quot;color: rgb(158 , 158 , 158)&quot;&gt;Schema&lt;/span&gt;" style="text;html=1;resizable=0;points=[];autosize=1;align=left;verticalAlign=top;spacingTop=-4;fontColor=#000000;" parent="Wobj9NWWxrkdj5AmO_Qd-25" vertex="1">
          <mxGeometry x="4.5" y="13.5" width="60" height="20" as="geometry"/>
        </mxCell>
        <mxCell id="Wobj9NWWxrkdj5AmO_Qd-28" value="" style="points=[[0,0,0],[0.25,0,0],[0.5,0,0],[0.75,0,0],[1,0,0],[1,0.25,0],[1,0.5,0],[1,0.75,0],[1,1,0],[0.75,1,0],[0.5,1,0],[0.25,1,0],[0,1,0],[0,0.75,0],[0,0.5,0],[0,0.25,0]];rounded=1;absoluteArcSize=1;arcSize=2;html=1;strokeColor=none;gradientColor=none;shadow=0;dashed=0;fontSize=12;fontColor=#9E9E9E;align=left;verticalAlign=top;spacing=10;spacingTop=-4;fillColor=#ECEFF1;" parent="Wobj9NWWxrkdj5AmO_Qd-12" vertex="1">
          <mxGeometry width="530" height="250" relative="1" as="geometry">
            <mxPoint x="10" y="230" as="offset"/>
          </mxGeometry>
        </mxCell>
        <mxCell id="Wobj9NWWxrkdj5AmO_Qd-29" value="DB" style="points=[[0,0,0],[0.25,0,0],[0.5,0,0],[0.75,0,0],[1,0,0],[1,0.25,0],[1,0.5,0],[1,0.75,0],[1,1,0],[0.75,1,0],[0.5,1,0],[0.25,1,0],[0,1,0],[0,0.75,0],[0,0.5,0],[0,0.25,0]];rounded=1;absoluteArcSize=1;arcSize=2;html=1;strokeColor=none;gradientColor=none;shadow=0;dashed=0;fontSize=12;fontColor=#9E9E9E;align=left;verticalAlign=top;spacing=10;spacingTop=-4;fillColor=#FFF3E0;" parent="Wobj9NWWxrkdj5AmO_Qd-28" vertex="1">
          <mxGeometry width="490" height="220" relative="1" as="geometry">
            <mxPoint x="19" y="15" as="offset"/>
          </mxGeometry>
        </mxCell>
        <mxCell id="Wobj9NWWxrkdj5AmO_Qd-30" value="Schema" style="points=[[0,0,0],[0.25,0,0],[0.5,0,0],[0.75,0,0],[1,0,0],[1,0.25,0],[1,0.5,0],[1,0.75,0],[1,1,0],[0.75,1,0],[0.5,1,0],[0.25,1,0],[0,1,0],[0,0.75,0],[0,0.5,0],[0,0.25,0]];rounded=1;absoluteArcSize=1;arcSize=2;html=1;strokeColor=none;gradientColor=none;shadow=0;dashed=0;fontSize=12;fontColor=#9E9E9E;align=left;verticalAlign=top;spacing=10;spacingTop=-4;fillColor=#FBE9E7;" parent="Wobj9NWWxrkdj5AmO_Qd-29" vertex="1">
          <mxGeometry width="470" height="170" relative="1" as="geometry">
            <mxPoint x="10" y="40" as="offset"/>
          </mxGeometry>
        </mxCell>
        <mxCell id="Wobj9NWWxrkdj5AmO_Qd-31" value="" style="shape=image;verticalLabelPosition=bottom;labelBackgroundColor=#ffffff;verticalAlign=top;aspect=fixed;imageAspect=0;image=data:image/png,iVBORw0KGgoAAAANSUhEUgAAAtoAAADICAYAAADWb0aKAAAMR2lDQ1BJQ0MgUHJvZmlsZQAASImVVwdYU8kWnltSSWiBCEgJvYlSpEsJoUUQkCrYCEkgocSQEETsyrIKrl1EQF3RVREXXQsgduxlUez9oYjKyrpYsKHyJgV03e+9973zfXPvnzPn/Kdk7r0zAOjU8KTSXFQXgDxJgSw+IoQ1ITWNReoEFGAEdIEHADy+XMqOi4sGUAbvf5e3NwCivF91UXL9c/6/ip5AKOcDgMRBnCGQ8/Mg3gcAXsKXygoAIPpAvfX0AqkST4LYQAYThFiqxFlqXKLEGWpcqbJJjOdAvBMAMo3Hk2UBoN0M9axCfhbk0b4FsatEIJYAoEOGOJAv4gkgjoR4RF7eNCWGdsAh4xuerL9xZgxx8nhZQ1hdi0rIoWK5NJc34/9sx/+WvFzFYAw7OGgiWWS8smbYt1s506KUmAZxjyQjJhZifYjfiwUqe4hRqkgRmaS2R035cg7sGWBC7CrghUZBbApxuCQ3Jlqjz8gUh3MhhisELRIXcBM1vouE8rAEDWeNbFp87CDOlHHYGt8GnkwVV2l/UpGTxNbw3xIJuYP8b4pFiSnqnDFqoTg5BmJtiJnynIQotQ1mUyzixAzayBTxyvxtIPYTSiJC1PzYlExZeLzGXpYnH6wXWyQSc2M0uKpAlBip4dnJ56nyN4K4WShhJw3yCOUTogdrEQhDw9S1Y5eFkiRNvViHtCAkXuP7Spobp7HHqcLcCKXeCmJTeWGCxhcPLIALUs2Px0gL4hLVeeIZ2byxcep88CIQDTggFLCAAo4MMA1kA3FbT1MP/KWeCQc8IANZQAhcNJpBjxTVjAReE0Ax+BMiIZAP+YWoZoWgEOo/D2nVVxeQqZotVHnkgCcQ54EokAt/K1RekqFoyeAx1Ij/EZ0Pc82FQzn3Tx0baqI1GsUgL0tn0JIYRgwlRhLDiY64CR6I++PR8BoMhzvug/sOZvvVnvCE0E54RLhO6CDcnipeIPuuHhYYBzpghHBNzRnf1ozbQVZPPAQPgPyQG2fiJsAFHw0jsfEgGNsTajmazJXVf8/9txq+6brGjuJKQSnDKMEUh+89tZ20PYdYlD39tkPqXDOG+soZmvk+PuebTgvgPep7S2wRthc7gx3HzmGHsCbAwo5izdhF7LASD62ix6pVNBgtXpVPDuQR/yMeTxNT2Um5a71rt+sn9VyBsEj5fgScadIZMnGWqIDFhm9+IYsr4Y8cwXJ3dfMFQPkdUb+mXjNV3weEef6rbmE+AAEbBwYGDn7VResAsA8+Y9TOrzr7ZPg6gPqzy/gKWaFahysvBEAFOvCJMgbmwBo4wHrcgRfwB8EgDIwFsSARpIIpsMsiuJ5lYDqYBeaDUlAOloM1oApsBJvBdvAr2AOawCFwHJwGF8BlcB3chaunCzwHveAt6EcQhITQEQZijFggtogz4o74IIFIGBKNxCOpSDqShUgQBTILWYiUIyuRKmQTUof8hhxAjiPnkHbkNvIQ6UZeIR9RDKWhBqgZaoeOQn1QNhqFJqKT0Sw0Hy1GS9ClaCVai+5EG9Hj6AX0OtqBPkf7MIBpYUzMEnPBfDAOFoulYZmYDJuDlWEVWC3WgLXA//kq1oH1YB9wIs7AWbgLXMGReBLOx/PxOfgSvArfjjfiJ/Gr+EO8F/9CoBNMCc4EPwKXMIGQRZhOKCVUELYS9hNOwaepi/CWSCQyifZEb/g0phKziTOJS4jribuIx4jtxE5iH4lEMiY5kwJIsSQeqYBUSlpH2kk6SrpC6iK9J2uRLcju5HByGllCXkCuIO8gHyFfIT8l91N0KbYUP0osRUCZQVlG2UJpoVyidFH6qXpUe2oANZGaTZ1PraQ2UE9R71Ffa2lpWWn5ao3XEmvN06rU2q11Vuuh1geaPs2JxqFNoiloS2nbaMdot2mv6XS6HT2YnkYvoC+l19FP0B/Q32sztEdqc7UF2nO1q7Ubta9ov9Ch6NjqsHWm6BTrVOjs1bmk06NL0bXT5ejydOfoVuse0L2p26fH0HPTi9XL01uit0PvnN4zfZK+nX6YvkC/RH+z/gn9TgbGsGZwGHzGQsYWxilGlwHRwN6Aa5BtUG7wq0GbQa+hvuFow2TDIsNqw8OGHUyMacfkMnOZy5h7mDeYH4eZDWMPEw5bPKxh2JVh74yGGwUbCY3KjHYZXTf6aMwyDjPOMV5h3GR83wQ3cTIZbzLdZIPJKZOe4QbD/Yfzh5cN3zP8jilq6mQabzrTdLPpRdM+M3OzCDOp2TqzE2Y95kzzYPNs89XmR8y7LRgWgRZii9UWRy3+YBmy2KxcViXrJKvX0tQy0lJhucmyzbLfyt4qyWqB1S6r+9ZUax/rTOvV1q3WvTYWNuNsZtnU29yxpdj62Ips19qesX1nZ2+XYvejXZPdM3sje659sX29/T0HukOQQ75DrcM1R6Kjj2OO43rHy06ok6eTyKna6ZIz6uzlLHZe79w+gjDCd4RkRO2Imy40F7ZLoUu9y8ORzJHRIxeMbBr5YpTNqLRRK0adGfXF1dM113WL6103fbexbgvcWtxeuTu5892r3a950D3CPeZ6NHu8HO08Wjh6w+hbngzPcZ4/erZ6fvby9pJ5NXh1e9t4p3vXeN/0MfCJ81nic9aX4BviO9f3kO8HPy+/Ar89fn/5u/jn+O/wfzbGfoxwzJYxnQFWAbyATQEdgazA9MCfAzuCLIN4QbVBj4KtgwXBW4Ofsh3Z2eyd7BchriGykP0h7zh+nNmcY6FYaERoWWhbmH5YUlhV2INwq/Cs8Prw3gjPiJkRxyIJkVGRKyJvcs24fG4dt3es99jZY09G0aISoqqiHkU7RcuiW8ah48aOWzXuXoxtjCSmKRbEcmNXxd6Ps4/Ljzs4njg+bnz1+CfxbvGz4s8kMBKmJuxIeJsYkrgs8W6SQ5IiqTVZJ3lScl3yu5TQlJUpHRNGTZg94UKqSao4tTmNlJactjWtb2LYxDUTuyZ5TiqddGOy/eSiyeemmEzJnXJ4qs5U3tS96YT0lPQd6Z94sbxaXl8GN6Mmo5fP4a/lPxcEC1YLuoUBwpXCp5kBmSszn2UFZK3K6hYFiSpEPWKOuEr8Mjsye2P2u5zYnG05A7kpubvyyHnpeQck+pIcyclp5tOKprVLnaWl0o58v/w1+b2yKNlWOSKfLG8uMIAb9osKB8UPioeFgYXVhe+nJ0/fW6RXJCm6OMNpxuIZT4vDi3+Zic/kz2ydZTlr/qyHs9mzN81B5mTMaZ1rPbdkbte8iHnb51Pn58z/fYHrgpUL3ixMWdhSYlYyr6Tzh4gf6ku1S2WlN3/0/3HjInyReFHbYo/F6xZ/KROUnS93La8o/7SEv+T8T24/Vf40sDRzadsyr2UblhOXS5bfWBG0YvtKvZXFKztXjVvVuJq1umz1mzVT15yrGF2xcS11rWJtR2V0ZfM6m3XL132qElVdrw6p3lVjWrO45t16wforG4I3NGw021i+8ePP4p9vbYrY1FhrV1uxmbi5cPOTLclbzvzi80vdVpOt5Vs/b5Ns69gev/1knXdd3Q7THcvq0XpFfffOSTsv/xr6a3ODS8OmXcxd5bvBbsXuP35L/+3Gnqg9rXt99jbss91Xs5+xv6wRaZzR2NskaupoTm1uPzD2QGuLf8v+gyMPbjtkeaj6sOHhZUeoR0qODBwtPtp3THqs53jW8c7Wqa13T0w4ce3k+JNtp6JOnT0dfvrEGfaZo2cDzh4653fuwHmf800XvC40XvS8uP93z9/3t3m1NV7yvtR82fdyS/uY9iNXgq4cvxp69fQ17rUL12Out99IunHr5qSbHbcEt57dzr398k7hnf678+4R7pXd171f8cD0Qe2/HP+1q8Or4/DD0IcXHyU8utvJ73z+WP74U1fJE/qTiqcWT+ueuT871B3effmPiX90PZc+7+8p/VPvz5oXDi/2/RX818XeCb1dL2UvB14teW38etub0W9a++L6HrzNe9v/ruy98fvtH3w+nPmY8vFp//RPpE+Vnx0/t3yJ+nJvIG9gQMqT8VRbAQwONDMTgFfbAKCnAsC4DPcPE9XnPJUg6rOpCoH/hNVnQZV4AdAAb8rtOucYALvhsAuG3HAot+qJwQD18BgaGpFneriruWjwxEN4PzDw2gwAUgsAn2UDA/3rBwY+b4HJ3gbgWL76fKkUIjwb/BysRNeNBPPAd/Jvf/Z+Q5skAK0AAAAJcEhZcwAAFiUAABYlAUlSJPAAAEAASURBVHgB7F0HgFXF1T6LKB0Vo6CoLNhLYo3GjkaNNfaCGjUBu0ZNYhI1iYkm9m7sGk35xd6jaFSILZbYYkNEBaTYsGFByu7/fd+Zee/u4+2yLKDscmb33TJzzpyZc8+Z+e7cuXNrHho6rL6mXb1ZfY3VWb3V4M9qeG4IOPYDxdfrmHHlwLh2NTVWXweGnFRiY26kKEWAMR2THIf1kBvyqe/Qf9hfy/1v/NhxtmTvpdwxS+4W/hftT7S/rbX/mTB+gi251JLy6ezJ5U7WXT3638Afgb/mffyJawRXJc5LEFjuSxDMc2y0x7Y+0TFdnRfBuCB0riSJ8Uu8zom8mUEpFE4IzhEf8kP/YX/hf2oLcjuR2pBof7wVFciK9lf9FE1kvul/VFfWFzWO6z//XX9CKtlAXP/Wbv8Yy87gt3CEKJ7V1zkAqAMSIq6uYc9HeMxRaP1wKmTt99sJOSeHYNcJHuTBhtED92U5BObls8JRyJdeQv+yLgv7C/+L9ifa3/mu/2FXix4z2r9o/6L9a93tXztHxUC2xND8EeLRuxmlA9PUEKZ4AigSXR2AMkn4+CqxiMw3ysBIwzTPnHGSgPMkh8OZEpZIcrzYnZOPRhRSeUI+tVEv3Yb+w/7kfXCV5CXuK+7A4X/R/kT7650HtuxUWlH/k65c9H/R/7sJOx4K/ENttC780y5fNI5J19W5QQMC8zY69dwEyg6k3e9J4xdcQJxgm/T45/C+pzlNDUfCRUtAnni0c5AtapKCJuSH/sP+5Azyhln1v3oCyvC/aH9Se6s2Ndrf6H+i/0WbEPgj8Nc3iz/btZMZollmo0ywjHMMc3Pjg91ePsQyJACt5isRi4O0MGZME1HII8/iBR1JEzmjCKoJDDgcHvKTVkP/YX/JR1rif3TD8L9of6L9ZQfjnZaP7bCfaaX9jwqebNovLLY+KMWtd725rtH/RvuXbKWt2D9N2807V6zV2j9GtAF6CZLpuKhVO/lvdmJE4ZApvuEBqHAhFYct9SDMjCOBZ6ZomJyMpAKtWjyXQH7H4+DkHPCQH/oP+4PXuK+02P/gk+F/1CF+0f64HqL9hR5ab/+j3hXmTKv2DQ9o3tH/SidQSuAPh1nURLT/tAr85sH23+dos2z6w16F9NsI3zINIY9WsyqMIHgmH+h95KCUwMTyj+kkLDUOPmIuYIHoUj4h37UW+k+241aEE+kl7I+a8FDV/+hynoCD8L+SDqL9gTVE+xv9Twbn0f/yiWHgD7YJ7CoSjoNO1GsE/kj9Z8Id+Ww28W87KVsqhgNS0zrmFajBtA5dCUZicNqPaaB1+PGU003alTp3xOmaOa+YyK90v57MnqmcCi5RJGJEyKcSQv9hf8kX6BSz5n8czQj/o9Zcd/QnNS7R/kgT7E+j/fXuprX0P27L3lNG/0u/doAc+AOWAXUE/mo9+LOdRrB5F8MLJzBNe6Zz4w5HPk4D14MJ7BEQqYuMQ86vLt8n844o0ZX4eECjQAoOmZNiIM/HubGl7JAf+g/7mz3/g2OF/0X7o3EpNrLl1jba3+h/ov8N/FFuEQJ/fe34E1NCaYHspQF+2UATDesNRRywgUK6RzsgFhgXAkcKacmOnQdSIjAj8fKEgJ3AWqSMUCBlhuaiD/lSQ+gfhhH2B/+Bx8yC//k9cvifGpdof6L9bQP9j5oA9ZK4nOwY0EdG/0s9sJ0L/BH4SyBSkEntPsEowzzY/gNoEwKzcPyhoOm5Wl4OhlNTSmCb6Tqnz+OY/7R7Z/Y8cJyzyiPk4k/LizCVeUsqWhKnTpmG/NB/2J/8alb9L/U9cqTwP2/Kov1RK4s2FkMa0f6qf2pN/Q99OvrfwB+Bv9JgbyvGn5g64uCZd4k6SpXxUegMg9FgK90bbtLVEBCpW+dZygOtAqeJcA6VoLQmkPM4kWBtblGDVUk4CflJd6F/t5OwP3oL/MJvQrOXzdT/SBj+F+1PtL9tp//RQBRbAzh39L+OKdg2UiOBP2gYQlquEZxE+z/Ptv/po1Pspb1j58UT9EODnaA3o/Qk21OQqmda2OvZRQbjJEKUAAKO0TDkR9/kVyLFMGAvPMW94rgJ+VmToX+aQ9jfLPkfjQZuFP6XvCjaH/lQGuZIjS52DGx3k71E+5sUMk/2PxqO8kumfpIXDb/of92AA3/ImWUayYyj/Z8323+MaPMKaePAGleNq43w4nHLFG5FoSuKjZiw1z/SYPC+ticJSIkfH1WKk/Q81MbTdOfFdPL6Pp0pz5Af+qclhf013//oX241dCj8wv9kQXqypqZHG9dNtD+lgZNof2ES6qDUG81b/Q/71WTF3LO/1Sb6X9cD9CFsEvgj8Nc83v+1V4cML3aDpSN7syMHh0NffNFF9tR/n0IkATO6LdxNlxpnOj7itSMjD9A0EFN37NTZLr/icrFp1IQywKh5k8yKTQiFEBAwjTE891MlkZ5D7nk+uD8aATnpKAT55C/F18jZErOSWU7KAxnLRXKdM4KniGA+c1n+5Clf2SEDB0km5e2y22628y67NFv+X6+5xh4a9hDKWmMdO3S0K6+6slXV/5vWf8ivbv8vvviinXnGGW6XcIOeSyxhp595pi2wwAJyC7pG0f9+dszP7IP335f/9+lTayf/8WTxzuv+F9e/+vX/utq/0H/L9c9rxEGn5vR/f77gInv66afV0bFrpHOSn/2tRtNSH8hzHYqm3jp16mSXX3mFUyvOu8VK/1ejkG5Qv5z8lR08KPdpNbbrrrvazruiT0syJB0n80L/G/bXcvsrtv/F69+a8Ne8cv3bE7wSicpJpE33Fm4Jqj+Y+IGNHTOWvoNQ9qQylXtnOcXpOnXuKHLlAz6KETimjEzM/Uzke4fgY5v+cpPzK0aH+RyUKS+KqPdFwSWKtHNL/pjRo+y0U09V1SDWBh40yL677nol+fVAIm+Pzfoz+/iTj10PJG5G/T/86KOS/jvh5kXNIPjmlfqzOWc91Kx/A/oP+a5/GaBQLy4GomZm/5MnT7ax42CXtEOEsbDRG2+80QYM2AdnGgeW/2f/e2fCBHvnnXeV1qlzp7A/WrxU7/oP+/9m2t/wf7e/D9lPv/02XRmBDTLi8V81IFlp2Hfq0Akn0CLjcmQV/5d9Aw+QhgB6HNoLbyXq7eNPP2EO30j/G9c/2h+Z+zxuf/omjftY8kq/bvQ6Ft1HT3EsGpzn4EeFcydIyYhPSck1NXCceZmmu27dbqS8dZsECqaVcinn41EskVxLp0mEmPRuRLpbl+JT4tyW/xXu7ke8NsJee32EjRgxwiZ9OkkV8FGFcl1ynXLBm19/r0iux7xW/3xdvin9h3xqAH7BTnAW7F96897V/Q1m9re//tXemfBOVf9zr3NbLLiqqx/y4/pDFbOg/+b7f1KxX7B5rv3z0sX1nxv2ny55wQBm0v+VKNFLFPo/Rs/Q/zCyxf0vy6EMtGXbMDfqLympHhIEOdH/zVv4J1+XuP7QRBPtf3sqiuZLA+Yl9L7XYR3dc5ttfmCrrba6qBKFvfXWm3bfkPvce+EIq666qm222WbKIw1R20ILLsis4YDgAk2WwDj6DkfceGdcBJDV5OcWgzxZfubB2oRpVCkdKG8JU6UpaW7Lh0gPLCAC6+mF8lJ26NTRbr/zDtWZg+wdOmKkn5pudv2VrfMnbc1L9Sfo4nXJd2Ref1bRSzm39R/yXf81HM1GaK7+051u4tHOeNN4wfnn22lnnK6cmHP2P32NDefMn5eW+3nB/+L6+/UP/5s1+29++5vzdT3L/pOfzX37hyA2owgsRVP93zZbo59ehf20HivCR2vszTfesPvuv19tM/m9n+7veaFTZtyC7RfE3mvV/P43FYo7qcf7eJwpJ8VF+y9tRP/ntpEtzG0EdtJs/CMDc5PK/U+ys7nvfzDwdMfKUjTlfzNrfwW0mQGX5fNOK4Ff3e3W2wYbbmQbuvtAEgSD6OGHHwbQdgem4pZbbjnbY8+9ANJ9TjW1QsUy1Mjv623KlCn21qi3bOHuC1uvJXulePfUpuTn6n3w4UR79933bJmll7Fu3btCAJoFlMVvECCI51k+Tr/C3Oj33nvfPpw40dq3X8C6L7yw9V56aVWhXK6m5U+bPk2NVecunWyppXpbO8xfVbXEluWzhB6tfKEjzWPP9Ue5unfvziQn1AFKnadZpBpQ/59/9oWNHjXKlu2zrHXp0g30fnnFgo3m6vGkgXxqT4kN6l+pfyfxa8LjavKrXX8KUwPsIqrUP+TPC/qnH/Cap2WEdFy+zn7dS/bDBPq3LMf9nYe8/k8++YQ9/O9htumm/ZHs9sec5fo896zEW83/pk2dau/BTyd++AHmey8of++99FLuE8oPrOSuYv/Z/j75+GObgJH1vv36WYcOHWawv3Hjx9nnn35uSy61pHWFbzVH/7Pb/rDaUpmrRCfV6t9c/TdVf9aHL5gX9R/y5z/90x/oo81pfzfYYCP73oYN+9+H/41++j4MiKXQb7l+tsfee+iM9penYlJC7v+not8c9dZb6LMWQT/dE7SNyEe8GoycOey12P9G/6OLl9o5Py62v+H/NC21dLKwbH/qa5DU1tq/9qwsOww9+2G90ZNy9Kqd7jiSk9FOePugOaCkYXDj0RE6UCpKx6VoZWaPP/6oXfOXawCyR1nd9OmiWbRHD1trzTXtyKN/aossskhJ/vjx4+3www+VktvBEk8/4yybNOlTO+/c823COxNKjk3AfPzxx9uqq62KksKlIcqlmb355ls2+Lrr7JFHHsEI3eQULyrrsWgP27T/ZnbIoYdax4UWSkw1ds7ZZwNcPKKyrbnWmnb8iSfaOWedYY/8+1EBdiYsCPrtt9/eDjvsMB0/gpsN8k1HnXKfyKqfc9Y5duH5F+Bl0E52/Q032OSvvrQBe+7NUqIsNbbXgL1tb/wUVOgae/KJJ+yKy6/Ek4K3UHchEFthxeXshBN/C7KkUBolkxgoMMVX1t8bZxK5Rvy6+Bx1jqh7bjlPp5vl6x/y5z3943LLKtKlnfn1B6GbCGyO1RE3DcIuuvDPtu5317XOnbuCBJarPJGe8lYjWGF/o94aZdcNht/Bj776arLy4Ya5Lpr87lD43UIAzszoS/jm3nsnP4CAE3/zW90QX3DB+TZm9Bi1we3aLWDrrruOnfSHk+FPHe2mG260O267zcZjvngOG260oR1+xOHWGzfCDJX2Pyvtj+ujGe1fQVfhfw3b30r9R/tDp2lZ+0vfKflfsf+dFfujU3gu2hf93O0dEnDRHnvkcfTTf7HReOeIfRq7G/rtmuynf4p+etFFyv2/2oHUGCBX9W2N9P9x/Vt+/dnOzvb113Vpmf2F/Dmn//beM+Fy4oLQl7Mj5s5U7oR4Xi/5t3tn2qY4n6Ajl6PbMdBZzz7rbIx8D6GfKzpn/9GHH9pDDz1kr7zyip12+mnWp7av5NfVT7dPP/lU/Nw89NCDdhs61mlTp+GM3B74IsYxcP4rr77a+vStdQCK5JdeetGO/9Wv7fPPP0+UqTQqvNlHH31ot99+m7366qt26aWXItHL+sUXX9qnfKEDeXBlhV//8pf2wvPPl/LgwdQpU+12lGXSpEkABSeiTFMxH/vTrK5Ua7Mvv/wCP7MpU6eIn43YJ5M+KdX/q6++8nyljHq77dZb7eI/X2J1dd64eWK9vT5ipP30yCNtqd5L5Si/CEmZ0gaviRpgkOSIUknIRjflDiBf+B2GAzpVO8lnsuhm6frzpgEh5M87+uf1UHCb9uMmrj+vYLJ/0m6y2cb26MOPKGoiXqy6+qqr7Sj4mNsPCArZsvMsXv+X/veSnfDrX9lnBb9z+c724cfwO/jOcPjdJZfB71L49BP4RQpDsbLOQw88gCdfUxXDorENefLJp+z3J/3O+vVbzq4fPDiTu3ycPf7443gxa7xdgZUTFlyI09W8oC1pf5rf/jWsf3pan2QXFIVS6iz8L9qfb6L9pYvTY2B/POCusv2nn3DAaMi9Q8pptGTQfpj66ZdfedlOP/1M9NPLMjOmlvzPMT/jPD5JxDlD2D/UCDVAX9/E9Q/9l+z/m9Z/YbVddxbdncI2fJ8cCDs6HqdEyJHgXTQgGRE3MKTyOWnMbr7pZgfZPEHiJptuagcdcrBtvNHGmhdGv+QqBr8EqJ0+bRpOnY/kOdx8403WqWNn23LrrWzjjTfCKLuKi+Qam4YG4pZbbvZCJPlsMDLI7tatm/3s5z+3v/7tb3bpZVfY9zbYoASKRwwfbiPw8mJuLoqSCf4Jslf79uq200472eKLL0FxCKDGftjQoZqS0m+F5e0QjG7vvtvuubjab7nlVnbY4YfZQQcdXI6XopAD+Am8dZ+EzMYCIFx88cV4W9tH+hfCqPnWmGvHEfctvv99+/KLL+y14a8V5LMgUrj6dm/kEFVF/0V96qYJ8ngzVYenEll+uf4eR0HNuv6gY7sR8vPlmNH+v279oySyDL8ovJIyWkbD5nBccf092Wm45Uo5tLkcbr/9Drc9EuKfT1po/wrIr3j9zznnrBLI7tYVfvcL+t3f7bLL4Xff+14qmNnw14bba6+9huxoi8zJM+R2yD33Wnu817H9DjvY5ptvbp06d06pZk899ZRAdrfu3WzLrbayrbbe2jp37ZrqaxqFewAgXW7mGbew/Qn7D//3VtH1QMvED/8N+j9EFO1/brW/7nCzIT/1O+4YqAMeaVa2/zffdJPdB5CdwyabbGoHH4x+epNNbMH0ntW7775rvzruON34ujPTT5Jb44A33uVz6owq8z2Pq7U/nLYS/U/WVfS/bi9tt/1t7xV0N0mzFuQ08B01MHInddRwpuRNehxEG0G8XE60MBaeg/Gd996za6+9FgQejj76GNtpl53SGV7SwMuUg378E5zX2wfvfWAPopPcGi9dSn6i4o7L2V1x1RXWs2cv0Y4bN84OwprUfDRNkS+99Irks1wT3hmP+c2jyaawy2672g477pDcvQbA9yB74j//URqr8/JLL9mKK66IdDd2Jqh+2O8K3iOPPAp1qcFjs6M04nz7bbcqnSMArw1/FSOAm1mfZftg5Pk1u/lmAH7pwwDo1wdg2TKduwO5llBI6Qkao3Lx/4+//9XqpzMS5JD1p1NPs7XXWVvnTB+Gm5KTT/6D8yFWUzwQX8M5IBTIY2xUbsRl/VMq68gE7nRIYtKzgUvyPc1Tmdjs6x/y5z39q0Tuf827/rQhUpav/+GHH4FpTE/aZ599Bluos3PPPscuueIyWwBTOBiyf2hEG3ZEe5qA6V7yu5TNLrvtYjvssGMyuno7CJ0281RXDPqXX37FVlp5pZRZWT7nYl988aVp1Awj1Y89br898TcqI+Xw/YjzMa2kb20/2L/Ziy++hCc+P0XplbNe0GZdZrv98WoRO3kdKJzOhAjVH6fhf0k51AX1z9Nof+Z8+0u9zo79yYh5jZKX8HoV2v/38S7FX6/5K4UoHPXTo/GNh539BLScyjjwJ+incfze++8Zb2Z/gIGgyv5f1x+yov/x9qd57S+vi18bKZh+pFFvP4v2R8rBBsbXBtrfdnW8wLzivOx4dqpDnfKIJkPnRGW55xkdlaeKcl46rzJBAvP6DzrJKZiDSY4ePRa1HXdOHS9zAF+/fn1tnXXWZZaUbrdhOgdpuQYgtqXQf4vNrFfPniX5S/de2tZae+2S/I/wgqSuAZgIxv95zz32zyH32N3YH7D//spTRYXQZ597Vuc5/2lTfRTZ66/KSDjT9+LcUdYJZWuPDn7b7bbBcS5bjU2c+KHPV1PpU7wrUScatfbWRxQCthLs9VdmqOkTmJvN+pN1vfXXt7UxH1VkElZjm2/R31ZYYYUsGGlIpf7pkJwvn3i9qEhL+m8oH9FUujJuKJ9iWnT9Q/68p39ezBZc/2x/NJBFF+sBYHwQc1IYOfJ1u+2WW0v+57aZ/D/ZX89ePe2ee++F7/F3j+1/wAEoBjtd2meNPffcMw3sbzqmXHnw3LJ82n+fvn3cTEHw3fXXA7guk37nO9+xfn2XK9n/6lgJaeGFu7v/g4wvT+b6t7z9kYel4rF8jbR/Yf/znv2zEW2B/c/T7R/abVrhDP1vc+2vHh0qrbiR9v/xJ/6Dd4gwaAUhPfDe1A933qnkf+xnvJ9eh26scMet6Kdz/6Mu0/suJbdF/Yf/z579gVsopRH7o1HN0/43B68/RrThO9CG/AZbujbjpAAdI0VzsJHGkUwSJsfDkc7p9+TUVxyRzreW6Xds+CZ99oUd+KMDcSIfFR0zmFSYiz1+7Dilc5PlM7+lei+DLUJB/rcWW8zlI+GLLzAXG3vKr8FNQmc8bmb/PxLTQoZj1Hns2+NsLFYoeGvkG/bOu+iIEZSfjjwbHrL+OdMFF+pgS2C6SLH+i/X4FglKdfoC87DZ4OTcPE9vFKEk15qUylqAriQUBy7MPsNc7zwfnVFrrrGm8sv1z/JXxxSW118fqbQ68YKYk0mVJzb4Z/15kPWvkhXk1wgUIZZsST5pchCpTry8TMvy5SoF/UtuyJ/n9C9wy04Q9sDrp+tM4EFrrHL9ncotwE1CXLbjjj+0+4fcb5yXSRPjC1KbbdZf9c0+LdtP9s/pXFzCkoJHwk6HY1rW2LfH2rjxY7Fiz5vpIzcuh5kwT4ZK+1t2mWURW7a/9u3bYypJRzyuxgsPENxziZ6pTiBL9telSxf7BPO8mSefNGm0Dictb3/K8sP+sy6g0PB/t83c/32N7Z/8paX6l2fA09gopFBs/0fBPxno/5999rkdmAanvCUgT43eXaL/0TffRl/KvfwPRwo4ZTKtJfqf5re/1GgO0f/KqqCO3Oa0PfzRnnOlfPTJPYYdNntBGoIMQAc8J+RCWooXDVl4jq2ParuiOMXDc6i3qVO/wlzkt8lWPUA+H1Xz5ULv8LMUs+6Yh6mg8rh8dsBJKJK8cH7HX2PP4BO0F2LFhDFjRiMJaakupOfI+ocffuT5qdwux5c4Yj5emS5du+BI8LhU//YL5qE1ZyeyZYPVzlsYLwaTUr5kzPrKoxGJUzvW8wMsO+gnXs6FF1mYmaLISEQUS0S6hbEsoTJ2Yt9Cfh0afcoHCaqqLci85DyfUT5pPJA8y2nR9Q/5857+2fkny23W9ZflgCX7iYzXfezYnx9rhxx8iMDrl3iz98ILL3D/LtkP7AxGlO3v2Weetosu+rO9jalbJStL+fZYDH43Mfmd+GGbsr+cmds/l+CstH8fjyNdvS2kFx2dhy+20P75uXgFOQuP3P5b2v5wjnj2i+x/dHH3R9cNpWT5uf7hf7zqfh3V8kT7M8faX9pbS+3PeelsOsLGD3L7P5b9dPLTKVjWjzfITYXP1U/jfSr4n8qUspaLpHzi+qPnDfufY/bfVtrf9gTZ2Q8F23S3XgZq7niJBoQCcPSsgpOxgyyBPCQs0RMvEBIwInAEev8DDiw7JhySnVk7ejtyS2QYiab3SkBpp0YAsYxQbp6lYjwCObD8kP/WqDftN1gijJ+WZiBA3eYH29iKK62Adan7YF3QhW3vPfZAUb2s3PHHAhSzzevgZqCqzDIB9mKhI+GYnDxX/XWmE7HUIV/SqJqK8RyZA5dP7Nlz8dTGufyPsXZwNf1zxC4H5UcqHPBY8rmn/hHB0igPMJTk4xgkCEzzonKAU/pXhMt3CiUww5STczIHHWEjCSF/ntO/+3Hzr786A1x/+mK+ytn++nFdfPjK9ddfT7Owxx591F9E1vXnaIPMTVYx6s1R9psTflta0o83jNtssy2Wp1xB7zBweseee+xJDvwxg3ay/0r5MmGmF9ofys5BZZT8sv0zzU0YeSMtW21L259c/7D/rElpHVoO/69mf9SK7G4utb/Uu4eW6Z+87hc6kgey08ntfy9M+6KtU8pi6KcPOPAAMLBRSH5VyoBe5kHtRcqUfNn/PJ/mtz/R/2Qlp2srXSKu0P6VU1p2/XmZdH106XhtcGmxydc/XbySlUX7N/f0rw/W6DpA67yc7kNSuV8lXg1dIRQCgY9UHVjiBPHwU+w9jemM7Fvb1w+xnTTpc9tuh+1hP8yEqcibTHJo7hWtFAfBfs6m3tPSXoKyaDKxtPhTvvX26COPlkD2Anicfdlll1nPXniJUuUzGzdurB+mhoXgNL98UCIiBelZRt/5camMmRIRJMCQW5ZPcgXEi5zpKJtAcEpQnoxGGTp16oKbgUXt4499tO+5Z5/V+tqV+ucqKMowMVP/chnqg/KLiZKTGruSfApkArVF2Sx70hs9TmlMZ52bd/1DvutwntI/r6tC864/fZgmVA5u89n+eHM8dNhQexcrA9FG6vByJINsiBE8gP098mh53Wyue82VRnrhRlt5w/7HlaaFZfujjcnSGsinXSpvbGjTPGb+CqqaYtT+ZPtjLh7r20zc4vaHkpFVSb7kYsN9Ulb4H7UDhVAf0f7IVmgx5dA8/1O/MZP21116duyvWDL3FnXV9D/4Zp8+taVif46pI9thxZ8FcCNcrg2PGspnzLQv/f2mbAZymlJOc67+zL9Sfvhf+F9rbH/QVLLY7Nh4AXOgO+HHHTdsEOD17AzV9yXf8/TMQ1J35rXXXRcjYE7EFULuvuPOlFdpZ6f84Q+2BZbx2qL/5nbaqaciq6L8JLeK/FxG7ZGuLhkno0ePLhWkG0az+ZIWGwB/jGP2X0wrSblqz3ivsNe/VLKcMSuX5Ktxci5tufGpMmX5OYHlUE2YT0F+Tld/jTSWeyN8bIOBpE//92n773//q3MXXG9PYbUGLe+nciAp6588vMFQFbRxvqT/qvJTHtol+cX6N9Q/qfATMTaV1z/kz3v6pxHN0vV3k+FWrBpnznH1+EBMBzsaqxAoyA54RErfZfsbQ79L0Qtj+T2OJhft7xnYdUoWq7JCRDGOx3pKIwpuSEW7SxE6LbQ/iM7yRZEzm2PtT5LPncqBg2L7V5Cf2x+VY5b0jzxVbm9/wv9kNVJj6frP5/r3fgdKaGn7m7SZ3YOmLJUigna7Dl++B7BmOl+KvOtO9NMKpHLik3//e9sC72ion/7TadXufcu+HPYPrSVPplKL/b8U31D/4f80tvmj/dPLkBxhZsflI81uEay+d36wGMyH1COjpBbv0F1J7pD0XFoWSGFcfFv5hzvtrI9UMO7888+3u+6+G+vj9rfpGBnj0l2v4aUphnZw9H322VfqlnzFljcsR1E+/Z8ytWOZeYqXRZZZdlke8brZxx99ZDfdeKPWpP5y8pf2LEaLL7vschURVVWYoo/giDxZv8fnbYP6e4uHJO8M3JmYUQ2+mLUooll/JtfbjTder6UDGf/b3/5W5XORyJH5pLwYN2C/ffShgOlcRxsRJx5/ItYR3t6WX2F5exMvcN4NnTEIUyOd14OCUu3Lx3xZRndArn/XI+LQQLNoyhyZeD7MQzHae7Fn7fqHfNdh6VrMA/qXZeIC0/+ac/0zhpWd067BK99I9sn47224AT7Fvim+svqwp5GOtgNCt4EaW3qZZWiYVIV9hOlPN9PvfvADfLRpsj33zDNYw/5S0DK4/U+dlj5IozjFlvKqlC9h5KRQ/HJ7VLI/JSAN8jVCmOo/W+1Pof5ZXrH9yfry4idfnAeuf/i/X5Hm2n/Zg92eZ6X/K9kfjFLHc+n60/D512L7S5Us+R8Hv5I3Mq5fv362M1Ya4UfhGC4473y7+867rD8GwOjjjz32mPppuhk9f8C+A0Dldc55Kj/5P/OO/qct2V+0f7T62fC/Av5qz4bC+0m4DsBaDRoNKlgNCByHDsXpDwKJOsZGsYU9Oyf1ksB24KdjDhw4EKtljADofJmE9sbIkQCPI8HJorubkvAofIZ92do+oEBKaliybNZxBvnuz8qT+fCU5e3fv7/dgC/HTZ7MLy/W26WXXJq+/ihS69Cho9YDnjadM6TrjS92lBqNnKdnJoZcBpdPxXg+rKYfihgrlCyO1VF62fhx/lnoKV9Nw5Jmz+FDO52kTyk35ajKgDtrYKkle9sh+OT8pRdfooZt6rQp+MT07SCjVMPLXu1sDaxG8sIL+EolxHmD11C+SiH9i6Wkf10Pgm92Al5UnDBfSvcj7CRrVq8/+XOmyivklxSa7f/r1r/7FD9Igeuri4Jr3cT192vo11+Xk4ZNM6/w/yOO+qk9/fR/8cl0rLSDUGn/m6NTvuH67HcGv7tMvidiCOm4EPwOLy1yVRCaH1c3cAsUheyPRyp/FflMU9NCG0N+RfleZ1Hg/hXpyC3XvyXtT7X6K9eK9s91x225/WHdGLL8r/v6h/zQ/wz254bqiqGBuCM1aP9/PGigvTZihL3yMvpp0HOloDfeeCPx+I79/9HHHm21fWsL/se0ZPRq//047L957W/SHDSIP+i9sfaPdJX4yy8rt9H+SAutAH9gQhZHwXihcalxVXnR6XAeVA0Zgc/tLcbnY+ct+Zw6xHrj6h0XXngRvpJ4qI/6gtyNy2HkSiutZKeccjK+vrhzQ/nMNssXA40JPxYM5znJpfsXugjQ+2BE+w+n/AEjbL3LRIl+gw03tGv+eg1eiuSot8tnwyLjRr4EJso3ySsLYazLp2z9JDiXwuWfccaZttZaa/kLYyRisliZtzIVVz5SCaBsyt99tz3slD+eYr2XQrlBIBrwdsOKK78/+WTbdLNNxauEnEGpgOX6OyPEJv3PIB/xmb0of/auf8jnyDDtLyv3m9K/j2LPwvV3q/Itit+Y/y+++GK4af6J1y8bUMH+loFPnXzKKbb00kunHEFE20fYYIPsd310TvZX8c5Btj9FciP6GdufkjiSJP93HhdAD2IoqL9k/y1uf5ilZ5sO3E+rySfhvHL9v2n7C/m0RNoi7Z8/nKhvSVbcgvbXOWfH/rwYKhiLkw6y/7H/6dq5q130Z/bTh9kiCy/iNCX7NywmsKL66Z3RT5cyKDuIcmTbkdPmZP2TEpE7dFDF/5ke/gctFBrA0D99jz8afAF/tcD/UiZzxP5q8MKT7nNzpnkvX9MFpHvC1FlQWDUvKg1fA6XyXDoZK4Y9mTBcjtkguguT9zEOFf7oow/tLaxQwGW8ei25pC2xBFYmoQNpi03pyGO4VZ4qXfPl102bbm+/PcbexVevuAICH2136dwFmXk9mG35eM7Kn4pPyU/CKiF19dOta9fu1rFjh1StXEvVqlH5fDHyDYwo8CM9vXv31trg0i01Ppv6L9d57tW/qesf8ueu/U2YMMGW7L1Uo/43t/U/HX769pgx9t4779giPRYB8F4W69rjqY5Mv3n2Xy6j+2VL/P+bbn8ak1+uW/hfWRdztv1ta+3PhPHw6aWWhMF8fe3/R5h2+dabb6KfXlCy+cT265SfGgxdyjnp/2WbC/8r6yL8L/dM2e7yXkhtDuLfmoeGDQMCIAgoiyCoK91BEuAhmaPe+bIwjTeYWj3AS8SmIKVnQ1aWurmg17iEFIed8iKvEkI+NePq8EY19J+MJuyvWf73Dj4m0YtPRRTK3gb1ybDKMWU7SwYHgvA/qi38z9vlaP/njf5vwrjxuHlesln+H/1v4A/HZ2zJyq19tP/esJc1Um7nv87+D1NHWAR0Mexl+CMEzlE6IMhWAtK9uATZpKvj6DaiaOKJhQkpgAjppHEuMjFOEnCc5IT8kl5C/zSdsL+W+B+djB5WDvS18L9of6L9bbX9T+o5o/9NLVvgDzXvgb+ohtaFP/VxQ4e+6JQ5H0RVwJ5LCunU75XVWGnDyNR00fAJtkmIf46EeJrTcMTbm3kC8sSjnYMpUZMU+TGPkC9lSBuhf1iH1BH2l29k3e3ct+g1Ph/P/Y+rboT/qUWhZrxNifYHmqBOov2N/od2AEvQLvpf6oGqyKA18Efgr7mJP/Fpl9QtsVNC/0Tj05L1mmdNS8SvFFIHpuY7EScCvRnLNxMY3Jt9sJydHkkTObOjUftyXPhCpM6RHvJD/8lGwv7gJbPof3RDfRo5/C/an2h/6QWtv/9Rx6mqpA0aSDi6+s9SmnfQ0f9CK4E/3E7C/6UHH9uFzxBXJGzxTeFPjGgD9KIU/KMTl+Ziu/+qkExRsorPQtPZPVIFxwlHTgSemaLbREaSinfPuXqegfsD4nAQ8kP/YX9zwP/gk+F/bG+i/Yn2N9lBK+9/2KfSnFkb33j/Gf1v4A/ZBIwi8BdcQz4yb/d/PkcbBc2Ppwl6eMbg27TPd4uI1w0TwTP5QO93DqWExElu/JhOwhI49xFzAXuJSvmAShwhP+kv6T2fhf6hCQ9hf9BDpf/ReVwxTCz/wv+i/Yn2N/qf6H/pBQp8Yhr4g5iM3UTgL+phbuNf//6qOmYAYPbPOuYV4OfWdSUYibsGP6aB8pMvPOV0D34JKfPwUAYsPnEhQpnqevKIuXAquMemiJBPZYX+ZRTZSsL+ZsX/OJod/hftT7S/7GH4Y8C+Ffc/fi29p4z+l9fUAXLgD1gG1BH4q/Xgz3YaweYoMi+cwDTtmc4NjC8fp4FzVNodnpG6yIjl/GqNVmMv+kxX4uMBjQJUOGROioE8H+fmaLgEh/zQf9jf7PgfHIu+KD+lk5W9Lfwv2p9of6P/KbcI0f8G/lBvEfjr68KfmJLNFoi9NMAvO2iiYb2hiAN2UN51Y++AWGBcCBwppE0NGI78hDtmJF6PY2USKSMUKIqgIOS7rkL/YX+z43+O0elVCOF/0f5E+6s+R71MK+1/6NPR//oQX+CPwF/ESK0VfwJoEwKzc+YPHXWa15GXQ+LU4JKzCwk4qZYSAznBNuGyYpWV50jSPEIu/rS8CFOZt5PqDLzOHvJD/2F/cij5CN2iuf6X7n3lSPLG8L9of9ITkmh/AdZaYf9Dn26u/0f/i1bPQYWjkWj/ov2bh9o/TB2BRTJgr6MEpn0U2kGzLFjpsmTR1aQ1t9mIE2oroFXgNBHOoRKUZiuhY+xIgrW5RY1slISTkJ90F/p3Kwr7o9NoSlX5NhQOMzP/o2uG/0X7E+1v2+l/ABS8x22G/7PRCP8P/w//nyf9P310iu5c7tYF/XDBEvSmC8OAuRVM9hMCIg5ni49pCGoPUuMAYMARagfiKVF5OB3ZSe/55nycgEnkDfnSBLUR+pdpUB/40WjC/hr6H1UDteRpWgTm4X/R/kT7S8dgYJvhRzpM/jJv9z8ajvLSq+wsNP2adcE++l9d13xZo/2L9n9e7f8wok0/1saBLayWqx3QeLllCreikEVjIybs9Y80zZ1hp0YCUuLHR3XiJD0PtfE03Xkznby+T2fKM+SH/mlJYX/N9z8H1eF/0f6wQcUv2l+1IHqyqq5HG9dNa+l/2K+mWnCv7pWb6H9dGVCFsEngD9xzBf6al/FnO2+Q3WDl1fBoOjXvpbV8DE2Z/TcDGyju5fXY4OKSjqFGxu7H+ZwNgiA6mURORnqHNyDKRx0CY5HG5LQL+VAF9MebjtA/LQoh7C/8j3bAdoKbaH+i/aUpILTJ/gc2Hu1/9H/R/7uPt+b+v6b/Zv3VbXkP7n2Yw+CMrlMlCzsyEB/7jTWhdBp7RAJfgOTgdenrVbQS/JMn56g0AnPGccOQEp2uSO3JxS1TQ37oP+yPfhP+F+1PtL/qTdAxRP8T/W/gj8Bf8xr+rBk5cqRumDTyLEQMR62pE3gmuNXLigDP/JqSFopPcVxAvwiHhacZwXT8MqjmvpQ3E3MoEDWgQUYhP/SvR76wlbA/OEoz/G/gQYNs2ENDs3fFPjQQGmjlGhg8eLANGDCgldciih8aCA1o4gZHBkvAJo2QOVxWHy/QjAVD9BhLlOj4nUOM0mJeDlB8iM5Au060ZVCusRek8zOI3DGEfNemdBH6T7bo1kHzoS2F/TXX/2hFEUIDoYHQQGggNBAamBc0AKDtqFh4mBBH+AabNLUjTdLAoBrAshIT8kkLk2o4nDXJ9KDD4tzIKQElIqR0TFqNixPeY3lAzqtTGrPkIVJDvuuhpE+fJBP6D/tr0v/4QnKE0EBooO1oQFPj2k51oiahgflWA4C8DnbrtS42ES8hMkAwRpy968YbaKkTr/c3FEtzs6k10YCHQFnHxOhSp3N7pON5JjBXb0Agh4BbBDgO+a6L0H/YH3yiJf4nt4tNaCA00CY0kHrQNlGXqERoYH7WQELARMl5SQdN7gAYzm7ONEJnxHMPRM0U/QiceQCQTIoMsYmk/U+RIBZCdx7SMzAfR+48cRqlhXxqM/RfMhTYRtgffaQp/5NPxSY0EBpoQxrwXrUNVSiqEhqYLzXgI9ryZwfQjpgzcIZOhHEAegCe8wuQHJXm63q+eghoBIRISjqeMy/8KV/QcZoI4gjK6zGVBIPlCg4mE484EK20kJ9UVNJn6D/sb2b+514V29BAaKBNaAB9ZoTQQGig9WsA06nhzPonIC5UCEjP1ybFAf+JhznnA/9cgYR8XOWTwaeCKBttQOInaSQyfX7SCRPgZkZsR0J+6D/sj34w+/5Ht4sQGggNtBENqCNtI3WJaoQG5mMNtOPIdH40TzCtx9NQCEFwPaZ8CAjzXD+cESizAeAIN3kZT2JSeIKnKYnxHPnmtBRGYPl97riBMB6GfGgh3ZCE/qEK6YJ7mkjYX/P9D84UITQQGmg7GkhtYdupUNQkNDB/aoALhDjOE8ojLGbX7iCYx4whKCaIrpPj45wD2QLXShVg1jciFecfUAe8dlYS80VHvexIUMmssAEttv5DtGQwDTEhP/Qvk5B10I5kNGF/TfmfbnLhRxFCA6GBNqEB73/bRFWiEqGB+VoD7fglLcFddOLsx9lf+6dpEEu0Q7DDA9IR8DBggFpAGodKIjwWcEYsM1CWPv2bs7n9nJn5z+XwmFmKWBl5PKk4kul5iznkQw3QSOhfNhP2Rx9x/yn5n26ZXT2xDQ2EBlq/BujbEUIDoYHWr4F2/NBM2Z8JmFkpH2326iE1ESRILLyXKRhXz3X6RIaz1Drk+dwCysoocddghjfJQEdZIT/0H/bnnkYnarn/lbWYc4t9aCA00Jo1ED7dmq9elD00kDWQFgChQ3O6ApAvDnmmY2Jjxmvv8f5xcNIBIHKHX55XS0af+IG9Z5lGyJmP8xNY+1ckka9GxkspLjPkh/5lKzQs2kbYX7P8LxNRZRFCA6GBVq+BcOlWfwmjAqEBaaA9sQzBcZ2mazi4IeQWTuZG6YW9wA9H3nCQ0hOEBhH5RJBAEnbplIibh9oiUscc1U5/IT+9+AfFhP7D/mbZ/7KfuavGNjQQGmjlGkgPh1t5LaL4oYHQgJb3AwZGALzzAx2r3+aGP457Y691swUD02oh6ZjD2iUAXWwdwMas9cOUkRpI4106zzGYrT2BdsiHMqQHaobBb0SwC/2H/TXf/2Q7sQkNhAbahAZKo1RtojZRidDAfKsBLe9H8CuoTNgt0FzWh0CyEwj+8dxhNREQRmEVQZgtSkwH4ZIkCE6odOFFoOkMqEnBOG79wzchP/QPGwr7m03/k1PFJjQQGggNhAZCA6GBeUQDeBnSQW8eWdbkD6Fgf3xPxJxOHTyr4A6TBY+RgcZfCawR8nxtYnMH2zmBe/8pZxySJOQnPUAbvBEJ/cOeksHRWqiRdOrmozjF4Ag6C/uDFtx2pJpWvPniiy8KT9VmrMibb745Y2TEhAbaqAa8/WujlYtqhQbmIw20T0PSgjO+FB9ADD6TThBDwKNOnArBMaeW8Jyjr598Nsmu/cs1Slh88SVs7wEDHCBxNT9ONeFKJELRNTZu7Hi75Zabbfjw4TZu3Djr27evrbTyyrb33nvZoossojw8ZzKX5Y+fMN5uBd+rr4Jv/Dir7VNrq6yyiu291162cI9FNPrH0nhxcQRWzkkZP2Gs3XzLbTb81Vedr7afrbLSSrbX3nvboosmeaRF8BsD1kg5leQ/8MCD9sqrr4Ci3n644w+ttl/fBvXnsuAc/a8mv7L+XDc8iUt7yJuJfOSu+pBTDS7oi/oP+aH/hvYnc27Vm1/84hc25L777O677rJVV121QV2uvPJKO/zww+2ee+6xrbbaqkFaYyfDhg2zUaNGFZLpdLiVZTvWjislybMK6e5j7ZhGykL67rvvbl27dm1AGyehgbmpgdxnzK6MAw440KZM+coGDx7cZFYjR460u+++21566SX79NNPrW/fvrbpppva9ttv3yTfpEmT7G9/+7v9738v2Pvvv28rLL+8rQL/3Qv9dKdOnRrlpYwbb7xR8saMGWP9+vWzb3/72zYAWGKhhRZqHt/bb1s/lPM731kD8va0Dh06NMpXTHjgwQftrDPPtKOPPtq22267YlKD47q6OrvtttvsmWeeEX751re+ZSussILtv//+1rNnzwa0lSePPfaY3XPvPTbitdetW7eutvLKq9j3v7+FrbPOOpWkDc7/85//GNuuF1980RZacEFbbbXVbKutt7Y111yzAV3lyeOPPy6+l19+ydq3d76tm8FXzGf/Aw6waVOn2nXXXVeMjuPZ1EANnEu9DfsUdi9c19rXscaeaJBfdUSaf/0xSUP8DTdcb7/5zYkCgauvvrrdcfttOPamgRnqCAf33TfETjjhBPsETpUD00jTs1cvO+/cc2299dZTn1eUf9+Q++3444+3SZPKfJm/V89edg741gdfvlFgqSl/yJAh4DuhAV+W1wuOce6559n663+3VNacZ7H+0+un22abbGrvvPOuSnrFFVfYFltskUmpJMUrgjcTkJvlM65Yf57r3kESpZUGtExnKMpvjv5dChhDPpXQQKfzo/4HDRpoQ4cOgy5aZ/jggw+sz7LLWqfOne1tdJ6VHfR9AODbbLONbb755vbQQw81q5K77bab3XrrrbCNkreIr3ReOvDs/BRb+hSNqMD51ltvWW1trRPGNjTwNWjguusG2z77DJgtSU8//bT6yV5LLWnjx41vNK9LLrnEjsON7hdfTp7B/gkM78LN75JLLjkD/x133GGDDhpkE9//wF2mQEF/+etf/yqwXojW4dChQ+0AgDr6eg7Z/1ZaeUX7v3/8X1VASt//8YE/tjFvjyl4p3vqihhM+7//q86XZeT99tvvABD8T7v8ssvt4IMPztEN9gT/+/1oP3vk4UcaxLO36dS5k536pz/Z0ccc0yCNJ19++SUGEfe2O++8U2leLyfjTfxBgwbZRX/+sy0IEF0MkydPtiOPPMqu/stVM7Q/7RdYwI459lg7/fTTbQEcFwP5jjrqKLvqKvBVBNIeC74zzjjD8gBCBUnplLay3nrr4zr3svHjG7eVEkMcNFsD7YXwiATxr74lA0JFAWQzAf8K3AMRvj32bbvk0ktKjkWI6yPCPhjO7BgeffwxO+LII/0kZ4JOTAAeHO+9847tt+++9k+MUi2Pu8Qs/7FHH7MjjzrCMSS4JZa5pIN33n3HfgQHuPuf/7QVlwdfApuPPfooDDXLIz0YUF7Pt8beefc9OQ75VlhheWTn6WnouCT/ovMvBO07WZzTleQjP7CloqCMgNglsNuw/rxzIYCmZh0KepHqElBvTL7iJaO6/kN+6H9G+6OdNS/cfPPNuEn+jYzzV7/+tf34xz9ulPGTTz6xLbfc0ibhRnmnnXe27373u3biiSfqAvz6V03zfvzxxxp95sjVTjvtZGdiBKmxcOGFF9oXk7+0Qw49dAaQTR6WoffSvXEzMdTYIbAcMwtH/fSn9sMf/lBkdEPqjAMGGtFO+4Z5ZKpy7J/RIT7z3/+WI+IoNPA1aYCDN7MThr823Pbcc0/PpYms7r33XvTTR0jUIYccYrvuuqt85Pbbbze2Fc9iNJdPkYcOG9YArD3//PO4EdjHOOWrf//+AnQE4//61780IvryK6/YHnvsYa9gv9hii5WqQhDHm+CPP/oII9HfsZ///Od6Uv3CC8/bqaeeZq8Nf812QRlexsh6t27dSnwTJkxwPrQr31kDfD/LfC+A71SMHINvl13s5ZdfbsBXygAH9H22X/fc80+1B8W04jHpOCL/xBNPWG1trf32t7/VaDtHjamTR4E1jkW5+WSeAwDFMBCDHgTZ3bp3t1/98pcYxf4+nrJPsNtuvQ28N9nlV1xpy2BQQe1ogfGkk35nV199lXT88+N+bttus61NmzYNswFuscsvv9zOPuds6927tx1TAe5POukkgewFAOJ/hjJtu+22NhWj0rdiJP7yyy6zs88+25YC37EVfAXRGq3fc889ENWEoRQZ4niWNFDz+sjXgRMB7dALcQqGRmZx4tjRATTRIjvN93HX+sADD+Ax0bX2wQcT1XORbrXVvm2333mbCxayZJdmthcu3DPPPqfj7nCYU075o63+7dXssccetz/h+KupU5RGw/jzRReV5O+x19723LPPKP9u3brbH085xVZfbXV7DMD9j3/8kx6DkXHb7cB34UUoHuRhugoblWefedblwcj/ePLJthoeRVEe85gCeSzZNpB3Efh4whpO+WqKffThh5gqMtxuuH6wPfjQUFBJGdpdcSVGtPtvIRP0kf0EgEHF/LJ8HPIEG8Zym/THk1J0OijtAMJnon/lBnqx8EJpzZYsI+SH/mswqsQR7aG0tJkGdiIcGf73v/9tCy+8MKZmvVp1tIoZHXjggRqVWnzxxfUoc4kllijzLgLeVxrn/QkA/DXXXmvk5eNo8lYLn3/+udXW1qJN+UAN/koYmaoWfolO66yzzgYQ2EWdTzWaOR3HKSPs6GJEe05rNvKbmQYGD74O0yj2mRlZg3SO6I4YMcI4/eDfAMZTALgYCIAbG6XkNK3hw1+1k076PX4nNcjv2Wef1RPn6dOn21NPPdXgBvewww+zyy+9zL6LUdDHHnsU0xXal3g/++wz+w763rdGjdJoKn03h0EY0b366quNfs48u6OvzuHdd9+1NdZYw7gnuD0ZfXgOAwcOtL9guupKK61oTz75pNqunEZ6gu/3MJhWycd3O2666SYbM+ZtAOA7bOzYsZlNALbaiPYNN9yA6bB72+LfWlw3CpwyUgwE9LffcbvtgGk1d911dymJ5eiFJ/UMBNs77rhjKY0HFwHn/BQDAJyGRkyVR6fz1BnqmaC6sky///3v7Q9/+IN16dLVJmBKbb4BGT16tC233PI2vW6aXQZQfcjBhzSQV+brAr4JJT4S/QO28nqyFU5VIThnWGqppTTFVyexmSMa4DoPykgfosFhHplmtI6B7jjPkSNI2wHYnnvuOTaRIJuByI8BaJsfn+EskwwyOT8pg2zmdeppp9l2O2xvffrU4i54X/sFHc9F25B7h9jwEa8J7D+KO8YMspn/abjD5RyxPrV9dPd83HG/yGx27z332mswFMp/FKPgzyWQTYLTcIe73fY72LJ9wLfvADvul8excCrykCH32YjXwec1NI7MbbzJJjDugwCyH3Iqli3VT8XERhiXK63gj3iagEUkVeoPbgFwT8cJ+D075sbMRIGdDrT6CvOvpn9SikWkIT/0X8X+3LhkKjPb8GbxmmuuUaPLEWs2/NUC50Pz0S/DpZdeqjmJmZcN/icff6JHltV4/4mnRgTZDOwAGgPZTP/LX/4ikE0/bwxkk46PRzt27IBpancIkDMuQmigrWqAfcGsBk4tOPmUkzWqnEF2U9kQdPJdpk6dOhvfkagMa6+9tuYkM54j2MXw36f9Sc/uu+/WAGSThkByM4xyM3CEOQcCyTvu8CkVv8bTtCLIJg3nPas9QtU5NzoHzpW+8867cFpvv/rVrxqAbNKQ75ijfRoHp4sVA8tNWZdccnEC2Umv3GlgrEjtxw888C912HwvpBJkk4JTQ9ihP5cGEnMOfNpGfbP+1eZ++xO2GuONCMF1Dnx6QN1wnjpvKCrDcccdZ4sssqh9/vlnmI57XymZU3emT59mfWv7YkrKQaX4fEC+RRcl3+cN+Jh+JqaT8EbmATyByCBbfI3oJOcZ+1nXQHv2z7S3Gsxz4Ny9C6QzAABAAElEQVTgdoDeGiGEsgUssWG6Nhw5BpXv0jGTcMiXCut9lreI778fhupM1gMGstVWW3s+5MfR7rvvaqeddiokAuKjEA/i5cMVV1wRF/1+50NkDxiIv/gEAsjgp97p1KeffhqMiyWvt3/BIVZKfN4wgW+RHrYl5JGHpazBUP1uGJliI0RjJkCmI624wopeF0lM48+Sow1iGXjMHcoN+U6FUylH2kCtQVNRf8qQXsgK+XVZj6n+zIfCqUv849e4/jWCzWKE/NC/7Af2UmF/ebUfmFKzQt++fTWVg6NSN998Czq/OzS9IzNztMVHVWpsX8wT5aPeHMjLx5GHHXaoRnvvwMjOTjvtnJM1UsNH0LRqzjHlo+jGAh+Nnov3LVifP2HOY1NhmWWWUSd85llnQv45eFx6ZaPkfKnrNTxKzoH5u0/S29xv6YI5PtNxv9xyy9nOmCZTDOSNEBr4OjWgPmIWBXKqE19OzHbNp1WcvsDzauFFPGliv7k8XmDs0qVLNRK9HAeSGUAxQeF/Ma2KU0eqhS853xuBLw/mwPLwyRXDD37wgxzdYM+pGJxWwadgpCXQzcckrJyqkZkZz/fBXn75FZs4cWJpusoGG2yglzyL/v+73/3OOFqvl6JzBoX9//73os44ul4tTJ06TdGcHlIMbDvYqRO4EmvkEetMw/nUDF26dmnwFJFPFxk4Ra6Sh/G8NptssrHmyg/79zDgoN0ZraeSvLTESdXmYJNv440TH0atMx95Obo+CYAfDSNP9WTzV7/6pexBEbGZYxrwZz3yQQ5HszNi3uyBCIgZUwOj6Go7bo9HIKDzuHp7/LH/2MSPPlSEA3MSM5U/3MW+8lLpeJVVV7MF+A1KJWk8EqNp3a1vba29oSW76uFINOwa7F8p8622qoxO0BzFI5joCj6uPiI+WNhLL76sMr/0Eu6aKR//q6y6CvggjycEs8i3e/euie8NxTs9DhHWXmdt8ZKOXHRSzsXKQcXGMh9+M+GQWHrCTQnuE7xaJC7UvwR8knydE1VLBnPEMU8ZtG9c/ypXqj+PCclDPvQW+i/bn4xU1tTszaGYD81Ro/vvv1/vNvCF3/xIkvMAuUIQHyP++eKLZ8jz0EMPsdvxAvR994H3iKMwnWSLUkfcgBcdf1Phggsu0BOzffGuRmOdWpGfL0hfjZd+rr32Gttvv301N7SYno85Es+5lKVAH2umjnbYYYcZgHZjQKWUfxyEBuawBppprg2kbrbZZg3OOTe6qXy2BTit5+PoRgIB4Mg33sCTpI5GvyiGH+K9ixtvvAkvIF5nP/vZz0ptB2nYdgwZcq/Ii9MnfInOeoHgai9XkoGLK+TAp+kE2tzTgVmfxvhWBV7wUC/6PC+c9JUrp/CdEIbGbqA5NaWxwNF1tj8ABA2AK+m5Ktpyy/WzN6AzPqljG1sMXFiB9dhqy62k05zm9TPNA89xlXuuyMKXUke9NaqUxCltxF9MayxQn3fd3ZCPtJW2Qj2X8F9jmUV8izTQXje68kQAOOyFBbnxf2Rab99a/Ft23vnnlQSQfL9997GJT05MWBHAj19+lEsLNdq7eNExh549l9AF5Fxkzi9xQFujuUxvvPUmRWBO1nuS/y5eQnTkWW89l+DyOZSGnwrqKT3hOHRYOsn772NlEGTLFx1FCurysjulSkg+Vzl5400AbURTHgOz/dGPfqSfcDrOn3jiSQFtHCJLykfgSdpx8gYXIOecdu5ZH47mF+tfok58NODK+jP35ui/sv4hP/Q/g/0l/3C7a/6WcyXZEPMRMh/JcvUBTvsgUKXpclm9RbQE54x5Mm0NvMw0dtzY9Gj2Ei2/l6ebXH3V1XpsOSOnxxDg85EuR11OwTsUzQksC1cc+jHmjvPxLR8L5zmRRf5zzjmnPN8UuqlH55hHfIqdax75y7w852PfUvCep3QaB6GBr0sDPuwzZ6TVNQGmixLoG5zLy7nG9M/TMeWTS+2xXagc8d4L70Q9gbngHEXnyiScZrH00kur/eD0DY50n3/++Q1uoJkvGxYuCdxYoLzueHdkEqa15Xnl7yQ8wfc9GgsdFuqgtopP48jX9DJ63jE39waaL3R/iPe4uEQx25aHsDzgRhttpOUBK8vDZRR3xRxuTnXjVJItMdrMedXX4YaEywSutdZaloF+5qXOWaKmpth53WuQVxlbvUd9Akc0pZclMK0GJFrgIcurti+3i66bajQR1zINtHcACOZ2uhY4ILDkD50TwSF0zjFUfwGPSRzZxY4kPE0/P1KU0j77rPw4qTOWwiGI9RFhp+Ga3ZznqQwg4TPMPSIO/wzrc+e8OnXsLOJK+V3RMSfxeEz2uY4/F5/nzflmrJCWycs3DWDohsc1Cjj+/HPIwZ75sGzF+jtgzqUgBw2PRNyl+iOOsQS9HlI6SXBYgxuPSvmV9eedKLkq5busmeg/5If+YTtl+3MrnNUtO8YLzr/ADvzJgZpLzZGfPAoz6KCDqs4zzDI4lePc887TqiWch80RL77nwMAXnrbZdptMOsOeL2wRKHPqCDvxvn37NqDhaDRfCuKjYL64WQxcFuzhhx/WiBFXNSAgqFwOcFm81T9HAhs7WFq5E5ojuUYmoYGZaiD3sTMlnAmB9+G045kHzuXlyhbFwKld1VYm4suPBIx83+l+PNniMnLl4NPGcluS47n0HTu9zp065qiq+04YQf8UQHvKlClKFx+OKv28krlDh4UU9dVXX1UmNTjPfTxHp5sT+CIi9aAAhXI6DJ8GVpu/zffZBl9/vZY15Kj2Ndf8xTEBmDtj+VK+78K2sxgmfzVZWIBPDhoLHaWzevtqSrluX1CfCE3ppWOHDqLJ01Z00sRGTV4T6ZE06xrgw3chPTk1HIDraOuRPKNxSIP0UV2cJNBKqxHMFLNDWj8kbGSaYX7SVO1xmGIyKChTcmzbQz3mNGHOE06nTYfhk4Q/DLFXk8/RKQXQcHF1Qtrp6LDLIZUjlddLBPlZHAg5hypXh0i3Qf294llEyhbCMkOhBSRIpnwWVxUoHPsIduP1z9nNIN+vSpP6T4USSA/5oX+3v2wVs7Y/4MADbMcdMDUMds1l+DhCXVtbq3nYM8uJq5L8EG/WE4jyEfE4rNVL3lKnVCUDvoDJl4I+wvJe5DkIgL4ycLkurnC0CEa2qgXOL+TjUi6zRfkECHMjZL9u7sjX3ChD5Dl/aqBmdpw6qcyf2HBwqHmZcW1nTuPijyPC5OK0kC1ws8u538XAj9Pw5vpfANkE3ZwLvC+mc/G7GBQ3GB894YombxWmOvDGmqHQFReznOG4DvOcGXKfP9N6pHpyfnRTIcufaX4pE45C82aDAxGL9ehhr7/+OhZ26KPVTCrl8GMvehESbSJv+HfZZVe1qxxZ5ij/hhtuWH7alpinT5suXTdZnlToItbhjcJMr2zWScZNlQUuniOzGFQoKmTOHHPmtEAmr4WuBzBs/qw1ryshjIPd9LgeZ8SBWjs6XXiHOX6PyPx45fmYSXdboJnKu0tl7rn5EiU1peX2mA3nhpKkS+cu9iWMkflw2T2aUaX8qVP9Lpfe2qVbV5WxM0bHuQ4vwfBU3AWTp04FJV4HkEbmX039qpRbt67dVE4CZSRLdqn+iFA8ysCyCQhjp8f1yIHZEuqzjATLftSw/tXkMzfdoPAxHoXxv5p8RHqtMwdvdRrqP+S71kP/bn+04dkJHD1eCS/L5M6U00IqVwRoLP/LMe9w6Ior4cWaT0FSo+kmea53JQ87QK7JyxcVOZ/x2muvrSTRR6eef+45rYm7FlY9qBY4MsQpLlyjll95+8EPtsH53TOsRsAXOjl6Tl9LzuxNEU/p5/BD7qm+SzAXnV9hK4bZVGsxqzgODcySBmbXpynMgRjtu3mWzC8r/uMf/yiVk3O0efPNNbR/h+X2zsNUkBx4k8y5zKvDZ27E8nn05xy4vCAXIOAUz0PwlOt+rGzBkL/cmEeqM33lfkoatW0P4M+wIKaT0IW/TC8TKrLKhpiBoakvSzJdgJb9rzp9xjQd9ttvP7wTsp+IuGIIp8n8/e9/11cs+cQtj2xzRRDepLCsf8K0m19gXev8YRqCbK7swhFtrvbBl0EJuhlYP4amRuJzWrFuzJtXNqcpk4rNVxz1RoEWxM3QTEPzzGSm2QRBQw0QgwqEMlo6pvHxquCE+xp5O/eMUorvHeGk3MiJVO6w4a77woukDE3rb5OQeSmVnRvOi1+T4jrbjFtkYX+Ll7K4Vnc1+e9reUGastnCeuu33jtYZMDpGe+9z69UoazEs6DJRZ2IO/Dc4HQFn+oEHo3ik44Zpvp7XV0GI0XLveh4no/IRM6G9a8mv7L+TclnlpRWrf7KO+SnKxH6l+1lU6U6WhD4UQl2IDnwQw3NDVy+S7y0WRj1f/7TOC/nIr4E+traWo1Y98DoUGU4DR0Urf/3WDu2qcDHr5xCwg6eLwXlm4QiD1cWeAQ0o0eNNq45O2bMaBuFF6v44zn3L7zwgj0MQMF5mNXDbCq3eqYRGxpoUgPNBYFNZaIbSRKoc2uKsnoaX5jLT6f4YbkcONeaa2DzvYebMM2rCLJJw5U+rsUSogyPPPJIaWWSfANezVdFjA1vfDn1lP1ffl+Ce/Z7nxfaqEyf9+TLK6BUzifPNHmvKSPQCXlmNbAsfLeFK7Vw4IBT13Lg6k0Me+09wI7H+ycZZDOOgwMX42aec7sZ+BXrHLqpftZEG8Tprv7Urli3rM9i253zzPvPAfB5/bMuc3zsvz4NtKt2Q+dgmIXISJUdaC4UrhiOM2D1WEUgnpZL9zB8sRHL3CDw+M238OKiThxgKxIRXMye6aTi0n4M5aWA6nE3PNIzoEgnBIW/USzLIb34fM4U+ek3b0GeDsgjwb4rva2LeC7tx1DOV6fa+JceWcMyc5mOhUF+qa5OwQhmhk2qfzX5FCb6QrnK+Rbkk4o0Tek/5EvX0qcuyPyt/xb0FyWDY6c3cOAg2XB+kZhr8T6HUeWZBecdCHOv00vILMcpTfByTjhHwfhxHa5oUhm4/j7B825YxpNfjZtZ4IuQHHXjCgfMu1pgx0Qgzh9H2PJx3h999NHV2CIuNPCNaoDv+MztcNONN2KZ3dO01F1jsrhsHrsjTpfgahoMXGOfIJXL2a2MryNWC1yqjk/FJuOJdl6+TnOTkRlXJcmguJKXN798as3+N79r0UfvXOCr1Phke1N8eWQ381Xmnc/1YjTKoW42R6Y9BwOoE66I1FgggM7vjhQBM/XCsOOODVdoyfnwxicvd1pcD3vZZfugLDX+9C0TV+z1ZA5xnLKSQ57rXVzKNKflfeabmU4yfVWllBLjoCUa0Ii2wz9s2UvS+DRaykOmuDUK0MgqseFJESHinMATkxtKZVgzPfJl7JjRY+CkI5SmLNB+PI4vSX3xhb/IyAzXWmttyV9z7bXAISp7G19yem3E6ypTls8P0+Q7O2a4NuZOsTxrrb1miY8LwY8YCT4GlhPp/HKV7uwYh/N1IIdivMrMvXr9SU4tkIL0zlQ+VBQSK+uf57ln+Vldokf9Of2kOfIb038uSsiHHkP/sCVZKA10lgPnYHJ0t8diPdThrrnmmph+NdUO2P+AJh9JUlDm5aNTvlEvXrz/sP/++5deZKosEAF2bW1tZbTO+QU5dkaVX6hj+fbYcw99Ha2SkW/cN7q8FfJqnmbkSZVZp/Pm5dAIc0SHBlqkgdwPt4i5kqkR834IN7x84XjwdYMrOUrnxAXyAOSRv/6YR9urrfmcGUUD/2PIK/7og1TIjHOvix+yyTzc/+9//9Npp46drLa2Vscr4iuS3l/Wz5SP01Myn5irbEoj2TUzKoblpk5+duzPqj4ly9nlPLJOGJ/jmtILaSi13QJlvES9UMtcL7yx8ML/XlBS8cYmH7+o5ZGrc0qfEMj58jMNLFg0dzNV06wS6FsrtGCH1NByUjJ3dckgiLsVnW+weeIINckjP9cRUQITba899sIqH5gHjWP+nYNPJ2uuEOg+nfSpnXce5nqRHHn3Xro3FqHnB21qbM899iw94qD8c/FhivxG7qcff6rlgpJQjGD1Li16T74u3X1ZLhryOWeBDwvmUzblnX/ueRQlgRz54pxODRgosmH9VVdQkpfJVeuPNIKbTFtZfzWSSBSFMmFGpMYJ/nVIfTINm1nWf8iH2kL/RfujJc1quPfee/Hhl6tkf3ysSRDMx6LsPNh488MOjYXMS/vly4lcrYC8HO15Geva81PIsxL42WOuX78nlg0rrqXLPFiu14a/Zn/84x811aPZ+cLRcufXFE+TcFz+mjXdVC6RFhqYcxoot24tz7OURyPmm7/EyjXx82hwpbQ78NlyhiWwJF8eTeXLgXB7jcDyyVC1wCdTXDmEIS+1Rz9em4NqiMtTUkRQ2JyHlYwYNt9i89Ja05mP3WVjfFxKkIEj6U2t3kEatQkoRLW2gU/JuIwol0S8ESP+1QJH1fmyNsO6665bIuGXNBmKo9WlxHRwzz/xNADH66y9TilpB3w1m4F81W5AHsIXq59/7nmqvMFKUL4+eI3dP+R+fLvkZeVR3PDJoZ5MQmC1L1UWaXXMgkWY4xrgghUK2vEqMmh0Grt0t8fBMiWldAJPHaaRb6cHKM2Z4AuGXbt3sQN+fIDnhy0/bb4h3ko+HF+i23CjDe35F573TMBz+KGHo2PHSw/IlHOODkx8lPHgQw/axhtubEfg5YMNN96o9BlYph126BHo1NsLCHfHS5E/xgichxp7cCjWuQQ9+Tgn6nnMw1TxsD308EOtPfl4Q+mRvlOlUAyviOrIZIJmJaV0rz9O8pcacSigrLw8vj5NEE8sKX+eoelLCm1MfvP073Io18vTUP8hH3cxUNH8ov+SIbsDNGvL9Wbzih+7Y5m8vfCSIgM7C366l7rjFyA5naMycOWQgw46WNF77LG7f5IYZ+T9OV4Aoo03xluZF8/ZyXNNbfr/Gfg0cGUgeOdLRJxbOXDQQO0raRo7z6NpjaUzPjdlVWng17ktrJoekaGBuaCBOWFzqedqtHQDBgwwvicxEt+XOOywwywvo5cZ+IGU435xnE4POODAHK0b4W+v/h35IW+MOd2jGDiKmpcE5Mok+WVB0hx0yEEivf6G640rdOQVQrgSGMFynmbiX5ct58q2il3s9Vg6j2tVZz6uZEK+YcOGidi/aFvmq3Yk3ebOoQrBkUceqfaPbRJXNioGfq2SL0aOwnsf/Lw5XxbNgfpkr3MNPmjDgQvNBU+JfAGUI+UPDXtIAxn55Uom88XI2tpaLXfK68DpKznwRkafpUe+a2MlmCKw33rrra1v31roYhrw0GGldcfJSz6u5c3Adjnf7CgiNl+rBmpGjhypPsbvfGF5OKtJH5VhSXTHB8BNRO4rgHjcfvvuZ08+9aQKy9Gn2+64PQFtpCOWNsyXiwb+5Cf2HD4qwXPhUHF4OseL+/ffTOv3tm+/gHNB/qRJH9uPfzKwBKrJUsnfv39/dLyXCWgznZWY9MmM8jJf3pPvMnTYGdiX806lRkZPPfUf2wf1y+GKK66072/Rv0H96ai5nqSj/ITPG8S73CJlyrUQ1YAGGTVH/yE/9F8wIRt40CAb9tDQZFzN23E96r/97W8YqVpcLygWP3rANVfXXGtNjSIvt9zyGEV+vsEHKzIveTgCU8m7FqafDMfKIstjDidvcosv8FQrHTs0Amx+OS2D/2p0P0F7cg1esjrrrLP0Bn81mmLcdzHaRPlcb1s+o0dJ3p4gQu3bSy++iNH7lzSazpe4ioGfLL7lllvUabEjjBAa+Lo0QDDpwK3lErn6B1e2WAofeRuHj7hUC5RD0EdQyKdSXAeaN7x8SThP49hkk02Mo6rFaRKcF0xavqfRoWMH22TjTTTizS9Jcmool+xdBk+Pn8W7HkWgTUyxJVYLemjoMBSn3pbECPLGKf+JEz9EX19vewOwEoQXA/m4yhBHaRk48sxyPYhVhz5MX6neZ5998KXK/yuyVT3eBsD2vvv/hbX6L8Pa/z5gUCTkjf/6668vHbRrt4B973vrG0f/+eEcAm/WmTfwd999t2277bZFVjsEX4O8Eqs4sX1eEettExxTt3x5NN+QnH766fpAWJGRI+QcdeaSxfw0POeA88aHT/mIETpgjW2+pF75BV3ybbvdtuCbpi9p9wffZIy4PzYTvqJsHrutbARb6dWorVTyxHnzNKBJQux7fJIEASMht0M/ZoG+SGd1oPF5JkgVyEQEyVLw1TF4osyUxBchBuNxMO9MF4KRkNzvsPFZd4xAH3/Cr7UUWPsFMLqcMqP8bt0X1l3rIQcfgkdAHSQBuYq3Kz46w7tCLj+24IIA50xgGiohebjbpePQKBnyiiL8jPwJx59gV115FT4Hj9FzrNGdWNHZMhuvTLn+Yi9tKuvvHGIUTbX6M6GOCkTelJXrT3kzl08i8ICJfCG/of2F/mmx1exPZjPTDd+OJ8hmuBgfjCkCZcbx0St9pR1eJnjjjZENQG2JF4bJUeZqvFfAP9lOjMTLhxzhbirwcemZZ56JL6ht2STIZh6k4wgcp7TwhaqZhc5oLzhnkx3iXXfeaXffhT1G6e7EJ4nvxDmP38TID9/IrzbyzTpECA20Vg2U7LcJOyaY5xcMN95kY3118Pbb79DSdQTZnGbJLz8SzBVBNvVB4Mmb7EED8TI0OijScOrYvzGyvCD6WPo9b2CLIJt8LNO9WHHjd7/7rfxuAsDrTVgecOLEiRohPhtfXiwuMUgeBvLxxUP6Pv31HXxFmnz8YmOPRXvoi41ccq85gQNj7EMaC2wz+NL2H/HFWuIKgt1rr7nWOF2O00Z2wZcfqZ9KkM38OJD3D4B9LvAwYuRIYRlOQRmNUX9Om+EqJfwKb2XglBcC6XVx88KbCt5AUC6B/mYYIOSNTyXIZh7ke+rJp3TTQ0D/IK6D87Wz/ltsrgHLanyV8jWoCp00rpVKjjhvrgYwov069Aqro+EJcfKYHTi6cUUzIU0mFg1OFcXE0ji4bFb0Hp0uF0541UBXB0ccNXqUPvXct29fW2YprBCArydqDb4m5NOBR496yz+i0befLY077hotZN20/Ol103H3ONrGjR1ntX37oMFYxvlYRzY6rJLkFuvm9Z4b9ScsUlsX8kP/c8H+uGrIsGFDadQzDXz0+W08hXrn3fcwXWRPdQSNMfHRIztaBnYQfAS52uqr2bvvzJyXjzs5d5uBYJqPOSsDVzHg1K7JWAP/f/97sbTKQCXde++/h8eiE+DPY+3Syy61f959j6ah8fHs3Awxoj03tRt5N6WB6/CC4j77cCrC1xf4JIs+yRFbLl9XCZIbKwmnfXARAn76nKtbcDWMajeulfwEd1xJhL++wAWci92c0FK+5uRdjWb8hPF4qjXKFsdL37W1tTNdpzvnwY9ycaUjBq6oRtDenMAFH/jEgCB75ZVXmumc85xn5uPLmHxRMq9bntNj/81oQFNHiIbrOd+YAFsQ2T+Owk+ElxE0johRmQ6gwJRSAB/nMZO7ekAamIkvMg1HgOvxeMRHgkN+6D/sb3b8b9DAg0qPVKv7YDmWnz6/EU+alsCj11cwIlVtLetMzfVZOTVsNDrR3ugE18Noy223367HtnxDfrHFFsukM+wzL1cdWqr3Unqjni8Z5cD1dbnUFYH/EUccocfCHKVmpzsWgJo/AuuxiPsK8xvVAGVm7PnhBi5dlV/QKiTNscONcRPAR7AsS+WnqeeYkMgoNFBFA1wJZMDXDLSrFCOiQgOhgdnUAD4VROgLBKyX94iECaIJfDOUZhppCIR89JcpSkV0nQalwZEjmEIQrfMEyMkHWp15Mk5whrd6PSAy5Esnof+wv5b4X3KkZu34MhF/zQl8RDuq4kWn5vCRZma8/LIjQTYDR6YvueTiBliaj6o5MsYR7759+1ptba3169dPx/wQzVF4YekUrEJyFaapzIlAkM9H05TLESG8v2JP4ZE6R6ICZM8JDUces6YB9rsRQgOhgdauAQBtIl9Ug8AXO45a81g71o4HmqqBEWnsMZMDgel4NZL4mIhaQJxxyCPxMy/PBKC7DvGIICmnggCy+zEiGO90IV+qSPrTLusw9K9J6mF/TfkfjaV1Bc5v/Ozzz/A4dnHN8+Zcbz6qXmKJJXTO0fLG1qPlS1h8IfI6zIU8HR+XaO4j7qY0RIA9aBA+3JMC/bEzPnaT39zP8bEPDXwtGlDn+LVICiGhgdDAXNRAe8JbvgBImExAXApAekyrw0izpoVkFAhw3A70ziFugXOBbjKDLmFFnDhc5OcnyZEJGcs0vtwQ8kP/YX+z739yqVa24eed+WtJICjmqgScNjInQDbLwK9i8uXIvJ4wXwhl+TgyHyE08LVrwDvKr11sCAwNhAbmrAba8yMzmhsKAM0RZy7jx26fwLm8oJ/ws0AxE/LbqaRhIGB2hI2pIDxEA+EQ3E8IpBQ4D5xD5ljxAwjeR7UpjekhP/QPcwn7a6n/uYvNT1suWzanA9f8jRAamCc0kPvNeaIwUYjQQGigpRrgpASf7kGUjX+BbBwQGvNYqJlpAMh1cnwCZTIxTamJliCbcZwYQn6CZ/6DmCPlGi1HhLLCBrSk1g/RQplMQ4zz+zG3jshDfuhfhhL2V83/NOcLfhQhNBAaaBMa8P63TVQlKhEamK810M7XmSbwhVsT0/KnT7MoCsrxNIFoAm4GvdtI0OM0hNU+DQTwmhmQTEv38TCNcmeQTlrJcf6QL2VJkaH/sL8W+59umeWSsQkNhAbagAbUZbaBekQVQgPzuwYw3Vpjz0kPBMw89NFmjyQq9qMECdPgswiFqbk0HWnALcBIagFu8Tkd89QPAFyD52hFKCvkh/6TedFqwv7kLi3xv7IW6X8RQgOhgdaugfDp1n4Fo/yhAWqAs6URuNW4tA555qCZaYhPWJnxmtNN0EyAzh1+vv6vmJDiIEF3406m3JmTpIDP185GvhoZL6W4TBCFfOqAiqVuQv9hf7QD94tG/S8ryUljGxoIDbRyDYRLt/ILGMUPDSQNYNURQjlO8MDqIvjzfx9lzY+uhPdElzcceUQsEbGCIDSOyJeo8y4zE2CLAts0P9tXm3BoHvJD/2F/9A3+t8D/6FwRQgOhgTajgdz/tpkKRUVCA/OpBjCzE926ADP3GTkL8qjTFzrmuDc68gyMScWRNYcE2OHW20dgwVdsHUBCKv0wZYTrIPMunecYzNY+5If+w/7gDPJDegZDC/3PmWMbGggNtAUN+DzOtlCTqENoYL7WQDsCZoJfQWXCboHmsk4Ekp1A3T/PHVZzCI1rbDOCMFuUmA7CJREQnFDppNRcbMaBUosm8BDHIT/0H/ZHT4APzbb/yaliExoIDYQGQgOhgdDAPKIBfnsGnTx/6OpxrMkfjNCR79Opg2dGicP3eZRbwJopaUSb4Elx6dwROZE2JUiQyw35rofQf9jfbPhf6WEU3TJCaCA00Oo1wN4yQmggNND6NcAvyKgWHJPWqDQBMr+zDqTMQ66KrYCdADJOSJc/QkMqJwdBmrdNsC1usiKOZ+Tij1vuCcQlOeRLI6F/2gYsggYS9jfL/pccS7YUm9BAaKD1a8D7ytZfj6hBaGB+1wBmcbg7c342p41kEMzoepxraocPdQMzZ1rAb36ARkgZfDhsx1nXPMdxnfLBCc8R7V/7E7H0XYTeIT/rNPQf9kdb8JvQWfU/3aTIu2ITGggNtAUNxFOqtnAVow6hAbP2Tz35JPTAzt3HVIWOBZjR6cPT+UEZh4IkwznfYhTgFpEGxMWbeNQ4gCHz8NynkzgU4JaSKMeBlecT8kP/bmmwh2RLYX/N9z84lA0ePFjTb+he4X/UiJqwaH/01DDa39TTtJr+h1fsOvh09uXofwN/BP5Co94K8WfN6yNfB8YFxIE384m9gDDBtVolB8VydJwrSpUU2lZHxjSOfOcVuUs9PfUBDgfVJFJE+SCdiyLkh/7D/mbL/wYdNNCGDh0K/4oQGggNtAUNDB58nQ0YsE9bqErUITQwX2tAy/tRA5wiQgydx1V5G61jAmIGnAtjg5Ijjxyp5nQTJaeR7hribxKmQADu6R7tWTGdmZGoJC3kUxfQSUkj+diV5iqTzkL/YX9V/C/bCd0qQmggNNDqNcC+IEJoIDTQ+jWQvgxJHOczqdtpdT6hPHdzoWv04gTTyfHZp3O+Nn85ltNDOM3EgwMBkjOmBkPl4lGiHxNS8o1IxjOE/NA/LSPsz72BjiFvmgX/kyPFJjQQGmgTGij3jm2iOlGJ0MB8qwFf9Fo9uk8H0Rxr9fKEPQ6DBbDx8mOG1WoAfPK1g2WSiTQfgENzT3Cuf4JyEYDQ8xGMkFxFYRPyqZPQP0yBRqMbO7eZsD84SrP8j7qLEBoIDbQFDeQesy3UJeoQGpifNdCuNAgNkFca3uacawFi7unuBD6uJu40eYFACKgwL8Rdjy8/linSIZnIgJ8ApPLN8J0JSPKdiEK+VAJludJ4SxL6D/trnv+VHCkZUexCA6GB1qwBb/9bcw2i7KGB0AA10M4BMI7QTwvfCVhrsnUaXWUSQXQCPAlzc5SRXTtBN1M8XQeJz6dCpES9XFke1WaekAHGkJ9UF/oP+xNWpje1xP/c92IbGggNtA0NqG9sG1WJWoQG5msN4GVIBI1OY0/gyyFmj9Vos08XYeefkCAZCi0AZ4QQUisfoerysZbvI1tKJShXPi5KwEp8Ib90wxH6h0WE/cFD4ClQxaz5n9hiExoIDbQBDZSf9raBykQVQgPzsQYc0gAsCwKzY+dAcwLShNdpjQtBaL3wiDg2AExj4Ci4A2lCAuWizAQQMBBOOg2bq9UgBf6UP4XpX0Ti5HnID/2H/blvYdtc/yvc+4o3NqGB0EDr1kD4dOu+flH60EDWgDBwXi1E4FngFxucFEExR64dJqd9mm9NgCxipjIDjk4rBtwAzUz3KSlMYhozJgwXqUZyQ35Zi37zEfqXmdAC1dtwH/bXlP/F6BcalAihgTakgfwl5jZUpahKaGC+1EDhZchy/R0M8zwjZWHjRECgTPBM5OOA2SOQnOIEGwmQeIAdg3YJYBfjqwGEkJ90F/ov2VDZTlw3YX/QQ8H/YvTL25nYhgbaigbq2f5HCA2EBlq9BnxWh48v+5QFgGP/NDoxTpoOQmDNqgpB+0k+1F59Psfb8sojoE3zbPM8kwyURI/2Q8nMSriJuUNWAuchX1qCRkL/tCr+h/017X+6yQVJhNBAaKBtaCD3g22jNlGL0MD8q4F2BDFlSJ0RjQObOgBfJnPqh4BOvsHWCTZpmkjOgV+XdErwJabS6LSSuEFmzI+HzI8CsHFImQV5LiE/9E/zCPtzfygNcNF36GsV/sfYCKGB0EDb0ID6zrZRlahFaGC+1gAXDFHQTqAXp+jAeZjniHFGiJJSOoEPobHVE6ejOdA5wTWz8vj6NEEbZwqexDPSe4ZgTwgi7TJxyKcWQ//pMUjY38z9r+RI8rbYhAZCA61dA7n/be31iPKHBuZ3DWhE2/GtoDD6a0Hokl44nYMpAtQ5NsXlFPLXERR5Rg6kib4RfOvAXRGMYxqxtmdcolF6yM9qdHWE/sP+6DO8QZVFYFPF//ILxZkk9qGB0EBoIDQQGggNfPMa0KRq9NvoxBMkBvr1Y+/WM36uw6nPM0GqRhpJJUbVwleH4KHHeW4JgDulJGiSCLPGZyC5Ywj5of+wvznlf+5TsQ0NhAZCA6GB0EBo4JvXgK90jT7en9ID7gj9EiwLRqOEPr+D4FpTPgiXiQk074NxqRKZHnR80THD6Boi9ASpScs3qfW19jpAbjEjHfEhn3oM/Yf9uR3Mqv/VlxyR/K0r3H/f/TZs2DCbNm1aqeDvvfeeXXbZZXbTTTeV4uIgNDA/aYADUBFCA6GB1q+B9gk1W30dxqsJmtOIdjuMODuKxhuL7MQJknFI+M3Rx88++9T+cs01YKi3nj2XsAF7DXBtkE1HzAwBu/HjJtjNt9xiw4e/auPGjbPavn1tlZVWsr0GDLBFF1kERMizivxxY8fbreB79dXhNm7CeKvtU2urrAy+vcG3KPmUPTYsUZIH4WMh45ZbbpW88eMhr7afrQR5A/be2xYmH2hUD9wRZLBP+Z9++qndffdd9vIrr9prw1+xrl262fIrLGfbbbu9rbPuOg3qnz8nL6kV8ivrr5uV1GqypI3JnxX9h/yClkP/6UZVLtGqNhMnTrQ99tzDOnbsaKNHj7b27dEkIXTu3NlOOukkefVOO+1kCy200CzV64svvrB77723Cg98ni6Y/FEDCDiu3FdhtG233VblqpYWcaGBOa2B1KPNdrYHHHCATZkyxQYPHtxkXiNHjrR77rnHXnjhBfWF/fr1s0033dS23377JvkmTZpkf//738X3wQcf2HLLLWerrrqq7bXXXtapU6dGednf8kb6xRdftLffftv69u1ra6yxhu25557WoUOHZvGNGTPG+i3Xz9b4zsz5ihk+8MADdtZZZ9sxxxwtvy6mFY/r6urstttus2eefdaGv/qqfetb37IVVljB9t9/f+CenkXSGY4fe+wx6XPEiNetW7eutvLKK9v3v/99W2eddWagLUY8/vjjGHgYai+99LItuOCCttpqq9nWW29ta665ZpFshmPn+zf4XpwlvgcffNCeeuope/7551HObsJKe6JN7gO8FWHOaKBm5MjXM+xUZ+MomSCm6OY858g2kHaKv/GGG+zEE08UBl991dXt9jtuR1riQ8flA2w1dt99Q+yEE463Tz+ZJM48iA1iGep5555r662/Pji9s8vyhwy53/ngjB5YHuYPvl497bxzzrX111vfgI/1YRwvVr0NGXKfnXA85MH5SyGx9urZy84971z77nrrpVp4fqzTs889C6c7BjcF40tsxYPttt3OTj3tVOvatauipR2wV8qXfgr1Fx1vXqA6LlrO+rOPV3yqD88q658pvAwsZ0P9h3yoJPRfsr9BBw2yoUOHurm0ou0xRx9tF1x4oR188MF2PPy2GC655BJ0hmfZpZdeattss42DY/iQ+w4o6Ui4We7erbv16NGjyCrQXltb63FkAKl26bgBcTpxAF4thXE19uabbwgMNEYR8aGBOamBwdddZwP22We2snz66afRv65nS/Za0saPr963UcDFF19sv/zlcfbFF1/OII/A8K677rIll1xyhrQ77rzTBg0caATYlaFv37527bXXCqxXprGtOvDAA41AOYfsfwSk//jHP6oCUvLxxmEsgDlDEU80xZdl5D1vHnhTcTmemh18yCE5usGeZfvRj35kDz/8MOIbNhy8gTjt1FPtaGCGysCb/H1w3e644w5PKrQ/vMtnW3fRRRcJDBd5J0+ebEceeaRdffXVxWgdL7DAAnbsscfa6aefbjwuhubwnXHGGdbu/9s7DwCvauSPZ2kqRSyIBcuuAhaKYhdRkVNRBM+uiAVQ7Ojp2c5TT1HPBvbeO/beQcC/omJXxAYIKKiIWCgqKLv/72fy8tu3b3+/ZZdydywZ2PfykkzmZX7Jy2QymdRBhiiHH3/80fXr18899thjFhn4zwMTndNPP92dd9555QgxtMAckKA9DhnPGqyZfCSytKKsaZEWZDxMPrAEmfz1ZNer10G5jtu2rQTtJ56wrJIpE0TnXnttpDrTYeUvl2pwvoNo0FSZzz3znGvZupU3ORH9kSNfc4epE+aadsDTnbEVAjSK5557VrPL1nr2RF977TXR600GcijWMttzEmnxzz/r6ZnAq3LGaOa49z77uNLSP5PyPUpC1tdHRXXvvru74sqrrHQmHaTnEo2envyrWEpgCMv6vC8IZWKg+WohrLwWrzv8qC7/Pc1IH5Z6Xnim29UHLWVp4v8RR/SrtqD9yCOPuH+e9U/rNmeccYbr06eP51ee688//+x23mVnN1MT5b/u+Ve3xRZbuLPOOkttt8xVC3dn4WrSu8cef3WXXnpJBQpffvml23CjDd0fc+b6nyrpEyETvy8/p3U0BcoHglyKZT3uuOPctddea+FwmThxoispKXGdO3d2/fv3t/cNaVXdqRfa7TRce921bsTwEY4y11lnnXRSDEcOLDYOoIHuqVXfBYXPPvvMtLW029VXX0Pj9ZS8RbHy061bN+tf/fod6fbRWEg/YEx/+OFH3PQff3Dbd9reDZeWNS2soQHddtttJZz/av0MQRBhHG3xfffd58aMGeOaN2+uFelPK0yEEfjbtG3jfv7pF9d+43bu7yf/3W244YamEb/wwgutn6211lqGj4Y1wLfffmua8p9/Fl574f3d4/EeF110kZswYYID75NPtBqdKMQCbrhTLxSEF118kQ26N90kQVuCbxbI17FjR/fmm29qBb7YnX3W2a5du3YOrfGjWmV/9dVX7TuBsI4SIA29evVyg+8f7BpLi42wutNOO5mshECLBn/unDluwPnn23c0jXf6Gae7Sy+51NWVQHyy6sYK2h9//OEee/wxTQhust/n8suvMIVgGu+0004zhUSdunWMl/yWrGBA76abbrKsV1xRGY/fjvo0W3lljQdnWX2nTZvm7pSlAhYIfAWvl5Lj6KOPTpOL4QXgQNH4cePVpBjO9GfSr4LisCJNICzFTZ/CDLg//DDNvfTSUHfvPXe7adM1g0WAVOJGWtrIzd58SdYo9t9vP/fee+8rT5FrsnwTNa4Brm1bGutId4Ea2ty5f1jabrvt6q6+5uoc/f0P2F9471kajfWCCy5Qx2zr8QZc4P740w/Mu0nLfI20YWFwZMkJPGD55Zc3eu2gN/J1d/4F0Jtrabt1283wqCj/mAy8KiEd4Lnfkf3c1ltv7d58/U33yOOPuB+n/2hpXG655RbXZccdE46RW9wTs9KDM9z0ArSFrMzAY+XUP6ByWiH+eyq8G7SCDTwlRPqR/779oZmorkab9rqj2vArr7ziVmi6gvvk00/yaqtopWiP7r77brfKKqtoSfJju++4Y2f3irQ8KzRdUYPamIK4THrvuuuuHC6DbgAGkO7du7shLw1xRxxxuOuoj34WvvvuO9Nyd+y4rTQvR9ABrNuE/hbMPRikt9KqWBoQLkpKStxhWuK9U+8wP5ijwY93bdmypevSpUuF7Icd1ls8uMsG8uLi4gpp8SFyYHFxAGGt50E1E7Tvu+9eN3bsOBOg+B6w74FRYrXVV8spxrLv20ZmHp9IGD733HPNXCud/u6777otWTkunefQjm+++ea55GOPPdbdKEGMFWnMJNKa1lmzZmmsb2srS2hTEQYD8K269dZbzZRi1KhRNlaHtKlTp0r4bu++n/q9O/vss92AAQNCkmPV7rZbb5NpQ2uZOrxdAY89HcgW06Z9784555wKmlgm9Ai4aKjRzH89+Ws//KpkBNF8gvaDWrHvKRPVlZutbII737807L333jIpeUJmNd1kbvpMLmmqvlmrofnXt+rJJ56UgmGPXBoBFAL9T+jvGjdsZKvuQW7AbA6Tm3nz5tnelKMyWnZ+G7TLjRo1st8R+QbI4en3ueH6GyUUH2Xx4XKuzO8GDDjfNWzU0DFRCRMXJgv77ruvzGMbu7fefssmOgGH+4laabzm6mvccg2Xc7/88kvOpC+dJ4arz4E6dshMooZFzs7Z/iqML2w66aRJE02ThfkEM6NpLBMhJyL4KZ8/xx0EIvWn++vSZr/33gf2JmyixOyi++49XPHa62hZpac79dTTfZryP//i8w47Jsp6/fXXcsIyZV2smSrLPMXSJPXqeZA7VR02kHlBM/EvvvjChNyREqZNyFYZAMs63XfvLg3U2q5nrwOFd6piqY1zhve56Cn8sWbdr0qDbqDE/iccbx8FbNNOO+NUd+nF0sIlZXLjY+PpI+YaE4y+ZQovprux1BDhkSYrFiFdNihcVFmC1eE/7wZt3t4LF3qARqQPayL/MxpYY0oVF9rQHXfcaVqfn3/52TS++bKjrUHIpvFhvoGgnMPVB/rnn39yJ5xwQj5U9+yzz0pwFa7ghhs9bjrj0UcdrUn7S2rBZa5zlx012e1d6Q/NGtCqVUufJoGXfGjguTMJ4J4VssvpqL9IO1QdQDA4SoMUAkAWasjeLHp8jhxYMA74QaRGuBdLqEUgGzpkiITseYYbzq3IVxB7pj7R3qmGEvxOOeWUSlkwG2m9fiuLf//99yukY9fLmL2v+mlayCYTGuUwYf14zMc5PGye0ZTzUUH4DgJjyIDd84knnGiP2EYHAO8pCa7gnX76GZXw+DZhb823ihW7NLz/wfvujH+c4a6//oacyYllTGfKhIcOfVkxZWbKkRWyyYr9Oelo09Pw9jvv2CMCLIqELATBe9bsX23iHtKffPIpN0/CcklJiRQPUipk4NRTT7X9bLOFx3czwFMy3SmVcF6ifWimjAgJyf00adSbrtjUzf51tpnVhuQHHnjAgoccekglIZsEJjnUj9UKViQiLBwHsFbwwh89Rv+9ltSLcISJCR4NyMKzRRME9Ii1Cd5ENAorhGFEkXtpCI0BUbLIrSjN18477eKfoaGCmE3lOqdQhw5Rw1YaGnPwgaYrruR20rK19WYJlqX68Oy7b3mnRrM1RMtUUHnppRc9lspeUXgsd5OAoYYQ3b57Q8+fz0P+oS9DxznZqPv6Q1Xc6NXrYEJWJvXvtP12buUVmymnfw1rdIzdyehLWf6vYv0RIPx/T593sAjdjJ/CJ8b+rACFSNMlTd8XQoKvvz1H+pH/2fan9lETKCkpdgMHDjQUNhynV6SI/Omnn8x+j/BBPXvZcjJhoKSkxJYqCTOo+YGTJw9oQLyWqMxsFffZ2wvMIZ2P+B1anmSjD4DQ3azZKq7ZKs1M+82GIzRJW2ovBfDAAw/6eKWTlv5jqbsw8O2qGV+ChqlimfTSCJED/1kO+PG3ZjSvveZa07A+Jc0tG/svufRSGzL8aFO5rI8++sjGP1Zy0Jbmgz/mem9AWaEYDSxj3GwJY/ngt99+U3SRa23mnT4H5iQ/aDWcHoVpRD7Ytas3xWAFLdh+Yw5iq+gimDXVCGVYvMZ/8gY80jpu09E989Qz0mY/5eDL00897Tp02CSg5b1/+NEHVE0mKu3zprMiBzRuXG7awrPxRHdWz9FOZwHBFWgkDXOLFi1yyawuAmx6zMlFuVTyN3KdtttOMWVuxIgRuRTCvOdOO/0lLx6byrfrJDxleuWVcjw2nwKsbOYDvrGNEvMbVgcjLBwH6nHQRdCymqKVXy3RZNsvqPTGjRu5Hj16+EfSBSPfGOl+kkmFZdeVAQpf2thwIwOMGfOJz6hC27TZSI2AruWR8fTBjBd7xy9lV4UQ+fGY0fYezH5NSFXutlrSqlunboInfKGz9IH3kfETxlv+MaM/Vqctk6eQhJ7CbWT3WaduPSu3KJkANFk+oadlJMoZLTwADyUeylzzlVeVLdnKSvaafPJBv5SdjAmsvtpqNrNAS8DHK/COSqfrb8bnKiDQN6JJGdSfOsKn6vA/IVJehF4n0o/8T7c/Jok1BZYnseMbIg0Jds58dMNgevLJJ9sS5RprrKHlzmsqFY3d3hNaOn1RE9zj+x9v2quAy7LjN1qmZCDJ2k6zsQhTsOLiYtOGY4uITSEDWlrIJYy94OXaLM33g4m59Rn1qDTg3aA6wOCLNwWAsrMCOB4QRMDsQ7GNJQ+aLLwEhI6XxbHC4iVyYDFxwMaWGpa9ww47VMAIm4QLtV2E3dIqJqMIgOPHjzOvQPTTNKCdfeihh9x999/n+F4EswTyTJ48WRrUF9TZyipodrGjpp+ttPJKbjXG0jzQtl3bXCxCHkIf5h/AyrInzrcpkzRMVUJfDXjEk3937a9KA5sRq4K3Rr1VMBntOps8+RLtt9++FfJhxsakZdz48e722293WRMQTE+p/87au5L2rDJhgpdLfB0qFJl7wK4d0xfqFmDCBIX1IpjbFAK8lmTx+O06derkNt1007xomJmwyge0bt06b54YWX0O1EM41O+eAMIfzYchPDTZMreKtE2YjADEI3b20q7at6a/Zc/mU1uFIPoEofBb2SoBfCyamxscMIlIhEzlpgPQgaCPbRYlTP2eu6fjbTopmHJ9HKWsuvqqbrw8AID3vfKXyac3tlE8A9Djw+KF4ISuCmDndRDsp02byqu4v6rBddxmG8u/nFyMWfWVFyzKGzbsZWn3fqRYi9how42S1/Hlci0V/VCrUP989K2MVP2N19Xgf7b+KMf9G3qeRPqR/2rA1rxqesFUop02FrGEzOZGPH2Y2YcGEoD0FVdc0cLZyy233uLaa4MQbjgDLuYm2DoDN998cyVcPu6YfOC6z0y99N5sssQeMgtjZRaGoM0mpKxHkmze+T2jsf/nmWeqK6nz8G0AwQcroL7+xutm30r6Dp07J4K2z5LeCFYBKT5EDiwWDixYn877Kn5gy5uUjmTcQsjC5hkTBTYNNmjQwL4LaUEaHMwn3nzjDXftddebhxBsttdcc037fjCBny1B7corrqzglu47G+edTWLTdNNh6K3QtKn7WStjvAvAfg0G5OYZW+lKeHIXzH6ygJdOz4aryRJDYyLOKh8r2oMGDXK4xGMzYT7Tufvvv9/ttdde7jjxA/MaNkPy/vfde597V97NEG6v1t6yNFj9FJHPTCXkw2sa36V03aZ+J/5IPkJGKwTeDWGR++5bL5OR70x9C6uC8H7Y9jNxiLBwHKhHV0ZIxOTDwrog19oo5CXVIOdZutcqYbvgs9j4bvn0LFyER9Bnz/SzIcpcbrmGulqyDoSEgGV0jWQXFmD2rNlCl3/uGQGvyC3XaDkl6+1UIGVSFvQbN0yWaxQ5U3jYlYfZF+U1lOud5NW9/JHgN5RmPkwsZs4UPc0YWujDsOaaLOFQf95N/yEmiu9/+J5syU/LEWcGvsdef1WKMgi5LNEiev4JxaqViMC8LNmSO0USTNcf+r5ulmLpvHegHyqRrb+2QypTpB/5bw1VzSzXaNTCagbs0r9KnnR69+5jm3CwK8TdFX2RTYqFlnehAu7lGkj79u1jNtzspcAMhLc6XHaGWQ0YOAiraIOAsHEZm8x/nMGHX1T1/UDDRi/680+/PMvGHZZIKRivPUW4KrLe4sybydVX4wkoP9hkVkkHyoc+A1x4DrnRTqGNm67VOSbtO3be0bH7nz620kp+ghFwCmkFQ1nxHjmwKDngx4GFKzG03dwYNZ/iMG3wJg1hxHKmZMvnmQif91dLMzxW/rdffPFFcz9H8QET7xvHHHNMBYq/mzkJMgFje2FYZlmlS9BmkzKACztgmeWWtXuhy7LLSFmmxIBXKB/xNjZXlSGVxqZMBGwPRSZ84g0kn2CMZyZsoFldQKvNXwBMOVBm8O1Mw++/+3qSXgjQgCMpzJGXpgC/GV/KbMUhxGXvnFHA9/K3OZjyzB8eePAB8zFOzssuvSyvScr8S4k50hyoR6NkUCsN5hKKoFPygwb5mTyA3e3iB0LLZCnkBrwYTmieXOUZgpI8Cjjk0DURxj0Vnz5Xgyrp5XZNykmxAV9BK0cXb9qhu9Lm2WBc5v6c5+3IlE2CKjQIGSkfIDPCqX/yeCJA3bP1Z3MBneNydaw/ktPqGtRvYK53lpfpCm9gH7BQmJUKwfL656Pvc/BuUOQ989OvFv+pY6Sf/JowwnMXjhqEW3KnsfgcutZG/od6JhypyQ0NM8Isy4uYiCF8FhcXmzZ5fuX06dNbNtqPOzblsBwJ7jrCDStg88MnvWPHbeS2q00uK30LoRY/r3gFKCkpseXnEJ/LqAAHXOQD65/iSZneB6AM/rLAhqzxWubl/bHxZDLddZeuFbIFAdv32gpJ8SFyYLFxIIy/C0OA/qhuUG2hEvvggw8+2Prf53IP+I68juC2jxUh+khaUNls6QAAQABJREFUq41pF98OzMfq1a/ntt5qa/tufK6VqHe1KRCTktfljeTlYcNyfa98fJ9frfzgFvL7Oz2Q2lQB9Hnlod6LEjgspm+fvu67qd+5UdJSj9fkAhNWlAZ4O0vD/fIWc8wxR5vJ6VpS5G0uwZv3x1UgKwW4DcRFatpH9bxEfgnfmnR5IRzqHnhCvIVVZ/vehYwF7qXzquYJduV4N8FLDPz7uxQQtIUIC88BCdp+UEP44Ef2P1jyk4Y2TY/X9BoxkkV6fi4vJJOBNLTBwrEf3OdtpF23v/7qZ1Bz/pgj9DryTuJtuHltutGcuXPAsrKayGYb+hj9//rbr2RRumZukMjQJx58Es1gX+/WSKc4/gY95cdPpYF/FR8W/bCBgQjwKMOMDkQ31B/bMvxzBm0beZs1W8ldJ9c5m27aQcWX1x+tl4nW8EaVT9cfPAjktBJ56k+WLP2a8D/Sj/zPtT8a/kIAZh7Y4uHzGsCWMD2oVlU0wvDw4SOEKztnvcatwi3kxzZdDm2dfwcccGBef8F4FKJsNNH/lhehmoANWHRwOmUB4Ij3gTod7rrrr8u5LatqwPLfvAKFxejIgUXNgSrabnVJ0Z59NyjcD9Jlof3klMcA2Ghj2sWKEpuYr7zyypBkq0lvvvmGnVyI+zzskwPgn3k/ufedIHti7JSDp4xglzw/jXNIDxumMSdhQJ2b0uYGWun7nDlovssWuTs6BM4gdPKNZE/LPffca5u9u3TpYnbkvAd26ZwxAuDbG08u4bRbVgvwHoJGGw05E/ttZLYKNGiwjN2DC2J7yFx+V934FetrUhPA+CIhI/ArxKfvPq3I1W9QPx1dIYyJS9++fc13eYNlGrhL5G2NA/wiLBoOmHs/hEG6Ixuq/Ea98sLppN5LBnmSTuu7Lik+o22etJzSIHmzEtsYlfTtH6Zpl7GEWeRZSiEHSdN/mK4SfBnLy8829JvKNisAO4etVP+COfrTf5iWZCmzU+EQxJsK30B5oWeI1EsFQAv6Fm+leD/bpKDjDvV/5tln3B499qggZO+sXcBPP/OcbNC07Kx/vI/xSles1Smfi09RWUn989HP1j9Lvyb8510i/cj/iu1PTWIBAW8As2bPUquiXTnTvlS3KMOd5QV0OhOam+oAwjD/8H6CJr3HHvrjnvyFZedh0oiFtO7dy9Mxcwl5vYeDDFVflUykf8SWnE2cB/Y8sHx5W/l9H62IYsJ3FWVVzB2fIgf+9zhgE88FeC3MH67QISl8FugzAbApHiUhG9e+eB5KC9nkQWuLZyGADdDl3jZkvqm42bNnW1q+C+8a8ocJu92FOCN8Z/Igejyv3At4ebJZVJhQLwhfUECwd6XleuuaRjlMIigYrT+AqRr7VoKQTRxmIWzCxLYb4KCgADicgDFB0RHi03d4hriRVoCgoETYSZvOpnEIe16XuSYZDymk8d3kPfm9xuhMBDy0vPeuPyWb9AiLhgMoma3hmxCpMAOfn0gTAhAi7UYwAYsJD8qv5yQt+OFu1aqVxZHTdgybREAmP7iSfyI7kAFlWr/1+jbItQQvKd7vNK5Mf8KESR5P11by8cm7Gz2LLXNfTvzSa5IhZ3T93XY8G33tpJXLIciE+t922+3upL+dJJtv2YgrAc36ZRIArpe2axXterb6UZ5B8oLKGMw/LF1pof4I7xaXoh8KMc6qrDT9BeN/pB/5T/9QO8i1Td9Ca3Ll447vVuyfm6/a3BomGpf0qk6h8vjAG65ewG+6KTNtTdbnbj58JtVt27YzV1gcvDBRO+jZUW9h3afq0Ap24ZOPNOK/mkQe5U3yEcdf3gGTPuY/ZjnyLLWiHWezEt8A8wKg1PJvWGVGWtl5ysoVGgORA4uBA5VbYs2JZNt/tgS8hqB5raq/du3a1YausWPH5rx/ICTyfozXHH2eD9gESN9Fo4pGHFh77bUND/dyQZi2hNSF/hw0u+QH7C6C32jTdiE8vgmmvdXAGvBSxVYIhu9FPv4wiYAnae19BWQ9oEneUZpsAPv0AGwkZ2BHAZAP2KPCtwdI49mJs6rf559/ng/N4ljhA9J1W1ue2/jEVYUX0rJ24Xz3OfTvEp3Yi/DOYUCv6UwRvJREWLQckOWC787JcG2NRMZF6lgM3960wUjqIYjeGtaVz+OBgDmUt4u2TCZsdkjcxiBwTvrqazuQhryUyf012W7l/G+qqE06oDEucx1knmE9Ubk4yWmcDrIxSOhzzPpvcr6eFOQ27bCZva7RSwbVr7+a5MaCBzHFUTeOg5+dmLJQ3iaiYzVQPe699x51rIuNDMTXXKOF+drca889zbTDEhL6hCkRAc+HVX8Fs/W3mqboJy+TvLZKsPIozJdTU/5H+pH/6faXNCxrkzW9sBkQ4RXXWe/ItrLDJh3MzAr7y6qWJKFz0kngTpTf62aOU+SwZWQT46GHzh+XgXj06I/0N9rhz5d7OnzccceaZ4N0/EeWp2JecAttIgrfLN71s88+N80NRzCzZIvnACbUQBh4fauyqNyFbgx/Q55cQgxEDixGDli7W8jyfZstXBKrRXigwFNGIbAykiKyPp7rmPvd/JgIsb7/FeU21K2//vqWGRtgVsLyAf0ZWFYbIouLiy0c8Jgozw8P72EBz5DzXYoK84T3hicn62j4qjTMgbdZb0SUnOVT+hXCdySNF+rH960QBPek6YnN+utvYEqW0fI5Xgg++siXuaE8pgXgHVgRfOWVEW6zTTez7y+mI/kmHgEn3hecA7Li8A0OxmM2wnNy0w+YmFagLtP/8CPgTo9MCSayrARSpG1Dl+BZ5Dh+3ZYqwNMmxIGDBuZ2Ds+UqxzbLOULMJdAXbvuYvT3329/1zgxA4HsZcKznbUK0+j9Jish6nnNFi2c4enxAPmz9MsoMqjQqwwceJmnp/CsGb+4K67EPaGQBODhFB/yP8h8ZeBAdhMj6sq/p/xo33DTjW5lHY7BKUyzJNSz9PLrrF9tmYXZNPUvwseeFSc8BbP1t0TSRd9bEnvaioHDRgt6PAE15X+kH/mfbn+0qQUBNFP+NMQyd/1111lfxG0fS54ffzzGnfOvcwoWy1LyrcoLgIu3gttuu02DDLijk9PFKqOzyQqhPP2H9pxn7u+8+46FBw263A04f0CFfEwE3tXSpuWzsC8naHsqUUvYgj/vDptsbO62sJMcqoOu0v54+bbRE/0ptxVLsSIWjL0VC4pPkQM14ADj36IA+zb4YaZScUFo49CpQpNqO8xK74KHDdO8qhROjKTIL774vMIJh2kC2HfP+GWG8pVZftLwy9+hg5RpAlx35oMQ36XLjjlvGmk8M2XJgxjwdtyxSw4vTzYfBW8L8ISVuRXkJpAxGY1/PsDkgtM3GefxMhIAvvC7pbXVIS3cn0PrLSBvAIReXmfIS0N0pkhloXn48OG5Uyi7dds9oNkR8DwMlStGDvjJAngf6mRMYLfdds0lc+Lv/736f2byM0T1yGq7cxljYJFwQDJg0pv1K5uArYYTtLFFycE1QcD2DTPR5koTm2Dqzj8/UFEcDYaliN59ettLkm/Yy8PdtvKhe6y0VNvIRunDDz8IylyzkaxXv77Rb9KksesjbRiF0EGHvTxMJxsJTz4pt+3U0Q6dCJSPVlz9esLTv8ZNlrfjmI0g9DRTh94xotdxW+F9wCzZCnXg1avPQTjO3S7BYJZcBJJE/X/8cbrrITvQjeUAfhP9bdx+Y903NofwOIXfVY3VtMlJfpDy1d8K9/MRS4c7xi/hsQ881GHB+Z/8XpF+5L9vWdbkanLB32y/fv2E4k9q3d+OFdYAIA3HKaeeYq10kCahI7X6lAWObscNIMBhMmHnPRsXw1HOgzSQ5sPtI83J5ptv7rbQH/fNN9/Cbbb5Ztqdv7kNPlvomfCXOijjj7l/lOdTHIPa5srLIOXDvgyOYq8EzIAT+GH6dIfLMASKS3VaXtp2kiycZum/fwGj8j33HaycFGMiBxY5B5IRY6HLtXHHLpWL6tmzp5RLK+mAlXHmKSO71+GZZ56xDXxgpl38cVBUW/m3RzPNpkdWtdKAVrrv4YdbVDe5/eTQmQD+1FjnHpQLPDTpwYsG5iKYayCg6+NT6bCXcPjL4AcGu/sHl+Ph5AC8V2ULDoR8gV6+O5+GZDE5X7I77vjj7PuH/35W0dPA3jFcF06UictKOmMgHKtOHmyzAezTr9OmR/gTgPdkNW34iFfsVNywuZJ0DrBZp3gdWw089phj7bCwgIfJ6wn9+xtP+L7y/QvASZLFxcVursrGb/c333wTkmwC1F94/PTgpScEF154odX/nHPOqXTWQa6AGFhkHCgaO26s5EaJgWp4mECYCKgHa4QmTHsBml+LH8wPNqU6sKaXG/W2DqxRZJs27dwTTz3uX8oEdxUmmClNcp++h+dmYsSRQjkBdui8g7vxhhtdAwnagf4vM2e5w/v2cR9IGK+Q2ZB8CZ07d5bf3xu8oM0IWafM4VQeFzwffCA8QZYWcZ1F7wbRQ0Anw2G9D3MjZVZC/cOcI4eZp4AWLdbUh2B4UnqSM6FP+b4QEElDnPZhq4cFjYu+Xnq2HAvAf0850oeltllXv79Bqv0tTfw/ot/h8vxBu6w+HHrooeZhAE0VJyemB0P81mIGgn0fxwqzbBnMLKBwyCGHuHvvu1cHSDQ3TUran2zA/UK46+bBZfMUdpBJT7AX5ruCBolB9pFHHtWR73vbwTG4w+IUyuukMWegOOSQQ5O+qp5Fp00At3wI/AEY+NctKXGHyvwFF1y8E4fyhCOSyXeXtDofa6mWjVNs2GJyzopZdrc9QjyH8LBnpERlRogc+E9wYLCEyZ49vQeLBaX3hg6UYaMbqzdpISxdHieh0p8ReNEcb7XVVtYn6PPBjGM7Hf+NqVXwAgI+34Ytt9xS4+5MTWIbOPKsvdba5i6TCfY8ucblnArsv9PfFvo5J66G7xV9d/vtt7dVJlx6Mqr11CblrDmLx9tJeMPs9TlMZfvtwHvZ/fjTdIvj4KssniVkLtids4kRr0ZB8E9nQbsPH+ABJh5bb721eWVi38hI2TEja9SpW8c98/Qzlc4aQNDHixNfJ2zYUQogcOPZY5K+S3z3Lr74Ynf66aenSVr9Obfgzz/niWaRndTLxAcPLgAeW0aNGlXJpSmrc7t1A+9PrcjVyeG9ITxo4UmGDerBFSrfVL+fRqv7+n0wcwnfX+ikwzyjnQ+mLTxHqDkHzL0faHjf8AxOBGu1EtNSh9FQzzQcr49FhBHYRXcEcjORUFRq8GvSpKl74MEHtWv5cg1UDHZy8weeSmJwO+GE4zVLll2Q/qXp40HkQTlNHzToCne3Bjjc2gRgdy6nMfXu08fex8pL6DdtvLzHE72777o7Z6pCxsZyN9hfeH3BU2P0L1/mxo8d58sJdTFCeqCyFeLCG6CP9nbZloH6Fqg/AiAyeGAJxYFrhTNDEQH/XHP+MymJ9MWEyH/xQP3P2gNtonrAcvA92psA4OYuPRASx8cZMxAGT/xMo6W+4YYbSDKfuvfee6+FcVWVFrKJBBdzlIAbXFoZgi5pgTjEMUhcddVVtmt/L7kT48AHtDDTpYnG7IPTKTm6HVoMYv5QjYCd/55mCe+UFrLB+EF+gPF4Qo+so8EGm3FOuysEacG+UJ4YHzmwqDjA6LBIYD7FoNVGkGKCiVD3+ONSmoGjDkQ/Q6vLyldayOa9wMFcAX/QmCK8PGSoHzKF23C5hu6YE080f9GYYaSBfoQbPDYlD1L/41TnYKKBdh2t74nCzYLHe979+8J/yxR1kJ10+LBMO+jnfB9wP5gPL1tO7tnqmP5K5FJMqEUwZvWLg2rgSxB468k0jg2N559/ft6Ng3xPO0sRyOm3bCCVMtN4SemYzeCnGg12Fvj+QPNoCepvv/O2TWzIg6DPRIRJQb7j0MEb9eYoswx4+23h6TRrmAK/OstrDN/LcmcRzpHHQPXHnXHyU/u4cE1Fpt0ih+R4rxkHpNEe5/fV6UfhIBhsFE1DyMgNs+0iKVphs01WHh/nfwk0srJY1pUGGwRYykBwB1+5FZ6nv4nacDV5yteupHhdzaTWEJYsV5THZM4C9EslUU6aOEF4k12x4bWwBuTfAar56ZeWzrOlnSmToVdiM2s/UAYM1SMIwrx6AfqezsLXv1Tle3ZE+jlv7JH/823/1W1/h+sUR3xZVwcQXvHmgVaZpU40WoWApUcEXRrviy+8aMJvu3bgfi+hdH8TiOeHS7t/UdqjfIMLWjSEfgZJjjfmABkEakw72rdvJ63ZWNmO+ok2gj8DKX5kBwy4QFq4g82WMh99PBcUF5foQI1DTaOdLw9L1WGzE9qiQi7B+kijfefdd7kJX05QmcX5iopxkQOLnAOLQqNd05di5WecDmPBmxAT0+wkulB5TJTxJILghr0vttx+vC2E4eORE8Djr6SkxDTqVWPkwVOfXEMTgsUJrAZgwoFCgvf0fr3nT5Fj21FUICxzlLm5PZ4/mu0LYy9LXX0HmdCgKKgOsJ/sM+ExKUIory5edcqOeRacA17QNnwEwCAMEsEz42s4FMQeLM5ikJC1vGFHIpOdlCKGVI/l7zwSJ2BpP4R9jF1DbvJH+pH/SWtR24jtz/eN6vU/jksfnrjQSnWvvEG0tmiQmjdvbiYjeBspBAy47WSLOVFLniwzYlP9pOycm2vDELv/54eLQI/QCy7L0GieAOJY4kXbQtkbbbShNNpXm1Y5vEv79u1teTq9SYvlaoR/NvAwiHDsO8veLLmmBz8vaBdrs3RX8xPLoM/ybXrw98qA8hZHGnEBwjMaKDRwvGfYDBbyxHvkwOLiAHbIBy2k6cjierdYbuRA5ED1OVCkTRBeohEOmmWThbmYmtkXVFkERnftD0JPxIBESC4fpBCUENMDWBl4K9EGSy9Qk6Y8yY18kX7kf2x/dIua97/D5Qd7RA1ttOlz/w3Ye++9tTz9hEiXueLiYlsqZqNV1iVWewn4n0mwDj510++Knea5555nG6D40iDQ4wYwAEJxSUlJeEzuycfGbumwT05i9OBD5c8+HY0W7xshcuA/wQFWmjDriBA5EDmwZHOgHgock6klAzNg+SshtDu6arTxZzliMiKQEEBc0D5jsezBY1sWw0tEcRMaPA0Ocwm5zCpbaTxH+mJC5H9sf9aR6BHWK2rY/wx5ibjgoWSOlqiPPfY48+KTFbBzldCHJq2BzsUrgAsv/lgmxR48uClL5yGMv+zeMv3IB6wflWpzCcu6+TTZQaN95513uTfe8BuS8pUT4yIHFgcHUosri6P4WGbkQOTAf4gD2gwpQABGgNb4XiZzEARpxnovZKO5VhiB2o//uieJHlX5vM7bZ0jyKrP55TY0sL0G3Oj54r3iTuFIP/I/tr+F63+hX9Gd/tcBu/DgBquqdz1c7sF+lD15VYCAzYbGLLAB60xt4tpMpi5o0BcGMI95790dCtqDL0zZETdyoBAHbBwulBjjIwciB5YYDhSN12ZI0+agPdJrI0OzO9KLxr4eCMnEpM1FvO8NL1r7QT7kKsdhA6AQc+bZyOm2cRIXJUpD2W2m24ngHulH/sf2t2D97/DDZToyYrjvfPEaORA5sMRz4P77B7uDDoqmI0v8DxkrsNRzoI4XbLyojCCMtG0itx644zHEQroFcxG7IyVbDEjkUaxlRShP8npnHSZQk4uyLBUh256VT4HgEpC4SN/zHQZF/sf2V93+x5w2QuRA5EDt4UAhs6naU8NYk8iBpYMD+U4cToRhGBAkZQl9uYHcJEDTeiNBm3CMdEzAbE8QDwVI0AR8Bn9LBOx0fHm5IHnwwjjhSD/wqpxPnq/mkzHyP7Y/6zLqh0k/8z0oXiMHIgeWdA54o80lvRbx/SMHIgdMo53olzVYeyHObKvFG0RmtNf8t3HcJGj/EIJ2V6I3N8GPdgKy9TZAQqTY8Eik5GdLJslIUjrCgj1IXveZI/3I/9j+1BfoJ/Qb6xb+IQTtbt3HcpArQuRA5EAt4EAYB2tBVWIVIgeWag5gMi0IIq0fxIlh2C6V4Esycq8N4xKQDexBF9sE6aMoAcd9PidmJB4pp522JC6KJ4kg5SnMxYuUHocYS470jT2R/7H90R+sv4TOQQ/J9D+SIkQORA7UDg7Y2Fk7qhJrETmwVHOA/Y0GdjOhV48awAkGGzEsQhJ52OfVA6KxXJToqs+BPSNck+zjy+Qvm6D+G/gknsjvC8StdqSf5o8PR/7H9kdPqUn/y3WkpAnFW+RA5MCSzYHQ/5fsWsS3jxyIHDCNtheGTRTWeG0idI4zmHOQYgJ1iE3iQgr45mHEF+QFaaRvQSg7SfJxiYrWBHMlhDyWGOnnJifwI/I/tDJ/923Eh0MK7Wdpb39hQ7HxJ14iByIHIgciByIHIgf+JzhgRtWYcXgdInI24guiixe8sa02QUaP3s5EqWZwTS5DtIp47wgEfRw4gAlAPqeVY0YiFC2/ftyASB+ueY5F/sf2t3D9z/epeI0ciByIHIgciByIHPjvc8CfR4gwbXKehniTfhGWTYzWG3r7DoRrM/lAICSv2X0Ql1Qi5Fc+NjoGMbqolAK9SE1eO7aGIkslchuy0hQf6cPHyP/Y/nw7qGn/48CfCJEDkQO1hwMooCJEDkQOLPkckMjLAC2xWIKvl3i9RrFIGmc/dMvWOhnEOWcG9bN9ALxE5PMojKBs+fVx8N8Hj+0jvTxPAqX6D4jKQeC2DJF+5D/thUYU2x99ZEH6H70pQuRA5EDt4EAygtaOysRaRA4sxRyo99aoURJu0F7b8G6swC7YzEOQiNXb7UaeEI/EnCSYbSjZ7KuQjqcoMxRJyvSmJ16rHWgpv6FE+pH/oU3Q3mL7q2n/o5MNHny/9Tk6rJ8bx/7HlwXgG2Zbt/me6R+csY9P/P7Yx7ucJ7H//c98f9RO6dO0XVtRDt9Fa9N+YI7jr3XoKH/wOavQLniO3///le9/0Tgdwc7vw8BsJh+Jyz0bf8JvZ6Ye+tl0N0sQG6Q4hN3/mOEHNpwcotKSCJa1TRCnT6iA3ICndIvXPdKP/I/tj/6hfkM/8TcfqEb/O+KIfm748OF0yAiRA5EDtYADgwcPdj17xiPYa8FPGauwlHNAso1GdfsveZtBPgBCsKRfs8tOBGFm+kgA+AT0cyWz/bAZN2gqJick2IOZl2CzbSnCpVDKJCNaS7LbRddIP/KfdpEATSW2vxr1v8C6eI8ciByoBRzQNzBC5EDkwJLPgTp2yEwiECMAF1nY5GEN8mitTSq2K2G/hKWKs4yF1C2wZW5yIEgTR5olgSsB2nxqEyFdNjcuCFEKRvrigmcKLIn89w1HfKCJxPZX/f6nzhQhciByoPZwIPkW1p4KxZpEDiydHGC13st5JuUhFps4bUIwYWJMApTwXGodX88oshMtNcKy/5M63OIwDDH9tEclMxstbbOlciJAeYnSSo/0I/99s1JLoG3o4tuPD/tGZI0mtr+q+p9NctUZI0QORA7UCg748bdWVCVWInJgqeZAHX/QBUKOurXkYMZrc8Entti4jvRDwKsYPbMkU5thd5IHsRqttonXFCAUM+gGlXOj7Vnxysefp0NYTyacexqRvvghtkT+e/v/2P7oIb5vzLf/2ZSZ/BEiByIHagMH/PevNtQk1iFyYOnmQB0OmvEiL4xAYOaO0BzAJD97II4/r/z2OewZP32WTU/J1yHYc3sM0MlJuiy8uSkftCL9yP/Y/ugfwML0v3Iu+rLiNXIgcmDJ5kDs00v27xffPnLAc0DesgGuppdOBGYb8ony8Xb3ubCpNjEcAV3xQWgmJ8WQRnaTt0lXnKfh7wjW/hRJ0TPNeIIoLEomM/ktTEHE293HR/qR/7H9+Y5Vof+FTkKXiRA5EDmwxHMgdukl/ieMFYgcMA7UQ4ZFcCnVPxNgFIHIi7Ablq4SOVfxllkXCXuoo4ME7XNbvAnIuXwqIyAjYHtMi7QwWu3kX6Qf+R/bn3qF/V+A/keHihA5EDlQazgQxt9aU6FYkciBpZQD5t4PrTMjvJl7GCNM5LFBn4HfoffWHVd/pJDdvIUkYVTOJkZLqg5eS6wYZSSv/clkpEjUTAtn+D7eyiMDZfkXsbDJDVwi/cj/2P6q1//oRhEiByIHagcHclqq2lGdWIvIgaWVA+beD+HXRGXEbhOay9lhQrLPoDzkSvKaBCwtrEUgZltOmYN439pJRks3eVlCdBDozWmJkUCT7k1QIn3xMPI/tr+F6n/l/TaGIgciByIHIgciByIH/vsc0GZIrzQOmmUWrf1E2i9fo3dGUDbBGVnawGIUknicaLktnRiTvJWdLIkQ7lG8IE6klRzohjtlKRzpR/7H9kePqVn/yy0GWWeLl8iByIElnQOMmBEiByIHlnwOJCfIMKwn+moEZM5Zl6RMEK/YBrqFoR/ts50YqQRy+ezKgISE4ByEb1AV50V1e0hKQ0C3rEr3n5NIP/KflmINJLa/Gve/pGP5vhqvkQORA0s8BxgxI0QORA4s+RyQFYfvzthHYzbCc3KThjkx7fCqZsnMIa/Ebw6gMRlZeArWkRGIPStcagUokXRFc2R7ENJhWVr0jvQDTyP/Y/ujLSxY/7NJCp0rQuRA5ECt4EBcpaoVP2OsROQAMrBJyybvmnwskdh02Rrzi5IjsIOArQRBos1W2MvTDPH88xpwirNsZMW9NvmSVKOkZ/xrEGcQ6Xs+BH4mvIKJkf/eE0tsf2oMgN3Uc1gFCu1FHSzXl3yueI0ciByoBRyIk+da8CPGKkQOiAM6GVJXjdtsUDSZVxcTgaWJBhJx2AL4vSZn+ACAija7iANrkoE/2GiT03xmE7BEuxoRwzPCeuQh0o/8pxnQ2GL7W7D+Rx+LEDkQOVB7OBC7dO35LWNNlmoOmHs/OGAHwahjB820l42lpQ6SttK85YjXMiIUYW5iycqEEC4FuKD864DpiU/30b4o0imMvDlqkT68EE9yHAlhzzTPMuNZ5L9Zs4svsf2l+l9oJ3SrWgLPPfece/bZZxd5bSZPnuw+/vhj9/vvv+fKnj17tsV99913ubgYiBz4b3KAsSBC5EDkwJLPgXqMz3TnIulUyyTu1sHXNWpmCdEmWNsFKZoor80GZ9asWe6OO24XTplbrfmq7oADD1DI9OJWmtl8C4eyv5k8xT3y6GPus88+dVOmTHbFJeu5DTZo7Q484EC3woorFqT/zTdT3GPC+/SzT9yUb75xxcXrug3Wb+169hTeCiupZARTqELIh4iZMuUb9+ijjyb0prh1i4td6w02dD0PhF5T5TBRTVlV1+Qdqf/ESRPck088Ibwv3OTJX7sWLVq4jTbcyB3Uq6drtkqzCvUP5gz56FPrdP2LtLmvVHyEF/6N89OvCf8j/XJuZn//pZH/6ZUka2ZL8IW+c+KJJ7prrrlGtShyJ/Q/3l151VX6HvnffGGrdvbZZ7s777zTvfPOO26zzTaz4t5++2234447uuOPPz6hu7BUIn7kwMJxIFFTLVwhwj7ssMPcH3/84e6///4qyxo3bpxNbD/66CM3Y8YMt95667ntttvO7b777lXikfeee+5xH40e7aZ9/71r2bKVa9NmI7f//vu75ZZbriAueA8//LAbLbyvvvrKrbvuuq59+/bugAMOcMsss0yVeA899LAmxhk8je/LNGhQEC+dMHToUHfZZZe5E//2N9dtt93SSRXCpaWl7onHH3dvv/uO+1xyQbNmK7vWrVu5Qw451K266qoV8mYfRo4c6VAWfPHFF2755Zd366+/vttpp53cpptums1a4fn11193I0aMcGPGjHH16tVzbdu0cTvtvLPr0KFDhXzZhzfeeMMNHz5cfBnjGjSo7zbaaCO3yy67uE022SSbNfdM/R5X/d59913JPZ+pfs1cq1at3KGHzr9+uUJiYL4cKBo7bhyypgCRMQiD4Zlhzm9lNM22MiJkEzP4gYfcWWefZRFt27ZVY3xMmSkpiO7cnXvhhZfcmf/4h5sxa4ZPslh/oaFefvnlbquttlJERfovvPC8+8eZZ7qZM2ZZWgrNrbZqczfo8ivcVltvLU16mPeLnui/8OLz7swz/ulmzBS9NOjVVmu+mtHbcqstcynhbZk0UObvv/2WS/OBIrfMsg3cyX872R1+xOG5+ttkhElJhn62/t42RiVx6ErC6TSBQD9bf/9cmP+Rvn7QyP9c+ztCbXO4Ps5LOiAQIBgMHjzYBniEbgarnj17urvvvtsGnoWtY+/evd1dd93lEK4333xzK46BLQraC8vZiL8oOXD/4PvdQT0PWqgiaeNbbrmlW2ONNaSAmlKwrOuuu86ddtpp7tdff83kKVIf2cw99dRTbvXVV8+kOffkk0+6fkf0c9N+mMZg5Ye/JFdJSYlNaLfffvtKeAiECHOsLmVhgw02cPfee29uEpxOB6+3vg9fff21jfc2IFuGMrf+Buu7++69Ly9eugzCTB74rtx0003uyCOPzCbb89ei0atXL/fqq69WSKeay2oCcdHFF7sTTzihQhoP8PCggw4y3uQSE96gLIAeSoT69evnkgnMmTPHHXfcce62225LxXvEunXrupNPPtldLJp16qDQLAdW5lAQ3Ha78BAoUgDeSSed5C699NJKiopJkyZpwnBIpfqBzgQJWifkqV+q+BisJgfqlCuJJFKHH8kEQoTu0HOUQFDAbdLXU9yNN1ynHxUhFyQJyTr50UOSUQ8jX3tdDeA4L/Ra2alChDl16lT7oceO/UK5y+m/9tpI4fV3s2bMVHx4KV86+b6b+r079JCDbaYYHIFDf+Rrr7njj+tfWcgGVcV8J3oHH9LLfTF2rCL8u1D/Z555xl144b/dnJyQnaQZyTI35/c56lQXuQcffNCwzHgDDbrqn6Zv2ZNyc2GK0p+y6sIDEwogoeFv9lxd/kf6apmR/5n2l2tI1rqqujzyyCPSrmxgGhY0u1XBTz/95LbYYgvLy0DscdfXc2utaN1RFar7+eefPa4GzlNPO7XKvCRivrHHHntIyH7A7bXXXu6xxx6zv7333tsE7x49ethK2nwLqlYG2lBFnvGUjatWUTFT5MBi4IAffxe8YDSUaJWBUr/BKm9hzz//vAlqv0lAPProo92LL77onn/hBQuvvNKKtvKDlnnevHkV8D/44AN3sARRhOzOnTtrNfhJm7xeeOGF0mi3cRMmTHD77befm/7jjxXwvtHq9N5772NC9sYbb2yT3rfeesvdcsstptX+7LPPrf/PnMn4Xw4eb28Tstu3b+fu0rfr7bfBu9mVlJRI4/y5yt3bZfHKS2AcLnNnSoH33HPPW3Sh/k6+A8Q7hOzi4mITfkeNGuWuvPJKt22nTqaQO0nacHiVhSOOOMKEbLTYF1xwgXvjzTdthR2hFk39TTff5C655JIsmjvnnHOMTp06dd2pp57qhg0bJkXl8+6oo44y3qOBv/rqqyvh/etf/xLe7a6uZCC+0eDxXvyW/GYDBw7UiuCVFfCo34FaAXj1tYr1u0orh506bed+kyx00kl/c7SNCAvPAa/RRvILVh+IgTxrEEI4ZCzi/ssvP7lp06a5IS8NdXffc7f74YcfctTboNGWyUUYtjxekdtv/33d+++9b2U0adzEGl2btm3cyJFvuAsvGODmzP3Dyui2Wzd39bVqQNDVZf/99nfvvf++pdFYzz//fNfW8F53F5x/gZv7p/BEhCWfq2x52bJax3jvvffsocnyTYV3nmvXpp17/Y2R7vwBF2j5bK6R2K1bN3ft1VepiCI3c/Yst1OXndz0n1Qf0Wf56hwtLa+51lpu+LAR7oYbr3c//viTvddKK63kRr05yk5w9BSTV04esvXHFMRc1pGg96VTI2YzPbF1AtFH9rbVgir4rxwqwAzgVQ4IgXqkb00m8t/xcR8hbU91gI9sF5lJjHjlFS1pNnWff/6ZW2211fKieu3v3TKdWtmN0ZLkKqus4rp06WJLm02bNnWffvppXk0XhXncuwwHm+jmzZvnpUHkjxqM0TK9qUEJbRAaZ5ZNgT///NO0X2i5t9YqFnbb9MUFBd7rbpX/zjvvuk0329SKiRrtBeVmxFtcHLj//sHqCz1rVDyaYExAMD9A+0vfYQxfbbXVHYJqPmizURv3icwzz/3XuQ6hLQ2Mp1tuuZUEtj8rrACR55hjjnE33nijacwxkwj9lTRMS1npRmuKUIkAGIBv1e3S2jLZf3PUm47vSACUbwjf3BE8zzvvvJDkjuh3hLvtVuFp4v62BPMmTZrk0qrC+/LLL81EBfMUNPNo0RlCGTt4fwTZLKBUQxDle/fJJ5+YSUU6zz777GNKAL5ZKOoCsMfDa/6LJGw/YYqDkMYdTTZa4iaNG7uff/klp52GT5jqIBjn07LzuwwYMMA1atTIffvtt7m6g7fueuu60nmlefHOPfdc4Z3nGjasiBfq10z1++yTT93KMolJAxMWTEqy9UvnieHqc0CL7wLTDuqulldGr/Sx1kERDSdMnOC22HwLt5sE4suvuLxcyDZkZPSU+UYSHvn6a+4DCdkAAu1FF13kdtu9u1tnnWLXUx+PU04t73jPv/CcBntptUV/pD4Q730gvKTsi/59oeumxgwey2inni48JHkBs+6xwoP+6+roQcgm7eKLLnTdu4le8TruwJ691NFPzb0ls7TPZTeFzPqebJOm/+iFbEgOkFDfafvtXHFxsevTt7c74vC+ivX1QxgYO07a8IQ+dBCS89XfcBKhOHAHTXSoGDXIyczz4b/XgQs3IET6sN4g8j/d/gJXqr4z4btd2ujG+tjPmPGL69+/f14EBhAEUtryjTfcaIKy4d5+u2vcqLH7RbiFlhYRhj2u02TV4+YlokgEAszHRknI7tu3r9l7pgdtwggQpCGId+zY0WGPWBWwTI42iYEoC37CS638dySkW+/k+5cBJgkMkN/L/jRC5MB/igN5muJ8SV9y6SUmnA4ZOsTNk5ANMP7S5vMB/eSTTz9xDZdr6E455ZRKWbAnbtWqpY1c7yfKr5AJsxRg3333rSBkE8e35S9duhA0W2ML6IIgibBLzztNY3layCYP5qT2TdHrPvroI0QZYEuMxhw4XUJ7WsgmLoenMKtuaXhfmvczzjjDXX/9DTlTldDzC/EFG27guGOPrSRkE4+mHqag1U8D+z6Axo0bue7du6eTLMyKHTBTE5GJEydamAsmOKXiDYq+ww8/PBcfAkxUVlhhBVv1S2vRjZcSsktKSqrAW9HjvfRSKM6l65cVssnECgbwQeY3t8h4qTEHvEitVkc3pC/iOQSNF8DVzBSSMHmAcA/jlBckEcmtFMsw5MWXTC4k/0orruB22mVnhcihfyqfzlmnbl3DgNzLatjQf+nFIUYYAWpFbZTcScb8Xg/M+5U5ZpJ166L+9e855OWhVupLLwnPXqxI9FZ0O++0s8PrIHWoIwL7GD22zSmTnocOfdnyj9EgGoDOu/lmm1eo/45/2cmSKYfi7Z0pIkFC9g31Dncy2jun6FvlLKevv5Vm+VSQClOwCv4nojYCeZIv0vc/QOS/b3/0oZpASUmJbQai3TEwPaEPfRow+2DpkWLRMNPvAhjuwMus3YLLIJEGcNES8dtgW72PtCP5IJiOddGAjBbuONkZ3nrrrTktTxoHu0TSjtHA98Xnn7ttt93WbB2Z/OYDyjv7nLPdfffdly+5UlxW6E5neOCBB2zwTw+M6fQYjhxYHByoaZ/mHa679jr39NNPu2eefsY99czTpk3242f+DwQbEYH1WrY0bak9ZC7smwCb1eU0oIEFKtt1+1yzE1PMVio7ANphVsaBXXfdNURXuBPP+D9mzCc5pR4bA6cnq+i7Fdi82LVrV5VTZBro6dOn58rsqFUwePL0008lvHnab0hk/C0wARk9+iPDby/tej5gpQCmZAX+lkld4ZnlySBjkgEwEcFuPgCri8DO2vSIXXUW0GRvr42pwCtJXsKsxPHb7LzzLnnxGjZs6DrpW4mAkV7xtN9dcYU2SvL+QJPMb26R8VJjDiCDakAUxwX8YPwgXhj1d4TixjL76NG9h+suG0nsJLv36O5WXqkZuRMAU2Imt0QY/FgdyhfotPu1jasruyPKsgFN9BpLqC0uLg5Z3GgJvKCPGeMFX4RW7LywO7I3USJxy4Mn7TZxgBeUy/ysWXkQxjcUPROINWkgFwM+HaJ4nXU8fcWNHv2xve9f/7qne1xmL5i+PCJPJfXqIfwLgbL070VpzQOtVbX81lIfF97Dn2JICODNFeaW1N/ypOiTK13/JCsy/3z5b29CPnuj5E6lLIaSKS3SX5r5n3RhGkO1AUF6Z01kgeO1CQcvAAH+JvvDb+S9h8Hg2muvDdG5O7jsaAfYwJPFxfPPGquv4dhklQW0U9dff708D/lNT2vJTIuBEK1xeuAbq70U2H6yKQcg7XqVN1iCL2Yo2HRSxu3SsAflQKCF1rupzGIeeuihEJW7Z/OSQF+nF/FuWXhB3wBMVcLGyWx6fI4cWBwcSPeF6pbPxkM0qSz5d9+9u3kNoV1b485TCEIt/eGjDz/Mk+qFuvHjv3TLLruslZnOFLSzTGazdtGYZ7yQ2Pf2SLS44IbJ6sorr1zQ5AyTEz/WFeXyY+9NHHiFzNzatWtn4z90yB9gdX3D4En4211hyoEn+b4F4L0pE1HS2CuSBb4RmLYBptlOZeB7tN56LbWxca59l1JJFkRZAOB9BJ4GmGj1cybzhLjsHRNdIF23wM927XxaFofntuILdQ15iWNlEEcOe+65J48VgPrdcced9k1EIRph4TmQ2gxZXpgXhnn2kuIqcvly5ZVXuCuu4O9yd4U2BKzXct1yBP0k/JAImUi1iIBTZUcEEG4uLyEkqxckd4UVsbrsQkkn1/fa4Aig5fJQpsF0FV+A8pYLEnInaLufrUQ31ZZz2Vjp/d8iuK4qeuolOVzKI/fqEpQNRPT77z2dNddsYbZkdG6WbYBnnn3G3XzrzVqK6WObH4hr2HA5dzpmK5QkfDudT3WlXB/BTU9J/fPRz9bfMD0DCOYgy38jmcsX6Uf+V25/NPcFAT78TZuuYB4JWF4FMPtgIKEdks7KUj7wuE0r4LKT3w9C+XFZakUIRjjH9AQBH21VvmVWhHe0N2yOSgPLmmjGsLVGO8ZSK27IiAvAjv5duu5iAgSbwtJQSIDhy5VNo/z3ZAK388475dW0p8uN4ciBRckB9vj8pwHhEltu+im21XvutadcxTVwN2hijBY2DfRD+jETYtxkslGQFa4+ffqYwDhr9iyLw+Y6APbFfL+r2q8BvaZNl7fvj+UX8lTzb1+W14wjlO3xVrDHgBfSsnfz3KH3yA2r2QyZZ75FmKFhdsrkBNOLTtt2ymt2N3jw/XINvIY7vv/x9m16QHtLkJ3g0aBBg0ybjlIhDd99N5WvT5V8wTwGSPv6D/XElrwQrJrsjQl58+WjfgjiKBW67tpVGypfdh237VjQNDBfGTGuMAfqmTxqqkBZGmtncpGMSYpKfQvkh6erI+TaOE6rRJPKQ7nka88InnXMWtmP+LN+nW1UmYXiKsayK4kiKBSblYayY/K5y9xs2SzRyemc0GWQb7gc6XpKSBqy6LOMEmD2rJlGf6buAc98d0IgvKfKRTHeSPQMFA89yrODdjL1v/WWW+3wCsoD6kvLfffd97hNOmziywz1ULLl0HO2/lbBDH3ex/In9TdWKux9INeM/1ZOpB/5TwO1dsal5oA2mUl0nz59bWMQAm/YHITbrkLLtFDyuFfawHrjTTeaxivgsuEpHy5CNbv3N9pwQ3eLhHiE7kIQ+p+vYMVcaJjxeoL7LbTrI18faQMQvmMD7N5td/fwQ4+Yt6D0Ji++M9Z/QkbdieNfVtDGHpLv4i67sCwdIXLgP8cBv2q6iOhlG3yBYjEDWbPFmr4vqJfQJ3DB21vCcxbYO4HAOH78eLnVfcGdfNLJlt/yiV6vg3zfTOPZIVH6VC2X0uam00OY9Bm/zDCXd8T9xuFSKhNTiKog+N/GVV5VQH83SMsxVSCwEXHQ5YNynyJ8TT8ml8b5BFy8NGFutsMOO0irfYfXbMN/keT9Wc1bc801K1DDrbDJPFXUL9QtfdBWCC8nRWAhWAZei/7cuXMLZXEDzkvqp3y0O0xg2AyZr34FC4kJBTlgZ33wK9ClbGBL2h+30mRACrJ1boJNIg2VxmMAJkK5JSimzM37I7gCSga1gAOS/ls7n1dexp/yJEIZ8/6cZ6VQrA183MlPBFK/gCUPA8XP/UO2UoLSP0XdBGb/WvaRUjbKgJ4VYMvCPDj3BzZWlGePUE7X3+cJ9P/QjuujNJg/8fgThmtlWblWusVl65+XvlVaZeu/BQvST15XmXiTbP0jfVjO7xr5n/QEtRPfZq0x1vCCZriHzMEYfDANw+yjuLjYDyzzKcvj9rA+ucdf/2ra7ZKSEhuc86Fi781Ag1ehIGTjr5ZDHbIQ+l9VVWMJlgM2br/tdvOGki7DbEDFFga9NPjeno5RU0oG3NwAnCSj4YF+MJOpiBWfIgcWHwfKv24LTiNXRvhQzKco7IMP6nWQTWDxyMNX5eS/n2wmXFnzEFZ7MFF54YUXXb069Vyn7ToZHhubUbphUrKBJtR4/QgQXAQiW1QFpPLuIX+wia4KJ50W8NJx6bD1cxHJ9vd0nnQYrXyf3n1cN3ksw+wELf46MkXNZ5rG96abJvmYYKy11ppmnrFHjz1sw+avv/7mOm7T0TyqpMsvLfXy0vzeh98jXTcflvQSZKJ0oUk41DWNl82GEpGVCDzArbTySrZnplD9srjxef4cwGGGgd34FQEJMATD4IP8aklJOoKfBQkAll84oRDtQmzYuHzmOTfZTKEClVndJylwzp+aYSX0GzXRspSSG5q22kfiji8pvgL9OYoP9HGTw2s0gl5S1pw52rzBrk7FWz6jKofwZuCvTIpkGYzNkgHHUJPMd911p20yuOGGG1yr1q0tDxsxTjnlVHPp4+uvzOGkTAVNUA+FKD4f/Wz9C9GvHv8j/ch/5sn0J3pJ0vgJLgBg78w+Bm+j7M0+sht9ChWbw9WueeDmm2+utEko4PJNwS1Y0M4QzxI0h03kA6vVfKqGlohBIgsstW6hA2kwHUl7HwkT8nT+8K1LxzEwvaSd+rg/y2qg0vliOHJgcXAgX5usKZ2aTsCxG8bDD3940OAQLPY6YMLFiapp6CHhEVMKXO9+NPoj93//93+Gh/0v/plxc4ftMf09AOYdjL9VaVfJSzqftXCoi/9eFM0Xz2uyi3J4gW72bry172Y2Jf8zPrDZC4JZHTbSHLbz22+/20bx9MZLJuY9ex4kryIz3L///W+bZKAZZsM4mv9jjjla+r1Sc1mMC8YADZZZxoJVaeJJ41NYX6c+BjB+KrYqfoaNjfk2WYZyDj744Er1Q8uOYiTtyjnkj/eaccA02r69JaOZRu10+2M2RIoN6KFsm42Sq3wE5IjxgMhAtkLiG5Nc30/7PiRZCUHbO32a3xlMHjY5AiuoU/MMTJv2g804s/T54T3lMtsJbfgpX5zTpmtXs5c+krL8xCHXYIS8fJPlbWKAT+4/JYD/oY5tQobwVpB9GAMrO4A5tjZ4R6G++DZFHQ39wBnoZ+ufjz51AkL9bWIiZF9fXyPw/LPPW4j/kX7kf7r9hQ3NvtXU/IoLO8y2aI20v/m5z0tTKMf1sW/KNKQmYO09af758PDJi/1g+GOgC+H0Jsx8uGjcgCFD5JUogGhBMy3IBE1SOg73hmjtgqurgB7vkQNLGgfSY0pN3h3zB0xHwGf/RQDshN96S2dKaNznGPUNpblOA6tVHIYFHkJ68Exidt7qf2a6mUZIhemLHF7FJyHYhft7WaVNlyk0kxW8Vw8cOFS0J0/nI2z8SGSEbNr8nlFAoFxo2dL7vc6622Nk6nnAge4fOhE77aYUk1c2lm/bcVujn8YL5rDUuxCEtEbyiR0g1NN/u0NsxTvfT+qb9RpTMVf5U6jfenLrGJQN5akxtCAcQKeL3KimYU1Pch7DN2GaOYORb5SsTHg7E6Uq0gZ5j+LzmfBN0AqT701pgnlS3glfTrDSyM4wbll1DOKEiX5JCUqtWnuNVkvZPoV3YckpH/2JEydQtL1Y64RO65atfJyuX2qXdHg1E4ChqXhm116MKHKtN2hlpjGbyU8oy1sbyrZz8AODK9V/hRWautb2Tv7dp0z+2urvOebrCmE8injwcfnoZ+ufwzAUj1Fd/kf6tBLP68j/dPtLmmENbgirbChk+REtMJzFJjHrNzdfkSwnc/x7wCXPAB0ykfZpnw8vHRf6QTouHX5U3oBKSkrcuiXr+rs2LfNcsm6JDXjpvNlwELRffvnlCkmMsUG4Tiek4zjMAi9E+bTlaZwYjhz4X+VAbuLIQJoHMH1A81pVfzXPJMIdN3ZczgwETTYyALa8eNrIB5h1LS/fz2hi0XYDa6+9tq5F7uspk3PCtyWkLkyig4bW5/d4jN14MwlCewrFguAFjTD7R6oCL2Pn//KwaZBzPzglsRCgSd5Rh34B3jOZz4nGG8CzST5gEyaeTKBvZmlJplDPzzIbv9NlfC63pgAmHQEC3hecQ1IAWNGjpoEnVj+ddD3f+nX29cM0KMLCcUCCtn4C/ei+H2qItbani1qCBSVem1CnDAiBPjNXIfkM/g1CfuWroyTbOEiKBNCvvppkNpg0LjstUUWOfHWk+3W29ympaLfZph3I7DaVrVCgPEknOX3xxTiLN+Fe9Dme3Xc0T38Tw4OeP+GNekz++isdSOMbZREzBJXL8eyzf/vV10HlbLrxpqpZHXkaKaEmVv9Rb7xZqf44+58+/QflUCnCK8EzCQhm9wFPLIlEz46k/jYRUVKgT650/aUC95ptsFQG760clegzvbF4ZUjzP9KHL5H/of3RThcUTvn7KdZHsT189913XAf1QZYbDzvsMBc22xQq++STT3aTJk4yu0WWmjt06GArROCGwbIQboinb/v2H2L83QsJRXbc+5FH9nP9jjrSNmoeqfuRR+qv35Guffv2FZEyT+z0xx0YgnZaiLZPWSZv+pFBGy141667RrORNGNi+D/GgZzuZiEohjYf7tmiOK77rH/+U/sYBmeTcs8Bl/EnraFl6KrKHMHGbNsXxfjmv0/rr7++HjQ66pAVNkbng+DbG6cGQahsvX5rG/9YdS6E96FcFEKmofBKSkryFV0eZ7JL/m8mwjDHtPNtq2rFLPCFFe8A9i3TQwU+hcTUne+PeT5J4jbc0E9WRssEpxAEvqRXD5jkUIsPPyyMx4ojsEFCg3f85z/O1BHrJ1e5QmBIKr1ePcbaCAvDAXGQn0kNH08jhOkEuhdJ40yM7RhMBnE8dCA48wEgVw6EQwO3/Jbm7Bh1liB8XJEbNHCQmyObJkplNzHubixRGVq0aKHNRruqOI5t3881Ag9EERo08DL3+29+B/GMn2e4K8Ez0mWuhcw7dpUrGt75AOFBD4GDjRYDB17uhQSVM3PGLNG70uMJt4V2VePCBlkZn9sUBx4nTQ4d5g/Aof5zNRO/+uorzYTFXkgZO2yyidU/kYh9/fLUP+FGchMhI8JNwiFhhUxWtxIUriH/I31jYuQ/TSlpfwRrCmhVbrn1Fmv/+LymL+K2D00uH/a0t45s2Wi1yMvnIeykv1VHJNeVNwI+7lmbzix+eGbAyjdR8ANZmY5d30bHC9/sbpKGGS3zTTfeZMcNc1Qx5l1VAYMKGjlMQBiIgTDop/FCXLhjZ86yab9+/dLZYjhy4D/GAYbARQEazQsWg9DGl/RxbfQP2uBsZjuQSv1olWarJBpp5w98UUY2Maf9Oqdx0WLP1GoZ9JnwAvjl3zRRil1+ucbyPGCmKnplNMbmQSPQh04AABAHSURBVEx5WqzRQmMvyjhXcKM17gX5jnQWXtpHtSHlu4hG6O/pZFb1OIURoR6zmHyAsi+croiXkQCcpAk/02YhIS3cgwlO4Anxu8vnOcDkPt9EgtNzwwojGzIDsGLH93eoTgIthPfB+x9YdrwwASgemqp+yHCF6oeZije3K9P5AeX1swLipcYcSCRAWpzfPKiA/qUHPtJoOornrg6nmNyfBSQkksNLk9xkI6XNjYfJmwHxzITxy7it/E4ed9yx5p/xAwY9JE7957S3evU1K1TBTWQ73VvaMC+M6sRIzbi37bStO/bY48rxVCbvcJw8gdSrXx8DaTsAp3fvw6CmP+fpdeokPOhto0H2A8PhwuYM8Io0czhBvi4bNcKeC7wyd8zRx7ieBx4o/5F/s2Ohr7nmWoqzZDpfT20OyNVfKDRy6Huq/srL+3+GqZe1GYrHIz8AH/3MhQefx9JqwP9IP/I/aX/Wpmp44QRH3PAB++67T84WmcGCjb8Afl9Hjhxp4fQFXBNCRX/fffZ1+++/vyVvqhWmcJTzwIED8+KmyyHs+3rSd7KJi+C52+5+YEJ7B5hgnymXOHVJSyPpNa2AMSDl8++dQY2PkQOLiQOLpk/4ldD8r8j+gxXlKpOTVBkXw8mFITf7FE49Vd8CvUpvjecBOEyunc6eKNUYxqEtrAClgUk6JlfUoNvuu1Xwf813g3i06HgmCScosoqGsIxNN9+E4Co0lBsmvXj1YO9UPjxe9CitdlULGKcTjXs2P/7BAeys+Rakgb1euBWdpDrjZjQc3EOeAyU7ALgeRXHhN5dblL0vmnK+Qygj2IAYAIVBSUmxrSTyO+DLPAATmf79+9sj3+b0wVl4Q+IAP3hXCI/fP4tn9VP9Tz/9dPfqq68GUnanfrwbv2m2fhUyxodqc6BIHQyZ0AQWTD5M9uOuInTzAYnjuMLDF7VZYiil10E9tRniLXLYgS+crGg4OURnyy59+/Y15/eWkQKVbrfkskPnHdxNN9zo6tav511Pi86MmTNc38P7ug81E6M4j6CbcOiAROzQeXvTcNWrJ0E7edtfsDVN6CXiKpnLQfg7bC960ojVEz3KoszHHn3Mnanls3nz5K3Eyvco9ooEFagvOrfddqvbRhsZLEIMId2HQfLCdjInsZTAEGbZ0AEBW1bzFUE4oU8+BPaa8J8fhCIjfbgQ+X+EfF6j9agJsHP+nnvucc112MHHWsZN+0zFZITjebELXE+bfj784MMK/usD7iqrNJf2enSFgxbQjOEOy3B1kiru96ryf8vGKTZfeg12eQ3effddG1QO0wT6zjvuLE+oYQjtDNrsLbfc0pZ0ERjuuvsu987b7+Q0bSNGjJB7wB1tQh9OwsSWEc8JESIH/hscGKyDTnr27LlQpOlX9K/VdUrrN99MyVsWdA4++BD1v3maXK7utpZ7Pk5ups/Qdxlotu+0vRs2XAJiykyC/o02l30aeAXZbvvt3NprrW123AinCMI4FeDwGzuJMaFOP//LTn9xw4eNUIwOoNOEdrvtVL5Wk6dP/9FyUW+E6TQY3l+EN3yEogPedqZZ/umnnyxrPrx0GSHMivZLLw7RytiNZoYW4sOdbxhuCuFBnbp13DZbbWOekfgm4C3kl19+MdMPJiLZ8wLw63+zVuAQrPC3jWA8T6Yyo95608zsGLEu0mm3CLlpQEPO6hsraZiVoNFn4vP6G6/bENew4XKi/YZ9W9N4aJ7RcsNv8Lp06WLmtcGrCasCtIP0wUHp+tUVzlZaNVx/g9bu22++dW9QP8lSlJWvfmnaMVw9Dki2089u/5ndpZAQAiX92Ww4EQRtIFTYfALSWoTILQyQSZSalyVpl2sT96Bmn0cdeZRfyrEE5VfGxtqBe+aZZ7jbdDgMQi9iaqDP7tgHBj+gDnCUdwMW8HRvLO0zeCxZ163XAEomsHJvKrwHHxTeUcJbdhmiDHhLducyO7VlcdGj5SL8krb3PnurQT2tD9K2OiqeWUUA2Zvrea8997JlFD5YVI76g4fIDAThPFv/sBKQO34zkaypf5q+irLSQv1JhU5V/I/0I/+z7c/aTTUvTIwRsmlHuLFMC9kUwdIrfQUYP258TkvNs+Hee49C4F5fQcgmnUEXXJZlcWn197//neiCYN2hYKq6Qvq7VEW+Qkns6KfvBrtJWy6mf9nstxzLd8/yt4lCdjlvYui/wAG10YUFxmb6uA0oBQpDOH377bdcp07b2cnMjyffhtEfjTZTj2uuvtYNkWlCWsimKOytMVewjdSiM3TIUHMRx6SVzYL0ewT1tJANHv3u+eeel1naOa5J4yZ26uPDDz9kQjan0LKKhnvBLICHqds555xl4zmnKT4i0w6EbDSvA2WeyjetWpDs3SqUl28YB2uxKbxJ4+XtQCzc+2EuN0uH47GhEa19VsimPL6n991/n2st18D420aWeeihB03IRrP8kgTjrJANHptHUV5useUWJlMNe3mYCfWSQlznzp1lOvJBBWEZHABtOHiYeHC4FgI7wjmyS2d5jWGikxaywaF+4Jx//vmS05qKzkh3hw7Xgb8cNkj9+O3y1Q/8CDXjQNFYabTNJAShWrgIkXRND8SEsA9ZGiOSSYLlaZbKiKgokhEuyeXzSf+qhj1xwiQ3RbuGi9ct1ulT2hWcoFdFHw3wxEkT3deTp7h1i0vMLtujqXTRKAcIl9PnJSZok9aUKV+74pISm1nTYP3LCRdzjzz0/5w7x/CYubZosYY2YxTnfHKSfUHrb++JUbYxpzD9xcX/SJ8fr/byHxOQ6mq0WRps166dnaTI0nH2QBdrK8nlhBNOcNdcq+OC1WSxO2SgaKsl46lTp5qpSVW4LHeadlgdB9xddt4lXXQujBCcT6ONJwTsGNlYeeedd+byL2zANNp33S0/wW9X0Gjv2GVHHQl/vJ12t7A0In7kwMJygKO8e/Y8aGGLqRE+K1mYkeASDo8izZo1qxY+2tSv5LxgypQpNtayiRFBb37AROArOS+Y/PVkV6JxGhvu6gB4HHSFF5Li4uJq41Wn7Hx5kAfwggY/eE/vvzpfzopxmNjBTyYJaLer62KPVThWDFAOILBXy+ZcpMH79NNPTWZhIlRdvAWtX8XaxqdCHDDTEUTiMgkhZWyARH7VP3/KI2FF2K49xajfmA9oL3FamUpNABGUBP0hTFIQwrsaWM71HckCcHxejx3pR/7H9rdw/e8IuedDk1QdQLh++KGH3aqrrWqbFrMap3QZDLht27bTgS8TNclt4bbcYkv3+BOPu1Wbr2rarKpw+ehjy8lhMSwhowFinwNabgZJBh8GTATyjz8eo4nCMB+nyTX/0AZhp4nnj3/84wzLm363EKYMzFzQhgEM+mhmKJ8Jvm72vaFMADtQtEVX6Oj59WTaQj60N2f+80zXo3sP82ZCXuIDhHft2rVrbuId0uI9cmBxcOB+mXQctJCmI4vjvWKZkQORAzXjQNHY8eMlX4chKJGRg6Gxl4hzJeYeFcCkxIRli9RFgxICdamEaxufuOg5iNX+nhSVaM8tiy6RfuQ/LQWgydgKh03YFFEu65iYZI/KE9tfxf53hDYYDR823Hj4v35hcxUbJQ3U//luhN+/ynfnxw8ZFba5PAgKo83vvENnnrQEPd01k925b0yKCDiWmrnUkP4POkSrqslFpvT4GDmwwBwYrMPRemovVITIgciBJZsD9SoOckGLYyJ0Mj5plMLGwv83uUdWF7rrIuBaKlW3aaV5SoR0tEw+6PP5nCCEnAmtCoNspO+1aJH/tBovH8X2V53+5ye1YtoSAOyUDyea2evqm5Dv/cvbgK9U0Cqnq2hfF+Gz8z4ANtkDL7tMRYbviU+x8pTX7koLkK9c0rLxPIcT3AJuvEcOLD4OlLfRxUcjlhw5EDmwuDlQj66M6JtscfRaIj96KSFJ1bMNTsplS6pm64wpiWVM8C3RBieL9ah+/Ezho722SA1amFR7GT7Sj/zHOt03OdqEtbjY/owPyTzX+FOw/3mmwbj/eWDzDn+LC7BLnN8GzMVFO5YbObCoOLAEdelFVeVYTuRAreRAPWQadDyl5i7OS8Re5+yFHmptck+420PQRpMKJFJ1IoZbVIIkedoD2iXLqWvQKkmQgnakH/kf2x/uGukb/PemFDbPUJ+h3wB2t0ue/hcy+azxGjkQObCEcyD0/yW8GvH1IweWeg6Yez+/iqrhPbecakO+H9kZwLVJklE+2MUiVvvNkogEAk29TYxGgE5/HZRIuv3JCXeRqDFL51nKbLtDKdIXM4wPcAaI/De5kQt/sf1Vr//RdCJEDkQO1A4O5LRUtaM6sRaRA0srB+ogMCP8mqiM2G1Cczk7TEj2GUz849mL1UhA0sJZBGK25ZQ5SOLSx2e0dJOXJE0HgZocxHGN9CP/Y/tbVP3POlW8RA5EDkQORA5EDkQO/I9woA6CsgnCiMoKs2jtJ9KEANNVe/Wzj1CcF5NNPFABpn9N0oJGG+HJCggabruTiXJ113+jG+6RfuS/NYvY/hak//lJrLpXhMiByIFawQF9DiNEDkQO1AIOyJ7Dd2cvLidSr3zPouZGEMafiIFuQfRGe40ZCUAun10ZkBAoQmmGDarieCInf1y5I4hbCZG+cSTyn7ZB4xE7Yvurcf9LOpa1pXiJHIgcWPI54MfKJb8esQaRA0s7BziCxnjg3fER9kIw0WWShs20w6u6JTOHvBK/8fFnkrJERAXrYHXNs8L40rYHnhXtTzu0zIowCkaVXJG+50Lkv9qRtZvY/hI21Kj/2STF+lO8RA5EDtQGDsRVqtrwK8Y6RA6YDJwIwJL3bICXtBy00UVF3hNCELBNOla6abNDfiGh6U6wzPzBi45ir8R4ygypRknPlEqcQfiahPJCSXqO9CP/aYux/akzAHZTz2EVKPSXpP/5DPEaORA5UFs4ECfPteWXjPVY2jlQx4RrjdtsUDSZVxcTgXELQpy/WQC/1+QMHwDGfbTZRXY2u7IQTkxByMlhOORRyPAtnMR57aXHgUikL17A7Mj/2P7oMjXtf0lPAzVC5EDkQC3ggB88a0FFYhUiB5ZuDph7P1iAiQhCc9BMe9lY2sQgaSvNW454LStCIeYOlqxMCOFSgAvKvw6Ynvh0H+2LIp3CyJujFunDC/Ekx5EQ9kzzLDOeRf6j5Y7tL9P/QjuhW0WIHIgcWOI5wFgQIXIgcmDJ5wAeig2KpFNGbK6DapkOrgTr5iZd80Cq7/jgsJzPX4hFk11meT0+ghDZwSjS5rbkUU8+bASCIG5ZI304E/mvxkCroclZkCsPcMdieIrtL0//g10RIgciB2oHB8LKce2oTaxF5MDSywETq738gjraawrLBRtEGp4k4GjzYxCr7QOAJI1gjbBMNssaAsKQYGSRuoFfblLiy4EW/w3sHulH/sf2Z32JzmQTC/qQ7z/V63+WPV4iByIHagEHfO+vBRWJVYgcWMo58P/AdzdnA0oYUwAAAABJRU5ErkJggg==;" parent="Wobj9NWWxrkdj5AmO_Qd-29" vertex="1">
          <mxGeometry x="19" y="88.5" width="340" height="93" as="geometry"/>
        </mxCell>
        <mxCell id="Wobj9NWWxrkdj5AmO_Qd-32" value="&lt;span style=&quot;color: rgb(158 , 158 , 158)&quot;&gt;Tenant A&lt;/span&gt;" style="text;html=1;resizable=0;points=[];autosize=1;align=left;verticalAlign=top;spacingTop=-4;" parent="Wobj9NWWxrkdj5AmO_Qd-29" vertex="1">
          <mxGeometry x="370" y="121.5" width="60" height="20" as="geometry"/>
        </mxCell>
        <mxCell id="Wobj9NWWxrkdj5AmO_Qd-33" value="&lt;span style=&quot;color: rgb(158 , 158 , 158)&quot;&gt;Tenant B&lt;/span&gt;" style="text;html=1;resizable=0;points=[];autosize=1;align=left;verticalAlign=top;spacingTop=-4;" parent="Wobj9NWWxrkdj5AmO_Qd-29" vertex="1">
          <mxGeometry x="370" y="141.5" width="60" height="20" as="geometry"/>
        </mxCell>
        <mxCell id="Wobj9NWWxrkdj5AmO_Qd-34" value="&lt;span style=&quot;color: rgb(158 , 158 , 158)&quot;&gt;Tenant C&lt;/span&gt;" style="text;html=1;resizable=0;points=[];autosize=1;align=left;verticalAlign=top;spacingTop=-4;" parent="Wobj9NWWxrkdj5AmO_Qd-29" vertex="1">
          <mxGeometry x="370" y="161.5" width="60" height="20" as="geometry"/>
        </mxCell>
        <mxCell id="Wobj9NWWxrkdj5AmO_Qd-35" value="&lt;span style=&quot;font-family: &amp;#34;helvetica&amp;#34; , &amp;#34;arial&amp;#34; , sans-serif ; font-size: 0px&quot;&gt;%3CmxGraphModel%3E%3Croot%3E%3CmxCell%20id%3D%220%22%2F%3E%3CmxCell%20id%3D%221%22%20parent%3D%220%22%2F%3E%3CmxCell%20id%3D%222%22%20value%3D%22pod%22%20style%3D%22points%3D%5B%5B0%2C0%2C0%5D%2C%5B0.25%2C0%2C0%5D%2C%5B0.5%2C0%2C0%5D%2C%5B0.75%2C0%2C0%5D%2C%5B1%2C0%2C0%5D%2C%5B1%2C0.25%2C0%5D%2C%5B1%2C0.5%2C0%5D%2C%5B1%2C0.75%2C0%5D%2C%5B1%2C1%2C0%5D%2C%5B0.75%2C1%2C0%5D%2C%5B0.5%2C1%2C0%5D%2C%5B0.25%2C1%2C0%5D%2C%5B0%2C1%2C0%5D%2C%5B0%2C0.75%2C0%5D%2C%5B0%2C0.5%2C0%5D%2C%5B0%2C0.25%2C0%5D%5D%3Brounded%3D1%3BabsoluteArcSize%3D1%3BarcSize%3D2%3Bhtml%3D1%3BstrokeColor%3Dnone%3BgradientColor%3Dnone%3Bshadow%3D0%3Bdashed%3D0%3BfontSize%3D12%3BfontColor%3D%239E9E9E%3Balign%3Dleft%3BverticalAlign%3Dtop%3Bspacing%3D10%3BspacingTop%3D-4%3BfillColor%3D%23E8F5E9%3B%22%20vertex%3D%221%22%20parent%3D%221%22%3E%3CmxGeometry%20x%3D%22509%22%20y%3D%22595%22%20width%3D%22100%22%20height%3D%22150%22%20as%3D%22geometry%22%3E%3CmxPoint%20x%3D%229%22%20y%3D%2215%22%20as%3D%22offset%22%2F%3E%3C%2FmxGeometry%3E%3C%2FmxCell%3E%3C%2Froot%3E%3C%2FmxGraphModel%3EDB&lt;/span&gt;" style="text;html=1;resizable=0;points=[];autosize=1;align=left;verticalAlign=top;spacingTop=-4;" parent="1" vertex="1">
          <mxGeometry x="703" y="788" width="20" height="20" as="geometry"/>
        </mxCell>
        <mxCell id="Wobj9NWWxrkdj5AmO_Qd-36" value="" style="shape=image;verticalLabelPosition=bottom;labelBackgroundColor=#ffffff;verticalAlign=top;aspect=fixed;imageAspect=0;image=data:image/png,iVBORw0KGgoAAAANSUhEUgAAAEIAAABCCAYAAADjVADoAAAMR2lDQ1BJQ0MgUHJvZmlsZQAASImVVwdYU8kWnltSSWiBCEgJvYlSpEsJoUUQkCrYCEkgocSQEETsyrIKrl1EQF3RVREXXQsgduxlUez9oYjKyrpYsKHyJgV03e+9973zfXPvnzPn/Kdk7r0zAOjU8KTSXFQXgDxJgSw+IoQ1ITWNReoEFGAEdIEHADy+XMqOi4sGUAbvf5e3NwCivF91UXL9c/6/ip5AKOcDgMRBnCGQ8/Mg3gcAXsKXygoAIPpAvfX0AqkST4LYQAYThFiqxFlqXKLEGWpcqbJJjOdAvBMAMo3Hk2UBoN0M9axCfhbk0b4FsatEIJYAoEOGOJAv4gkgjoR4RF7eNCWGdsAh4xuerL9xZgxx8nhZQ1hdi0rIoWK5NJc34/9sx/+WvFzFYAw7OGgiWWS8smbYt1s506KUmAZxjyQjJhZifYjfiwUqe4hRqkgRmaS2R035cg7sGWBC7CrghUZBbApxuCQ3Jlqjz8gUh3MhhisELRIXcBM1vouE8rAEDWeNbFp87CDOlHHYGt8GnkwVV2l/UpGTxNbw3xIJuYP8b4pFiSnqnDFqoTg5BmJtiJnynIQotQ1mUyzixAzayBTxyvxtIPYTSiJC1PzYlExZeLzGXpYnH6wXWyQSc2M0uKpAlBip4dnJ56nyN4K4WShhJw3yCOUTogdrEQhDw9S1Y5eFkiRNvViHtCAkXuP7Spobp7HHqcLcCKXeCmJTeWGCxhcPLIALUs2Px0gL4hLVeeIZ2byxcep88CIQDTggFLCAAo4MMA1kA3FbT1MP/KWeCQc8IANZQAhcNJpBjxTVjAReE0Ax+BMiIZAP+YWoZoWgEOo/D2nVVxeQqZotVHnkgCcQ54EokAt/K1RekqFoyeAx1Ij/EZ0Pc82FQzn3Tx0baqI1GsUgL0tn0JIYRgwlRhLDiY64CR6I++PR8BoMhzvug/sOZvvVnvCE0E54RLhO6CDcnipeIPuuHhYYBzpghHBNzRnf1ozbQVZPPAQPgPyQG2fiJsAFHw0jsfEgGNsTajmazJXVf8/9txq+6brGjuJKQSnDKMEUh+89tZ20PYdYlD39tkPqXDOG+soZmvk+PuebTgvgPep7S2wRthc7gx3HzmGHsCbAwo5izdhF7LASD62ix6pVNBgtXpVPDuQR/yMeTxNT2Um5a71rt+sn9VyBsEj5fgScadIZMnGWqIDFhm9+IYsr4Y8cwXJ3dfMFQPkdUb+mXjNV3weEef6rbmE+AAEbBwYGDn7VResAsA8+Y9TOrzr7ZPg6gPqzy/gKWaFahysvBEAFOvCJMgbmwBo4wHrcgRfwB8EgDIwFsSARpIIpsMsiuJ5lYDqYBeaDUlAOloM1oApsBJvBdvAr2AOawCFwHJwGF8BlcB3chaunCzwHveAt6EcQhITQEQZijFggtogz4o74IIFIGBKNxCOpSDqShUgQBTILWYiUIyuRKmQTUof8hhxAjiPnkHbkNvIQ6UZeIR9RDKWhBqgZaoeOQn1QNhqFJqKT0Sw0Hy1GS9ClaCVai+5EG9Hj6AX0OtqBPkf7MIBpYUzMEnPBfDAOFoulYZmYDJuDlWEVWC3WgLXA//kq1oH1YB9wIs7AWbgLXMGReBLOx/PxOfgSvArfjjfiJ/Gr+EO8F/9CoBNMCc4EPwKXMIGQRZhOKCVUELYS9hNOwaepi/CWSCQyifZEb/g0phKziTOJS4jribuIx4jtxE5iH4lEMiY5kwJIsSQeqYBUSlpH2kk6SrpC6iK9J2uRLcju5HByGllCXkCuIO8gHyFfIT8l91N0KbYUP0osRUCZQVlG2UJpoVyidFH6qXpUe2oANZGaTZ1PraQ2UE9R71Ffa2lpWWn5ao3XEmvN06rU2q11Vuuh1geaPs2JxqFNoiloS2nbaMdot2mv6XS6HT2YnkYvoC+l19FP0B/Q32sztEdqc7UF2nO1q7Ubta9ov9Ch6NjqsHWm6BTrVOjs1bmk06NL0bXT5ejydOfoVuse0L2p26fH0HPTi9XL01uit0PvnN4zfZK+nX6YvkC/RH+z/gn9TgbGsGZwGHzGQsYWxilGlwHRwN6Aa5BtUG7wq0GbQa+hvuFow2TDIsNqw8OGHUyMacfkMnOZy5h7mDeYH4eZDWMPEw5bPKxh2JVh74yGGwUbCY3KjHYZXTf6aMwyDjPOMV5h3GR83wQ3cTIZbzLdZIPJKZOe4QbD/Yfzh5cN3zP8jilq6mQabzrTdLPpRdM+M3OzCDOp2TqzE2Y95kzzYPNs89XmR8y7LRgWgRZii9UWRy3+YBmy2KxcViXrJKvX0tQy0lJhucmyzbLfyt4qyWqB1S6r+9ZUax/rTOvV1q3WvTYWNuNsZtnU29yxpdj62Ips19qesX1nZ2+XYvejXZPdM3sje659sX29/T0HukOQQ75DrcM1R6Kjj2OO43rHy06ok6eTyKna6ZIz6uzlLHZe79w+gjDCd4RkRO2Imy40F7ZLoUu9y8ORzJHRIxeMbBr5YpTNqLRRK0adGfXF1dM113WL6103fbexbgvcWtxeuTu5892r3a950D3CPeZ6NHu8HO08Wjh6w+hbngzPcZ4/erZ6fvby9pJ5NXh1e9t4p3vXeN/0MfCJ81nic9aX4BviO9f3kO8HPy+/Ar89fn/5u/jn+O/wfzbGfoxwzJYxnQFWAbyATQEdgazA9MCfAzuCLIN4QbVBj4KtgwXBW4Ofsh3Z2eyd7BchriGykP0h7zh+nNmcY6FYaERoWWhbmH5YUlhV2INwq/Cs8Prw3gjPiJkRxyIJkVGRKyJvcs24fG4dt3es99jZY09G0aISoqqiHkU7RcuiW8ah48aOWzXuXoxtjCSmKRbEcmNXxd6Ps4/Ljzs4njg+bnz1+CfxbvGz4s8kMBKmJuxIeJsYkrgs8W6SQ5IiqTVZJ3lScl3yu5TQlJUpHRNGTZg94UKqSao4tTmNlJactjWtb2LYxDUTuyZ5TiqddGOy/eSiyeemmEzJnXJ4qs5U3tS96YT0lPQd6Z94sbxaXl8GN6Mmo5fP4a/lPxcEC1YLuoUBwpXCp5kBmSszn2UFZK3K6hYFiSpEPWKOuEr8Mjsye2P2u5zYnG05A7kpubvyyHnpeQck+pIcyclp5tOKprVLnaWl0o58v/w1+b2yKNlWOSKfLG8uMIAb9osKB8UPioeFgYXVhe+nJ0/fW6RXJCm6OMNpxuIZT4vDi3+Zic/kz2ydZTlr/qyHs9mzN81B5mTMaZ1rPbdkbte8iHnb51Pn58z/fYHrgpUL3ixMWdhSYlYyr6Tzh4gf6ku1S2WlN3/0/3HjInyReFHbYo/F6xZ/KROUnS93La8o/7SEv+T8T24/Vf40sDRzadsyr2UblhOXS5bfWBG0YvtKvZXFKztXjVvVuJq1umz1mzVT15yrGF2xcS11rWJtR2V0ZfM6m3XL132qElVdrw6p3lVjWrO45t16wforG4I3NGw021i+8ePP4p9vbYrY1FhrV1uxmbi5cPOTLclbzvzi80vdVpOt5Vs/b5Ns69gev/1knXdd3Q7THcvq0XpFfffOSTsv/xr6a3ODS8OmXcxd5bvBbsXuP35L/+3Gnqg9rXt99jbss91Xs5+xv6wRaZzR2NskaupoTm1uPzD2QGuLf8v+gyMPbjtkeaj6sOHhZUeoR0qODBwtPtp3THqs53jW8c7Wqa13T0w4ce3k+JNtp6JOnT0dfvrEGfaZo2cDzh4653fuwHmf800XvC40XvS8uP93z9/3t3m1NV7yvtR82fdyS/uY9iNXgq4cvxp69fQ17rUL12Out99IunHr5qSbHbcEt57dzr398k7hnf678+4R7pXd171f8cD0Qe2/HP+1q8Or4/DD0IcXHyU8utvJ73z+WP74U1fJE/qTiqcWT+ueuT871B3effmPiX90PZc+7+8p/VPvz5oXDi/2/RX818XeCb1dL2UvB14teW38etub0W9a++L6HrzNe9v/ruy98fvtH3w+nPmY8vFp//RPpE+Vnx0/t3yJ+nJvIG9gQMqT8VRbAQwONDMTgFfbAKCnAsC4DPcPE9XnPJUg6rOpCoH/hNVnQZV4AdAAb8rtOucYALvhsAuG3HAot+qJwQD18BgaGpFneriruWjwxEN4PzDw2gwAUgsAn2UDA/3rBwY+b4HJ3gbgWL76fKkUIjwb/BysRNeNBPPAd/Jvf/Z+Q5skAK0AAAAJcEhZcwAAFiUAABYlAUlSJPAAAAagSURBVHgB7VvZchNHFL2zSfIGXgBDMAazJAHnLeQxlT9I8ZIvzANV+RSqwhI2gzExi7GJF7CxlpFmyTlXGpfGlsYjMCqL6ls1pdGoe7r79Lm3Ty+yYpgYE2vp1h/HFwjLErtUFGtoSJzxcXGnJsU9c1oKMzNSuDAj3vnvxDl5UgTpvtTcL33B184fB6GIX5fo0ycJokhi35dotyzB+rq4r98AnClxJifEmZgQdxyg2PZnAXO8gYDXxo2GXlGlIrKxqY3U/keD7dFR8c6dlaH5eSnNXxdnZEQsD01ynJ7753gD0d6cJJQRHD4HO6JyWRqrawpUY3VVao+fSvHqZfEuzooLlliFQvsbMu8HB4gOzSBbwo8f9Wq8eSs2GMHvJbiPXJ5Tl7ERX/LEkIEGoh2biC6EOFK5/0Aaa2vSuHFd3WVo/kauuPHNAEFXiXEFGxvCeBIHACYIxEIscc+dU1fJYsa3A0QbPaJqVfwXLyXk6AJgRn/7FcPvSQWlGxjfJBDCgAo2hFsfxAdLVGsgwjKQ6n0baMntlwGRJWSSKJ+UxM+s9O3peN8p//40h3yni/CqFh5JHIYA4YQweFqed6Aunw8EGmW5yE4Bs9/or+iRVGOYnuN7HsGD/IKK0+ePwii+/OeueFCl7IzCpYvNurS9PB8QrUbTzyhrLbeJaDcgop0d8Zdeam8kZbEnCjPnxT5xQqwix/dushgcJpAAQqAqOURG9brErd6NdnfxLOgJpKhc0ZGkCp1hlUoq0+3h4RQYuYCwCMRQSUrXf5TxW7+LPTbWbB+edzJ/cVG2/rydAoIgMmgVr13V8b07EHwjwAibrAq3tyXY3JLGyorUl1+Jv7gkIYZJATi9WIwAWnvyVOzhIW0H2WkBjMRyAUE6WRYkLdB0MPFx0KtZFrxHr++TufxOSexMYPI0OXnARw+8jzECYDgAXecRp6bAxvMIeFek/nZFKKCC/9aboBzIfPBBTGABBpVo9cE/UvppXopzl/YS5gNiL3kfb8g2F+CNjerlnZ1Wd2Ds8ReeSfXefak+fCQRVCTdJxWPulUTLhesb0jl77vKyiKkuAZwlHV8gejQGLqoIEAXLlzQ6O9g5ll7uiDVR48xO93NBQbnJ3XMWgMwg3KcLOWcZKCAaLqope7FoZCBj41gzKCrhB+3O8CXfhQjtoS4Gmvv1U08gOoMHBDtbQI7vOkzGnPpLlWvIJW799pTZN4zvvgvluAijHlj0kEEZOY/Pj8CCKX05BRGgR8wGl1pDosY3fJYsLkp/vJrncoz/eAC0Woth8Pi3JyOJoVZxA74fB6j/KY7RZWqxpaBByJptDs9LSO/3BT3NNRjDlOhBpEW7mzr5KxvwVIXUSiM3q01e4EjQCfDY8uG2MF8QBdui1i8zbHSpCtSWIOoQjRZBU/VZ9aQSuUa+TUJt3ewBrrbv1Ej3Pkk5Tt3pLqwIDYa19W4FgnF554+JYXZWZXlLoPiIcYRhGJPF3Ox4s2hMa5DX2QZRFaEenFhuH+MgPCpr7wT6/06VGeGR0LBWljCd9GYxrtVCb+/prKcwHAprpupZAbAZAbBoF44FAgILKYLK+U+AsHZJEVPN5fY18IGQQPNOd6H5V0ZvvmzFDKASLJz/4OzTEppEax8Z1gcRwCBU/Va/4DYq0/edQakw2xDWVGFmvS43IZG0m06Tv1bBfB3VYv75jp75bffoABdLsCyXt9co738Xu7DrS3xUVG6CafxFoNnpzUQvpTaAm5ljwCsLPdLKsBOgRjjJlKGsyapj8EnKhpgc4cTJt35yqgS10g6rUB1zUIwcA0GEHQT+jICGxdtMo1s4VpDzlik/jdQQLQojO7LxAF+QyGCNF10Spfcg8GIpPKHYJAk6xEDzTZYQOy19OhvDBAtTA0QBoi0exlGGEYYRqQRMIxI42FihGGEYUQaAcOINB4mRhhGGEakETCMSONhYoRhhGFEGgHDiDQeJkYYRqQZkW/Lr7UbFNV8PejNk69ZFuLkrZ6czUrUw2/8I2KE/3VxMzjASRcb9ehoSMcDqjxpG0c4uduD5QJCK4LDmrVnz+XD7b9EeKg7w3gEmecTjsywuVP/d1kbWXv4WI8Ydn43AAMIPF3Hcw+9WC4guDfIXWP+9yH8gAYetonEs9RIf1RGdnEzmL1df/U6+7VkL8tHnl4sHxB8IwvgGYfD9h6T0pn+CE3L7eWdvaRFPfMDkTSqxwKSbEfy+RXLNsNnq4cMEAaItLMaRhhGGEakETCMSOPxP3Kt0kLga0rtAAAAAElFTkSuQmCC;" parent="1" vertex="1">
          <mxGeometry x="780" y="460.5" width="30" height="30" as="geometry"/>
        </mxCell>
        <mxCell id="Wobj9NWWxrkdj5AmO_Qd-37" value="" style="shape=image;verticalLabelPosition=bottom;labelBackgroundColor=#ffffff;verticalAlign=top;aspect=fixed;imageAspect=0;image=data:image/png,iVBORw0KGgoAAAANSUhEUgAAAEIAAABCCAYAAADjVADoAAAMR2lDQ1BJQ0MgUHJvZmlsZQAASImVVwdYU8kWnltSSWiBCEgJvYlSpEsJoUUQkCrYCEkgocSQEETsyrIKrl1EQF3RVREXXQsgduxlUez9oYjKyrpYsKHyJgV03e+9973zfXPvnzPn/Kdk7r0zAOjU8KTSXFQXgDxJgSw+IoQ1ITWNReoEFGAEdIEHADy+XMqOi4sGUAbvf5e3NwCivF91UXL9c/6/ip5AKOcDgMRBnCGQ8/Mg3gcAXsKXygoAIPpAvfX0AqkST4LYQAYThFiqxFlqXKLEGWpcqbJJjOdAvBMAMo3Hk2UBoN0M9axCfhbk0b4FsatEIJYAoEOGOJAv4gkgjoR4RF7eNCWGdsAh4xuerL9xZgxx8nhZQ1hdi0rIoWK5NJc34/9sx/+WvFzFYAw7OGgiWWS8smbYt1s506KUmAZxjyQjJhZifYjfiwUqe4hRqkgRmaS2R035cg7sGWBC7CrghUZBbApxuCQ3Jlqjz8gUh3MhhisELRIXcBM1vouE8rAEDWeNbFp87CDOlHHYGt8GnkwVV2l/UpGTxNbw3xIJuYP8b4pFiSnqnDFqoTg5BmJtiJnynIQotQ1mUyzixAzayBTxyvxtIPYTSiJC1PzYlExZeLzGXpYnH6wXWyQSc2M0uKpAlBip4dnJ56nyN4K4WShhJw3yCOUTogdrEQhDw9S1Y5eFkiRNvViHtCAkXuP7Spobp7HHqcLcCKXeCmJTeWGCxhcPLIALUs2Px0gL4hLVeeIZ2byxcep88CIQDTggFLCAAo4MMA1kA3FbT1MP/KWeCQc8IANZQAhcNJpBjxTVjAReE0Ax+BMiIZAP+YWoZoWgEOo/D2nVVxeQqZotVHnkgCcQ54EokAt/K1RekqFoyeAx1Ij/EZ0Pc82FQzn3Tx0baqI1GsUgL0tn0JIYRgwlRhLDiY64CR6I++PR8BoMhzvug/sOZvvVnvCE0E54RLhO6CDcnipeIPuuHhYYBzpghHBNzRnf1ozbQVZPPAQPgPyQG2fiJsAFHw0jsfEgGNsTajmazJXVf8/9txq+6brGjuJKQSnDKMEUh+89tZ20PYdYlD39tkPqXDOG+soZmvk+PuebTgvgPep7S2wRthc7gx3HzmGHsCbAwo5izdhF7LASD62ix6pVNBgtXpVPDuQR/yMeTxNT2Um5a71rt+sn9VyBsEj5fgScadIZMnGWqIDFhm9+IYsr4Y8cwXJ3dfMFQPkdUb+mXjNV3weEef6rbmE+AAEbBwYGDn7VResAsA8+Y9TOrzr7ZPg6gPqzy/gKWaFahysvBEAFOvCJMgbmwBo4wHrcgRfwB8EgDIwFsSARpIIpsMsiuJ5lYDqYBeaDUlAOloM1oApsBJvBdvAr2AOawCFwHJwGF8BlcB3chaunCzwHveAt6EcQhITQEQZijFggtogz4o74IIFIGBKNxCOpSDqShUgQBTILWYiUIyuRKmQTUof8hhxAjiPnkHbkNvIQ6UZeIR9RDKWhBqgZaoeOQn1QNhqFJqKT0Sw0Hy1GS9ClaCVai+5EG9Hj6AX0OtqBPkf7MIBpYUzMEnPBfDAOFoulYZmYDJuDlWEVWC3WgLXA//kq1oH1YB9wIs7AWbgLXMGReBLOx/PxOfgSvArfjjfiJ/Gr+EO8F/9CoBNMCc4EPwKXMIGQRZhOKCVUELYS9hNOwaepi/CWSCQyifZEb/g0phKziTOJS4jribuIx4jtxE5iH4lEMiY5kwJIsSQeqYBUSlpH2kk6SrpC6iK9J2uRLcju5HByGllCXkCuIO8gHyFfIT8l91N0KbYUP0osRUCZQVlG2UJpoVyidFH6qXpUe2oANZGaTZ1PraQ2UE9R71Ffa2lpWWn5ao3XEmvN06rU2q11Vuuh1geaPs2JxqFNoiloS2nbaMdot2mv6XS6HT2YnkYvoC+l19FP0B/Q32sztEdqc7UF2nO1q7Ubta9ov9Ch6NjqsHWm6BTrVOjs1bmk06NL0bXT5ejydOfoVuse0L2p26fH0HPTi9XL01uit0PvnN4zfZK+nX6YvkC/RH+z/gn9TgbGsGZwGHzGQsYWxilGlwHRwN6Aa5BtUG7wq0GbQa+hvuFow2TDIsNqw8OGHUyMacfkMnOZy5h7mDeYH4eZDWMPEw5bPKxh2JVh74yGGwUbCY3KjHYZXTf6aMwyDjPOMV5h3GR83wQ3cTIZbzLdZIPJKZOe4QbD/Yfzh5cN3zP8jilq6mQabzrTdLPpRdM+M3OzCDOp2TqzE2Y95kzzYPNs89XmR8y7LRgWgRZii9UWRy3+YBmy2KxcViXrJKvX0tQy0lJhucmyzbLfyt4qyWqB1S6r+9ZUax/rTOvV1q3WvTYWNuNsZtnU29yxpdj62Ips19qesX1nZ2+XYvejXZPdM3sje659sX29/T0HukOQQ75DrcM1R6Kjj2OO43rHy06ok6eTyKna6ZIz6uzlLHZe79w+gjDCd4RkRO2Imy40F7ZLoUu9y8ORzJHRIxeMbBr5YpTNqLRRK0adGfXF1dM113WL6103fbexbgvcWtxeuTu5892r3a950D3CPeZ6NHu8HO08Wjh6w+hbngzPcZ4/erZ6fvby9pJ5NXh1e9t4p3vXeN/0MfCJ81nic9aX4BviO9f3kO8HPy+/Ar89fn/5u/jn+O/wfzbGfoxwzJYxnQFWAbyATQEdgazA9MCfAzuCLIN4QbVBj4KtgwXBW4Ofsh3Z2eyd7BchriGykP0h7zh+nNmcY6FYaERoWWhbmH5YUlhV2INwq/Cs8Prw3gjPiJkRxyIJkVGRKyJvcs24fG4dt3es99jZY09G0aISoqqiHkU7RcuiW8ah48aOWzXuXoxtjCSmKRbEcmNXxd6Ps4/Ljzs4njg+bnz1+CfxbvGz4s8kMBKmJuxIeJsYkrgs8W6SQ5IiqTVZJ3lScl3yu5TQlJUpHRNGTZg94UKqSao4tTmNlJactjWtb2LYxDUTuyZ5TiqddGOy/eSiyeemmEzJnXJ4qs5U3tS96YT0lPQd6Z94sbxaXl8GN6Mmo5fP4a/lPxcEC1YLuoUBwpXCp5kBmSszn2UFZK3K6hYFiSpEPWKOuEr8Mjsye2P2u5zYnG05A7kpubvyyHnpeQck+pIcyclp5tOKprVLnaWl0o58v/w1+b2yKNlWOSKfLG8uMIAb9osKB8UPioeFgYXVhe+nJ0/fW6RXJCm6OMNpxuIZT4vDi3+Zic/kz2ydZTlr/qyHs9mzN81B5mTMaZ1rPbdkbte8iHnb51Pn58z/fYHrgpUL3ixMWdhSYlYyr6Tzh4gf6ku1S2WlN3/0/3HjInyReFHbYo/F6xZ/KROUnS93La8o/7SEv+T8T24/Vf40sDRzadsyr2UblhOXS5bfWBG0YvtKvZXFKztXjVvVuJq1umz1mzVT15yrGF2xcS11rWJtR2V0ZfM6m3XL132qElVdrw6p3lVjWrO45t16wforG4I3NGw021i+8ePP4p9vbYrY1FhrV1uxmbi5cPOTLclbzvzi80vdVpOt5Vs/b5Ns69gev/1knXdd3Q7THcvq0XpFfffOSTsv/xr6a3ODS8OmXcxd5bvBbsXuP35L/+3Gnqg9rXt99jbss91Xs5+xv6wRaZzR2NskaupoTm1uPzD2QGuLf8v+gyMPbjtkeaj6sOHhZUeoR0qODBwtPtp3THqs53jW8c7Wqa13T0w4ce3k+JNtp6JOnT0dfvrEGfaZo2cDzh4653fuwHmf800XvC40XvS8uP93z9/3t3m1NV7yvtR82fdyS/uY9iNXgq4cvxp69fQ17rUL12Out99IunHr5qSbHbcEt57dzr398k7hnf678+4R7pXd171f8cD0Qe2/HP+1q8Or4/DD0IcXHyU8utvJ73z+WP74U1fJE/qTiqcWT+ueuT871B3effmPiX90PZc+7+8p/VPvz5oXDi/2/RX818XeCb1dL2UvB14teW38etub0W9a++L6HrzNe9v/ruy98fvtH3w+nPmY8vFp//RPpE+Vnx0/t3yJ+nJvIG9gQMqT8VRbAQwONDMTgFfbAKCnAsC4DPcPE9XnPJUg6rOpCoH/hNVnQZV4AdAAb8rtOucYALvhsAuG3HAot+qJwQD18BgaGpFneriruWjwxEN4PzDw2gwAUgsAn2UDA/3rBwY+b4HJ3gbgWL76fKkUIjwb/BysRNeNBPPAd/Jvf/Z+Q5skAK0AAAAJcEhZcwAAFiUAABYlAUlSJPAAAAagSURBVHgB7VvZchNHFL2zSfIGXgBDMAazJAHnLeQxlT9I8ZIvzANV+RSqwhI2gzExi7GJF7CxlpFmyTlXGpfGlsYjMCqL6ls1pdGoe7r79Lm3Ty+yYpgYE2vp1h/HFwjLErtUFGtoSJzxcXGnJsU9c1oKMzNSuDAj3vnvxDl5UgTpvtTcL33B184fB6GIX5fo0ycJokhi35dotyzB+rq4r98AnClxJifEmZgQdxyg2PZnAXO8gYDXxo2GXlGlIrKxqY3U/keD7dFR8c6dlaH5eSnNXxdnZEQsD01ynJ7753gD0d6cJJQRHD4HO6JyWRqrawpUY3VVao+fSvHqZfEuzooLlliFQvsbMu8HB4gOzSBbwo8f9Wq8eSs2GMHvJbiPXJ5Tl7ERX/LEkIEGoh2biC6EOFK5/0Aaa2vSuHFd3WVo/kauuPHNAEFXiXEFGxvCeBIHACYIxEIscc+dU1fJYsa3A0QbPaJqVfwXLyXk6AJgRn/7FcPvSQWlGxjfJBDCgAo2hFsfxAdLVGsgwjKQ6n0baMntlwGRJWSSKJ+UxM+s9O3peN8p//40h3yni/CqFh5JHIYA4YQweFqed6Aunw8EGmW5yE4Bs9/or+iRVGOYnuN7HsGD/IKK0+ePwii+/OeueFCl7IzCpYvNurS9PB8QrUbTzyhrLbeJaDcgop0d8Zdeam8kZbEnCjPnxT5xQqwix/dushgcJpAAQqAqOURG9brErd6NdnfxLOgJpKhc0ZGkCp1hlUoq0+3h4RQYuYCwCMRQSUrXf5TxW7+LPTbWbB+edzJ/cVG2/rydAoIgMmgVr13V8b07EHwjwAibrAq3tyXY3JLGyorUl1+Jv7gkIYZJATi9WIwAWnvyVOzhIW0H2WkBjMRyAUE6WRYkLdB0MPFx0KtZFrxHr++TufxOSexMYPI0OXnARw+8jzECYDgAXecRp6bAxvMIeFek/nZFKKCC/9aboBzIfPBBTGABBpVo9cE/UvppXopzl/YS5gNiL3kfb8g2F+CNjerlnZ1Wd2Ds8ReeSfXefak+fCQRVCTdJxWPulUTLhesb0jl77vKyiKkuAZwlHV8gejQGLqoIEAXLlzQ6O9g5ll7uiDVR48xO93NBQbnJ3XMWgMwg3KcLOWcZKCAaLqope7FoZCBj41gzKCrhB+3O8CXfhQjtoS4Gmvv1U08gOoMHBDtbQI7vOkzGnPpLlWvIJW799pTZN4zvvgvluAijHlj0kEEZOY/Pj8CCKX05BRGgR8wGl1pDosY3fJYsLkp/vJrncoz/eAC0Woth8Pi3JyOJoVZxA74fB6j/KY7RZWqxpaBByJptDs9LSO/3BT3NNRjDlOhBpEW7mzr5KxvwVIXUSiM3q01e4EjQCfDY8uG2MF8QBdui1i8zbHSpCtSWIOoQjRZBU/VZ9aQSuUa+TUJt3ewBrrbv1Ej3Pkk5Tt3pLqwIDYa19W4FgnF554+JYXZWZXlLoPiIcYRhGJPF3Ox4s2hMa5DX2QZRFaEenFhuH+MgPCpr7wT6/06VGeGR0LBWljCd9GYxrtVCb+/prKcwHAprpupZAbAZAbBoF44FAgILKYLK+U+AsHZJEVPN5fY18IGQQPNOd6H5V0ZvvmzFDKASLJz/4OzTEppEax8Z1gcRwCBU/Va/4DYq0/edQakw2xDWVGFmvS43IZG0m06Tv1bBfB3VYv75jp75bffoABdLsCyXt9co738Xu7DrS3xUVG6CafxFoNnpzUQvpTaAm5ljwCsLPdLKsBOgRjjJlKGsyapj8EnKhpgc4cTJt35yqgS10g6rUB1zUIwcA0GEHQT+jICGxdtMo1s4VpDzlik/jdQQLQojO7LxAF+QyGCNF10Spfcg8GIpPKHYJAk6xEDzTZYQOy19OhvDBAtTA0QBoi0exlGGEYYRqQRMIxI42FihGGEYUQaAcOINB4mRhhGGEakETCMSONhYoRhhGFEGgHDiDQeJkYYRqQZkW/Lr7UbFNV8PejNk69ZFuLkrZ6czUrUw2/8I2KE/3VxMzjASRcb9ehoSMcDqjxpG0c4uduD5QJCK4LDmrVnz+XD7b9EeKg7w3gEmecTjsywuVP/d1kbWXv4WI8Ydn43AAMIPF3Hcw+9WC4guDfIXWP+9yH8gAYetonEs9RIf1RGdnEzmL1df/U6+7VkL8tHnl4sHxB8IwvgGYfD9h6T0pn+CE3L7eWdvaRFPfMDkTSqxwKSbEfy+RXLNsNnq4cMEAaItLMaRhhGGEakETCMSOPxP3Kt0kLga0rtAAAAAElFTkSuQmCC;" parent="1" vertex="1">
          <mxGeometry x="509" y="204" width="46" height="46" as="geometry"/>
        </mxCell>
        <mxCell id="Wobj9NWWxrkdj5AmO_Qd-38" value="" style="strokeColor=#dddddd;fillColor=#ffffff;shadow=1;strokeWidth=1;rounded=1;absoluteArcSize=1;arcSize=2;" parent="1" vertex="1">
          <mxGeometry x="603" y="320" width="120" height="60" as="geometry"/>
        </mxCell>
        <mxCell id="Wobj9NWWxrkdj5AmO_Qd-39" value="&lt;font color=&quot;#000000&quot;&gt;&lt;span&gt;SSO&lt;/span&gt;&lt;/font&gt;&lt;br&gt;Cloud IAM" style="dashed=0;connectable=0;html=1;fillColor=#5184F3;strokeColor=none;shape=mxgraph.gcp2.hexIcon;prIcon=cloud_iam;part=1;labelPosition=right;verticalLabelPosition=middle;align=left;verticalAlign=middle;spacingLeft=5;fontColor=#999999;fontSize=12;" parent="Wobj9NWWxrkdj5AmO_Qd-38" vertex="1">
          <mxGeometry y="0.5" width="44" height="39" relative="1" as="geometry">
            <mxPoint x="5" y="-19.5" as="offset"/>
          </mxGeometry>
        </mxCell>
        <mxCell id="Wobj9NWWxrkdj5AmO_Qd-40" value="权限隔离" style="points=[[0,0,0],[0.25,0,0],[0.5,0,0],[0.75,0,0],[1,0,0],[1,0.25,0],[1,0.5,0],[1,0.75,0],[1,1,0],[0.75,1,0],[0.5,1,0],[0.25,1,0],[0,1,0],[0,0.75,0],[0,0.5,0],[0,0.25,0]];rounded=1;absoluteArcSize=1;arcSize=2;html=1;strokeColor=none;gradientColor=none;shadow=0;dashed=0;fontSize=12;fontColor=#9E9E9E;align=left;verticalAlign=top;spacing=10;spacingTop=-4;fillColor=#E0F2F1;" parent="1" vertex="1">
          <mxGeometry x="520" y="461" width="159" height="480" as="geometry"/>
        </mxCell>
        <mxCell id="Wobj9NWWxrkdj5AmO_Qd-41" value="" style="strokeColor=#dddddd;fillColor=#ffffff;shadow=1;strokeWidth=1;rounded=1;absoluteArcSize=1;arcSize=2;" parent="1" vertex="1">
          <mxGeometry x="530.5" y="660" width="138" height="60" as="geometry"/>
        </mxCell>
        <mxCell id="Wobj9NWWxrkdj5AmO_Qd-42" value="&lt;br&gt;&lt;font color=&quot;#000000&quot;&gt;权限认证中心&lt;/font&gt;&lt;br&gt;Cloud Security" style="dashed=0;connectable=0;html=1;fillColor=#5184F3;strokeColor=none;shape=mxgraph.gcp2.hexIcon;prIcon=cloud_security_command_center;part=1;labelPosition=right;verticalLabelPosition=middle;align=left;verticalAlign=middle;spacingLeft=5;fontColor=#999999;fontSize=12;" parent="Wobj9NWWxrkdj5AmO_Qd-41" vertex="1">
          <mxGeometry y="0.5" width="44" height="39" relative="1" as="geometry">
            <mxPoint x="5" y="-19.5" as="offset"/>
          </mxGeometry>
        </mxCell>
        <mxCell id="Wobj9NWWxrkdj5AmO_Qd-43" value="" style="points=[[0,0,0],[0.25,0,0],[0.5,0,0],[0.75,0,0],[1,0,0],[1,0.25,0],[1,0.5,0],[1,0.75,0],[1,1,0],[0.75,1,0],[0.5,1,0],[0.25,1,0],[0,1,0],[0,0.75,0],[0,0.5,0],[0,0.25,0]];rounded=1;absoluteArcSize=1;arcSize=2;html=1;strokeColor=none;gradientColor=none;shadow=0;dashed=0;fontSize=12;fontColor=#9E9E9E;align=left;verticalAlign=top;spacing=10;spacingTop=-4;fillColor=#E0F2F1;" parent="1" vertex="1">
          <mxGeometry x="520" y="977" width="159" height="483" as="geometry"/>
        </mxCell>
        <mxCell id="Wobj9NWWxrkdj5AmO_Qd-44" value="" style="strokeColor=#dddddd;fillColor=#ffffff;shadow=1;strokeWidth=1;rounded=1;absoluteArcSize=1;arcSize=2;fontColor=#000000;" parent="1" vertex="1">
          <mxGeometry x="861" y="320" width="130" height="60" as="geometry"/>
        </mxCell>
        <mxCell id="Wobj9NWWxrkdj5AmO_Qd-45" value="&lt;font color=&quot;#000000&quot;&gt;实名认证&lt;/font&gt;&lt;br&gt;Security Key" style="dashed=0;connectable=0;html=1;fillColor=#5184F3;strokeColor=none;shape=mxgraph.gcp2.hexIcon;prIcon=security_key_enforcement;part=1;labelPosition=right;verticalLabelPosition=middle;align=left;verticalAlign=middle;spacingLeft=5;fontColor=#999999;fontSize=12;" parent="Wobj9NWWxrkdj5AmO_Qd-44" vertex="1">
          <mxGeometry y="0.5" width="44" height="39" relative="1" as="geometry">
            <mxPoint x="5" y="-19.5" as="offset"/>
          </mxGeometry>
        </mxCell>
        <mxCell id="Wobj9NWWxrkdj5AmO_Qd-46" value="Users" style="strokeColor=#dddddd;fillColor=#ffffff;shadow=1;strokeWidth=1;rounded=1;absoluteArcSize=1;arcSize=2;labelPosition=center;verticalLabelPosition=middle;align=center;verticalAlign=bottom;spacingLeft=0;fontColor=#999999;fontSize=12;whiteSpace=wrap;spacingBottom=2;" parent="1" vertex="1">
          <mxGeometry x="400" y="307.5" width="70" height="85" as="geometry"/>
        </mxCell>
        <mxCell id="Wobj9NWWxrkdj5AmO_Qd-47" value="" style="dashed=0;connectable=0;html=1;fillColor=#757575;strokeColor=none;shape=mxgraph.gcp2.users;part=1;" parent="Wobj9NWWxrkdj5AmO_Qd-46" vertex="1">
          <mxGeometry x="0.5" width="50" height="31.5" relative="1" as="geometry">
            <mxPoint x="-25" y="19.25" as="offset"/>
          </mxGeometry>
        </mxCell>
        <mxCell id="Wobj9NWWxrkdj5AmO_Qd-48" value="Desktop and Mobile" style="strokeColor=#dddddd;fillColor=#ffffff;shadow=1;strokeWidth=1;rounded=1;absoluteArcSize=1;arcSize=2;labelPosition=center;verticalLabelPosition=middle;align=center;verticalAlign=bottom;spacingLeft=0;fontColor=#999999;fontSize=12;whiteSpace=wrap;spacingBottom=2;" parent="1" vertex="1">
          <mxGeometry x="1269" y="150" width="70" height="100" as="geometry"/>
        </mxCell>
        <mxCell id="Wobj9NWWxrkdj5AmO_Qd-49" value="" style="dashed=0;connectable=0;html=1;fillColor=#757575;strokeColor=none;shape=mxgraph.gcp2.desktop_and_mobile;part=1;" parent="Wobj9NWWxrkdj5AmO_Qd-48" vertex="1">
          <mxGeometry x="0.5" width="50" height="33" relative="1" as="geometry">
            <mxPoint x="-25" y="18.5" as="offset"/>
          </mxGeometry>
        </mxCell>
        <mxCell id="Wobj9NWWxrkdj5AmO_Qd-50" value="" style="strokeColor=#dddddd;fillColor=#ffffff;shadow=1;strokeWidth=1;rounded=1;absoluteArcSize=1;arcSize=2;fontColor=#000000;" parent="1" vertex="1">
          <mxGeometry x="1129" y="320" width="180" height="60" as="geometry"/>
        </mxCell>
        <mxCell id="Wobj9NWWxrkdj5AmO_Qd-51" value="&lt;font color=&quot;#000000&quot;&gt;&lt;span&gt;资质审查&lt;/span&gt;&lt;/font&gt;&lt;br&gt;Identity-Aware Proxy" style="dashed=0;connectable=0;html=1;fillColor=#5184F3;strokeColor=none;shape=mxgraph.gcp2.hexIcon;prIcon=identity_aware_proxy;part=1;labelPosition=right;verticalLabelPosition=middle;align=left;verticalAlign=middle;spacingLeft=5;fontColor=#999999;fontSize=12;" parent="Wobj9NWWxrkdj5AmO_Qd-50" vertex="1">
          <mxGeometry y="0.5" width="44" height="39" relative="1" as="geometry">
            <mxPoint x="5" y="-19.5" as="offset"/>
          </mxGeometry>
        </mxCell>
        <mxCell id="Wobj9NWWxrkdj5AmO_Qd-52" value="" style="strokeColor=#dddddd;fillColor=#ffffff;shadow=1;strokeWidth=1;rounded=1;absoluteArcSize=1;arcSize=2;fontColor=#000000;" parent="1" vertex="1">
          <mxGeometry x="542" y="1134" width="119" height="44" as="geometry"/>
        </mxCell>
        <mxCell id="Wobj9NWWxrkdj5AmO_Qd-53" value="Cache" style="dashed=0;connectable=0;html=1;fillColor=#757575;strokeColor=none;shape=mxgraph.gcp2.memcache;part=1;labelPosition=right;verticalLabelPosition=middle;align=left;verticalAlign=middle;spacingLeft=5;fontColor=#000000;fontSize=12;" parent="Wobj9NWWxrkdj5AmO_Qd-52" vertex="1">
          <mxGeometry y="0.5" width="32" height="32" relative="1" as="geometry">
            <mxPoint x="5" y="-16" as="offset"/>
          </mxGeometry>
        </mxCell>
        <mxCell id="Wobj9NWWxrkdj5AmO_Qd-54" value="" style="strokeColor=#dddddd;fillColor=#ffffff;shadow=1;strokeWidth=1;rounded=1;absoluteArcSize=1;arcSize=2;fontColor=#000000;" parent="1" vertex="1">
          <mxGeometry x="541" y="1053" width="119" height="44" as="geometry"/>
        </mxCell>
        <mxCell id="Wobj9NWWxrkdj5AmO_Qd-55" value="Gateway" style="dashed=0;connectable=0;html=1;fillColor=#757575;strokeColor=none;shape=mxgraph.gcp2.gateway;part=1;labelPosition=right;verticalLabelPosition=middle;align=left;verticalAlign=middle;spacingLeft=5;fontColor=#000000;fontSize=12;" parent="Wobj9NWWxrkdj5AmO_Qd-54" vertex="1">
          <mxGeometry y="0.5" width="32" height="32" relative="1" as="geometry">
            <mxPoint x="5" y="-16" as="offset"/>
          </mxGeometry>
        </mxCell>
        <mxCell id="Wobj9NWWxrkdj5AmO_Qd-56" value="BigQuery" style="html=1;fillColor=#5184F3;strokeColor=none;verticalAlign=top;labelPosition=center;verticalLabelPosition=bottom;align=center;spacingTop=-6;fontSize=11;fontStyle=1;fontColor=#999999;shape=mxgraph.gcp2.hexIcon;prIcon=bigquery" parent="1" vertex="1">
          <mxGeometry x="1400" y="1127" width="66" height="58.5" as="geometry"/>
        </mxCell>
        <mxCell id="Wobj9NWWxrkdj5AmO_Qd-57" value="Cloud&#xa;Dataflow" style="html=1;fillColor=#5184F3;strokeColor=none;verticalAlign=top;labelPosition=center;verticalLabelPosition=bottom;align=center;spacingTop=-6;fontSize=11;fontStyle=1;fontColor=#999999;shape=mxgraph.gcp2.hexIcon;prIcon=cloud_dataflow" parent="1" vertex="1">
          <mxGeometry x="1400" y="1240" width="66" height="58.5" as="geometry"/>
        </mxCell>
        <mxCell id="Wobj9NWWxrkdj5AmO_Qd-58" value="Cloud&#xa;Pub/Sub" style="html=1;fillColor=#5184F3;strokeColor=none;verticalAlign=top;labelPosition=center;verticalLabelPosition=bottom;align=center;spacingTop=-6;fontSize=11;fontStyle=1;fontColor=#999999;shape=mxgraph.gcp2.hexIcon;prIcon=cloud_pubsub" parent="1" vertex="1">
          <mxGeometry x="1400" y="1362" width="66" height="58.5" as="geometry"/>
        </mxCell>
        <mxCell id="Wobj9NWWxrkdj5AmO_Qd-59" value="Cloud Data Catalog" style="html=1;fillColor=#5184F3;strokeColor=none;verticalAlign=top;labelPosition=center;verticalLabelPosition=bottom;align=center;spacingTop=-6;fontSize=11;fontStyle=1;fontColor=#999999;shape=mxgraph.gcp2.hexIcon;prIcon=cloud_data_catalog" parent="1" vertex="1">
          <mxGeometry x="1400" y="1016.5" width="66" height="58.5" as="geometry"/>
        </mxCell>
        <mxCell id="Wobj9NWWxrkdj5AmO_Qd-60" value="" style="strokeColor=#dddddd;fillColor=#ffffff;shadow=1;strokeWidth=1;rounded=1;absoluteArcSize=1;arcSize=2;fontColor=#000000;" parent="1" vertex="1">
          <mxGeometry x="541.5" y="1217" width="119" height="44" as="geometry"/>
        </mxCell>
        <mxCell id="Wobj9NWWxrkdj5AmO_Qd-61" value="Logs API" style="dashed=0;connectable=0;html=1;fillColor=#757575;strokeColor=none;shape=mxgraph.gcp2.logs_api;part=1;labelPosition=right;verticalLabelPosition=middle;align=left;verticalAlign=middle;spacingLeft=5;fontColor=#000000;fontSize=12;" parent="Wobj9NWWxrkdj5AmO_Qd-60" vertex="1">
          <mxGeometry y="0.5" width="32" height="32" relative="1" as="geometry">
            <mxPoint x="5" y="-16" as="offset"/>
          </mxGeometry>
        </mxCell>
        <mxCell id="Wobj9NWWxrkdj5AmO_Qd-62" value="" style="strokeColor=#dddddd;fillColor=#ffffff;shadow=1;strokeWidth=1;rounded=1;absoluteArcSize=1;arcSize=2;fontColor=#000000;" parent="1" vertex="1">
          <mxGeometry x="541" y="1297" width="119" height="44" as="geometry"/>
        </mxCell>
        <mxCell id="Wobj9NWWxrkdj5AmO_Qd-63" value="Squid Proxy" style="dashed=0;connectable=0;html=1;fillColor=#757575;strokeColor=none;shape=mxgraph.gcp2.squid_proxy;part=1;labelPosition=right;verticalLabelPosition=middle;align=left;verticalAlign=middle;spacingLeft=5;fontColor=#000000;fontSize=12;" parent="Wobj9NWWxrkdj5AmO_Qd-62" vertex="1">
          <mxGeometry y="0.5" width="32" height="32" relative="1" as="geometry">
            <mxPoint x="5" y="-16" as="offset"/>
          </mxGeometry>
        </mxCell>
        <mxCell id="Wobj9NWWxrkdj5AmO_Qd-64" value="" style="strokeColor=#dddddd;fillColor=#ffffff;shadow=1;strokeWidth=1;rounded=1;absoluteArcSize=1;arcSize=2;fontColor=#000000;" parent="1" vertex="1">
          <mxGeometry x="540.5" y="1376.5" width="120" height="44" as="geometry"/>
        </mxCell>
        <mxCell id="Wobj9NWWxrkdj5AmO_Qd-65" value="Cluster" style="dashed=0;connectable=0;html=1;fillColor=#757575;strokeColor=none;shape=mxgraph.gcp2.cluster;part=1;labelPosition=right;verticalLabelPosition=middle;align=left;verticalAlign=middle;spacingLeft=5;fontColor=#000000;fontSize=12;" parent="Wobj9NWWxrkdj5AmO_Qd-64" vertex="1">
          <mxGeometry y="0.5" width="32" height="32" relative="1" as="geometry">
            <mxPoint x="5" y="-16" as="offset"/>
          </mxGeometry>
        </mxCell>
        <mxCell id="Wobj9NWWxrkdj5AmO_Qd-66" value="" style="edgeStyle=orthogonalEdgeStyle;fontSize=12;html=1;endArrow=blockThin;endFill=1;rounded=0;strokeWidth=2;endSize=4;startSize=4;strokeColor=#34A853;dashed=0;" parent="1" edge="1">
          <mxGeometry width="100" relative="1" as="geometry">
            <mxPoint x="681" y="1210" as="sourcePoint"/>
            <mxPoint x="761" y="1210" as="targetPoint"/>
          </mxGeometry>
        </mxCell>
        <mxCell id="Wobj9NWWxrkdj5AmO_Qd-67" value="" style="edgeStyle=orthogonalEdgeStyle;fontSize=12;html=1;endArrow=blockThin;endFill=1;rounded=0;strokeWidth=2;endSize=4;startSize=4;dashed=0;strokeColor=#4284F3;" parent="1" edge="1">
          <mxGeometry width="100" relative="1" as="geometry">
            <mxPoint x="320" y="567" as="sourcePoint"/>
            <mxPoint x="420" y="567" as="targetPoint"/>
          </mxGeometry>
        </mxCell>
        <mxCell id="Wobj9NWWxrkdj5AmO_Qd-68" value="Primary Path" style="text;html=1;resizable=0;points=[];align=center;verticalAlign=middle;labelBackgroundColor=#ffffff;fontColor=#000000;" parent="Wobj9NWWxrkdj5AmO_Qd-67" vertex="1" connectable="0">
          <mxGeometry x="-0.2" y="-1" relative="1" as="geometry">
            <mxPoint y="-11" as="offset"/>
          </mxGeometry>
        </mxCell>
        <mxCell id="Wobj9NWWxrkdj5AmO_Qd-69" value="" style="edgeStyle=orthogonalEdgeStyle;fontSize=12;html=1;endArrow=blockThin;endFill=1;rounded=0;strokeWidth=2;endSize=4;startSize=4;strokeColor=#EA4335;dashed=0;" parent="1" edge="1">
          <mxGeometry width="100" relative="1" as="geometry">
            <mxPoint x="320" y="597" as="sourcePoint"/>
            <mxPoint x="420" y="597" as="targetPoint"/>
          </mxGeometry>
        </mxCell>
        <mxCell id="Wobj9NWWxrkdj5AmO_Qd-70" value="" style="edgeStyle=orthogonalEdgeStyle;fontSize=12;html=1;endArrow=blockThin;endFill=1;rounded=0;strokeWidth=2;endSize=4;startSize=4;strokeColor=#34A853;dashed=0;" parent="1" edge="1">
          <mxGeometry width="100" relative="1" as="geometry">
            <mxPoint x="320" y="632" as="sourcePoint"/>
            <mxPoint x="420" y="632" as="targetPoint"/>
          </mxGeometry>
        </mxCell>
        <mxCell id="Wobj9NWWxrkdj5AmO_Qd-71" value="Success Status" style="text;html=1;resizable=0;points=[];autosize=1;align=left;verticalAlign=top;spacingTop=-4;fontColor=#000000;" parent="1" vertex="1">
          <mxGeometry x="320" y="612" width="100" height="20" as="geometry"/>
        </mxCell>
        <mxCell id="Wobj9NWWxrkdj5AmO_Qd-72" value="Failure Status" style="text;html=1;resizable=0;points=[];autosize=1;align=left;verticalAlign=top;spacingTop=-4;fontColor=#000000;" parent="1" vertex="1">
          <mxGeometry x="325" y="582" width="90" height="20" as="geometry"/>
        </mxCell>
        <mxCell id="Wobj9NWWxrkdj5AmO_Qd-73" value="" style="edgeStyle=orthogonalEdgeStyle;fontSize=12;html=1;endArrow=blockThin;endFill=1;rounded=0;strokeWidth=2;endSize=4;startSize=4;dashed=0;strokeColor=#4284F3;entryX=0;entryY=0.5;entryDx=0;entryDy=0;" parent="1" target="Wobj9NWWxrkdj5AmO_Qd-38" edge="1">
          <mxGeometry width="100" relative="1" as="geometry">
            <mxPoint x="470" y="350" as="sourcePoint"/>
            <mxPoint x="570" y="350" as="targetPoint"/>
          </mxGeometry>
        </mxCell>
        <mxCell id="Wobj9NWWxrkdj5AmO_Qd-74" value="login" style="text;html=1;resizable=0;points=[];align=center;verticalAlign=middle;labelBackgroundColor=#ffffff;fontColor=#000000;" parent="Wobj9NWWxrkdj5AmO_Qd-73" vertex="1" connectable="0">
          <mxGeometry x="-0.2" y="-1" relative="1" as="geometry">
            <mxPoint x="8.5" y="-11" as="offset"/>
          </mxGeometry>
        </mxCell>
        <mxCell id="Wobj9NWWxrkdj5AmO_Qd-75" value="" style="edgeStyle=orthogonalEdgeStyle;fontSize=12;html=1;endArrow=blockThin;endFill=1;rounded=0;strokeWidth=2;endSize=4;startSize=4;strokeColor=#34A853;dashed=0;exitX=0.5;exitY=1;exitDx=0;exitDy=0;entryX=0.75;entryY=0;entryDx=0;entryDy=0;entryPerimeter=0;" parent="1" source="Wobj9NWWxrkdj5AmO_Qd-38" target="Wobj9NWWxrkdj5AmO_Qd-40" edge="1">
          <mxGeometry width="100" relative="1" as="geometry">
            <mxPoint x="661" y="387.5" as="sourcePoint"/>
            <mxPoint x="639" y="427.5" as="targetPoint"/>
          </mxGeometry>
        </mxCell>
        <mxCell id="Wobj9NWWxrkdj5AmO_Qd-76" value="&lt;span style=&quot;font-size: 11px ; text-align: center ; background-color: rgb(255 , 255 , 255)&quot;&gt;access&lt;/span&gt;" style="text;html=1;resizable=0;points=[];autosize=1;align=left;verticalAlign=top;spacingTop=-4;fontColor=#000000;" parent="1" vertex="1">
          <mxGeometry x="619.5" y="407.5" width="50" height="20" as="geometry"/>
        </mxCell>
        <mxCell id="Wobj9NWWxrkdj5AmO_Qd-77" value="" style="edgeStyle=orthogonalEdgeStyle;fontSize=12;html=1;endArrow=blockThin;endFill=1;rounded=0;strokeWidth=2;endSize=4;startSize=4;strokeColor=#34A853;dashed=0;" parent="1" edge="1">
          <mxGeometry width="100" relative="1" as="geometry">
            <mxPoint x="679" y="701" as="sourcePoint"/>
            <mxPoint x="760" y="701" as="targetPoint"/>
          </mxGeometry>
        </mxCell>
        <mxCell id="Wobj9NWWxrkdj5AmO_Qd-78" value="getway" style="text;html=1;resizable=0;points=[];align=center;verticalAlign=middle;labelBackgroundColor=#ffffff;fontColor=#000000;" parent="Wobj9NWWxrkdj5AmO_Qd-77" vertex="1" connectable="0">
          <mxGeometry x="-0.1358" relative="1" as="geometry">
            <mxPoint x="-1" y="-11" as="offset"/>
          </mxGeometry>
        </mxCell>
        <mxCell id="Wobj9NWWxrkdj5AmO_Qd-79" value="" style="strokeColor=#dddddd;fillColor=#ffffff;shadow=1;strokeWidth=1;rounded=1;absoluteArcSize=1;arcSize=2;fontSize=10;fontColor=#9E9E9E;align=center;html=1;" parent="1" vertex="1">
          <mxGeometry x="1154" y="515.5" width="150" height="60" as="geometry"/>
        </mxCell>
        <mxCell id="Wobj9NWWxrkdj5AmO_Qd-80" value="&lt;font color=&quot;#000000&quot;&gt;资产管理&lt;/font&gt;&lt;br&gt;Cloud Service" style="dashed=0;connectable=0;html=1;fillColor=#5184F3;strokeColor=none;shape=mxgraph.gcp2.hexIcon;prIcon=cloud_storage;part=1;labelPosition=right;verticalLabelPosition=middle;align=left;verticalAlign=middle;spacingLeft=5;fontColor=#999999;fontSize=12;" parent="Wobj9NWWxrkdj5AmO_Qd-79" vertex="1">
          <mxGeometry y="0.5" width="44" height="39" relative="1" as="geometry">
            <mxPoint x="5" y="-19.5" as="offset"/>
          </mxGeometry>
        </mxCell>
        <mxCell id="Wobj9NWWxrkdj5AmO_Qd-81" value="" style="strokeColor=#dddddd;fillColor=#ffffff;shadow=1;strokeWidth=1;rounded=1;absoluteArcSize=1;arcSize=2;fontSize=10;fontColor=#9E9E9E;align=center;html=1;" parent="1" vertex="1">
          <mxGeometry x="967" y="602" width="150" height="60" as="geometry"/>
        </mxCell>
        <mxCell id="Wobj9NWWxrkdj5AmO_Qd-82" value="&lt;font color=&quot;#000000&quot;&gt;&lt;span&gt;机会管理&lt;/span&gt;&lt;/font&gt;&lt;br&gt;Cloud Service" style="dashed=0;connectable=0;html=1;fillColor=#5184F3;strokeColor=none;shape=mxgraph.gcp2.hexIcon;prIcon=cloud_storage;part=1;labelPosition=right;verticalLabelPosition=middle;align=left;verticalAlign=middle;spacingLeft=5;fontColor=#999999;fontSize=12;" parent="Wobj9NWWxrkdj5AmO_Qd-81" vertex="1">
          <mxGeometry y="0.5" width="44" height="39" relative="1" as="geometry">
            <mxPoint x="5" y="-19.5" as="offset"/>
          </mxGeometry>
        </mxCell>
        <mxCell id="Wobj9NWWxrkdj5AmO_Qd-83" value="" style="strokeColor=#dddddd;fillColor=#ffffff;shadow=1;strokeWidth=1;rounded=1;absoluteArcSize=1;arcSize=2;fontSize=10;fontColor=#9E9E9E;align=center;html=1;" parent="1" vertex="1">
          <mxGeometry x="780" y="602" width="150" height="60" as="geometry"/>
        </mxCell>
        <mxCell id="Wobj9NWWxrkdj5AmO_Qd-84" value="&lt;font color=&quot;#000000&quot;&gt;&lt;span&gt;线索管理&lt;/span&gt;&lt;/font&gt;&lt;br&gt;Cloud Service" style="dashed=0;connectable=0;html=1;fillColor=#5184F3;strokeColor=none;shape=mxgraph.gcp2.hexIcon;prIcon=cloud_storage;part=1;labelPosition=right;verticalLabelPosition=middle;align=left;verticalAlign=middle;spacingLeft=5;fontColor=#999999;fontSize=12;" parent="Wobj9NWWxrkdj5AmO_Qd-83" vertex="1">
          <mxGeometry y="0.5" width="44" height="39" relative="1" as="geometry">
            <mxPoint x="5" y="-19.5" as="offset"/>
          </mxGeometry>
        </mxCell>
        <mxCell id="Wobj9NWWxrkdj5AmO_Qd-85" value="" style="strokeColor=#dddddd;fillColor=#ffffff;shadow=1;strokeWidth=1;rounded=1;absoluteArcSize=1;arcSize=2;fontSize=10;fontColor=#9E9E9E;align=center;html=1;" parent="1" vertex="1">
          <mxGeometry x="1154" y="602" width="150" height="60" as="geometry"/>
        </mxCell>
        <mxCell id="Wobj9NWWxrkdj5AmO_Qd-86" value="&lt;font color=&quot;#000000&quot;&gt;渠道管理&lt;/font&gt;&lt;br&gt;Cloud Service" style="dashed=0;connectable=0;html=1;fillColor=#5184F3;strokeColor=none;shape=mxgraph.gcp2.hexIcon;prIcon=cloud_storage;part=1;labelPosition=right;verticalLabelPosition=middle;align=left;verticalAlign=middle;spacingLeft=5;fontColor=#999999;fontSize=12;" parent="Wobj9NWWxrkdj5AmO_Qd-85" vertex="1">
          <mxGeometry y="0.5" width="44" height="39" relative="1" as="geometry">
            <mxPoint x="5" y="-19.5" as="offset"/>
          </mxGeometry>
        </mxCell>
        <mxCell id="Wobj9NWWxrkdj5AmO_Qd-87" value="" style="strokeColor=#dddddd;fillColor=#ffffff;shadow=1;strokeWidth=1;rounded=1;absoluteArcSize=1;arcSize=2;fontSize=10;fontColor=#9E9E9E;align=center;html=1;" parent="1" vertex="1">
          <mxGeometry x="967" y="690" width="150" height="60" as="geometry"/>
        </mxCell>
        <mxCell id="Wobj9NWWxrkdj5AmO_Qd-88" value="&lt;font color=&quot;#000000&quot;&gt;&lt;span&gt;合同管理&lt;/span&gt;&lt;/font&gt;&lt;br&gt;Cloud Service" style="dashed=0;connectable=0;html=1;fillColor=#5184F3;strokeColor=none;shape=mxgraph.gcp2.hexIcon;prIcon=cloud_storage;part=1;labelPosition=right;verticalLabelPosition=middle;align=left;verticalAlign=middle;spacingLeft=5;fontColor=#999999;fontSize=12;" parent="Wobj9NWWxrkdj5AmO_Qd-87" vertex="1">
          <mxGeometry y="0.5" width="44" height="39" relative="1" as="geometry">
            <mxPoint x="5" y="-19.5" as="offset"/>
          </mxGeometry>
        </mxCell>
        <mxCell id="Wobj9NWWxrkdj5AmO_Qd-89" value="" style="strokeColor=#dddddd;fillColor=#ffffff;shadow=1;strokeWidth=1;rounded=1;absoluteArcSize=1;arcSize=2;fontSize=10;fontColor=#9E9E9E;align=center;html=1;" parent="1" vertex="1">
          <mxGeometry x="780" y="690" width="150" height="60" as="geometry"/>
        </mxCell>
        <mxCell id="Wobj9NWWxrkdj5AmO_Qd-90" value="&lt;font color=&quot;#000000&quot;&gt;&lt;span&gt;电子签约&lt;/span&gt;&lt;/font&gt;&lt;br&gt;Cloud Service" style="dashed=0;connectable=0;html=1;fillColor=#5184F3;strokeColor=none;shape=mxgraph.gcp2.hexIcon;prIcon=cloud_storage;part=1;labelPosition=right;verticalLabelPosition=middle;align=left;verticalAlign=middle;spacingLeft=5;fontColor=#999999;fontSize=12;" parent="Wobj9NWWxrkdj5AmO_Qd-89" vertex="1">
          <mxGeometry y="0.5" width="44" height="39" relative="1" as="geometry">
            <mxPoint x="5" y="-19.5" as="offset"/>
          </mxGeometry>
        </mxCell>
        <mxCell id="Wobj9NWWxrkdj5AmO_Qd-91" value="" style="strokeColor=#dddddd;fillColor=#ffffff;shadow=1;strokeWidth=1;rounded=1;absoluteArcSize=1;arcSize=2;fontSize=10;fontColor=#9E9E9E;align=center;html=1;" parent="1" vertex="1">
          <mxGeometry x="1154" y="690" width="150" height="60" as="geometry"/>
        </mxCell>
        <mxCell id="Wobj9NWWxrkdj5AmO_Qd-92" value="&lt;font color=&quot;#000000&quot;&gt;流程管理&lt;/font&gt;&lt;br&gt;Cloud Service" style="dashed=0;connectable=0;html=1;fillColor=#5184F3;strokeColor=none;shape=mxgraph.gcp2.hexIcon;prIcon=cloud_storage;part=1;labelPosition=right;verticalLabelPosition=middle;align=left;verticalAlign=middle;spacingLeft=5;fontColor=#999999;fontSize=12;" parent="Wobj9NWWxrkdj5AmO_Qd-91" vertex="1">
          <mxGeometry y="0.5" width="44" height="39" relative="1" as="geometry">
            <mxPoint x="5" y="-19.5" as="offset"/>
          </mxGeometry>
        </mxCell>
        <mxCell id="Wobj9NWWxrkdj5AmO_Qd-93" value="" style="strokeColor=#dddddd;fillColor=#ffffff;shadow=1;strokeWidth=1;rounded=1;absoluteArcSize=1;arcSize=2;fontSize=10;fontColor=#9E9E9E;align=center;html=1;" parent="1" vertex="1">
          <mxGeometry x="967" y="778" width="150" height="60" as="geometry"/>
        </mxCell>
        <mxCell id="Wobj9NWWxrkdj5AmO_Qd-94" value="&lt;font color=&quot;#000000&quot;&gt;&lt;span&gt;报表管理&lt;/span&gt;&lt;/font&gt;&lt;br&gt;Cloud Service" style="dashed=0;connectable=0;html=1;fillColor=#5184F3;strokeColor=none;shape=mxgraph.gcp2.hexIcon;prIcon=cloud_storage;part=1;labelPosition=right;verticalLabelPosition=middle;align=left;verticalAlign=middle;spacingLeft=5;fontColor=#999999;fontSize=12;" parent="Wobj9NWWxrkdj5AmO_Qd-93" vertex="1">
          <mxGeometry y="0.5" width="44" height="39" relative="1" as="geometry">
            <mxPoint x="5" y="-19.5" as="offset"/>
          </mxGeometry>
        </mxCell>
        <mxCell id="Wobj9NWWxrkdj5AmO_Qd-95" value="" style="strokeColor=#dddddd;fillColor=#ffffff;shadow=1;strokeWidth=1;rounded=1;absoluteArcSize=1;arcSize=2;fontSize=10;fontColor=#9E9E9E;align=center;html=1;" parent="1" vertex="1">
          <mxGeometry x="780" y="778" width="150" height="60" as="geometry"/>
        </mxCell>
        <mxCell id="Wobj9NWWxrkdj5AmO_Qd-96" value="&lt;font color=&quot;#000000&quot;&gt;&lt;span&gt;数据分析&lt;/span&gt;&lt;/font&gt;&lt;br&gt;Cloud Service" style="dashed=0;connectable=0;html=1;fillColor=#5184F3;strokeColor=none;shape=mxgraph.gcp2.hexIcon;prIcon=cloud_storage;part=1;labelPosition=right;verticalLabelPosition=middle;align=left;verticalAlign=middle;spacingLeft=5;fontColor=#999999;fontSize=12;" parent="Wobj9NWWxrkdj5AmO_Qd-95" vertex="1">
          <mxGeometry y="0.5" width="44" height="39" relative="1" as="geometry">
            <mxPoint x="5" y="-19.5" as="offset"/>
          </mxGeometry>
        </mxCell>
        <mxCell id="Wobj9NWWxrkdj5AmO_Qd-97" value="" style="strokeColor=#dddddd;fillColor=#ffffff;shadow=1;strokeWidth=1;rounded=1;absoluteArcSize=1;arcSize=2;fontSize=10;fontColor=#9E9E9E;align=center;html=1;" parent="1" vertex="1">
          <mxGeometry x="1154" y="778" width="150" height="60" as="geometry"/>
        </mxCell>
        <mxCell id="Wobj9NWWxrkdj5AmO_Qd-98" value="&lt;font color=&quot;#000000&quot;&gt;财务管理&lt;/font&gt;&lt;br&gt;Cloud Service" style="dashed=0;connectable=0;html=1;fillColor=#5184F3;strokeColor=none;shape=mxgraph.gcp2.hexIcon;prIcon=cloud_storage;part=1;labelPosition=right;verticalLabelPosition=middle;align=left;verticalAlign=middle;spacingLeft=5;fontColor=#999999;fontSize=12;" parent="Wobj9NWWxrkdj5AmO_Qd-97" vertex="1">
          <mxGeometry y="0.5" width="44" height="39" relative="1" as="geometry">
            <mxPoint x="5" y="-19.5" as="offset"/>
          </mxGeometry>
        </mxCell>
        <mxCell id="Wobj9NWWxrkdj5AmO_Qd-99" value="" style="strokeColor=#dddddd;fillColor=#ffffff;shadow=1;strokeWidth=1;rounded=1;absoluteArcSize=1;arcSize=2;fontSize=10;fontColor=#9E9E9E;align=center;html=1;" parent="1" vertex="1">
          <mxGeometry x="967" y="870" width="150" height="60" as="geometry"/>
        </mxCell>
        <mxCell id="Wobj9NWWxrkdj5AmO_Qd-100" value="&lt;font color=&quot;#000000&quot;&gt;&lt;span&gt;云打印&lt;/span&gt;&lt;/font&gt;&lt;br&gt;Cloud Service" style="dashed=0;connectable=0;html=1;fillColor=#5184F3;strokeColor=none;shape=mxgraph.gcp2.hexIcon;prIcon=cloud_storage;part=1;labelPosition=right;verticalLabelPosition=middle;align=left;verticalAlign=middle;spacingLeft=5;fontColor=#999999;fontSize=12;" parent="Wobj9NWWxrkdj5AmO_Qd-99" vertex="1">
          <mxGeometry y="0.5" width="44" height="39" relative="1" as="geometry">
            <mxPoint x="5" y="-19.5" as="offset"/>
          </mxGeometry>
        </mxCell>
        <mxCell id="Wobj9NWWxrkdj5AmO_Qd-101" value="" style="strokeColor=#dddddd;fillColor=#ffffff;shadow=1;strokeWidth=1;rounded=1;absoluteArcSize=1;arcSize=2;fontSize=10;fontColor=#9E9E9E;align=center;html=1;" parent="1" vertex="1">
          <mxGeometry x="780" y="870" width="150" height="60" as="geometry"/>
        </mxCell>
        <mxCell id="Wobj9NWWxrkdj5AmO_Qd-102" value="&lt;font color=&quot;#000000&quot;&gt;&lt;span&gt;智能门锁&lt;/span&gt;&lt;/font&gt;&lt;br&gt;Cloud Service" style="dashed=0;connectable=0;html=1;fillColor=#5184F3;strokeColor=none;shape=mxgraph.gcp2.hexIcon;prIcon=cloud_storage;part=1;labelPosition=right;verticalLabelPosition=middle;align=left;verticalAlign=middle;spacingLeft=5;fontColor=#999999;fontSize=12;" parent="Wobj9NWWxrkdj5AmO_Qd-101" vertex="1">
          <mxGeometry y="0.5" width="44" height="39" relative="1" as="geometry">
            <mxPoint x="5" y="-19.5" as="offset"/>
          </mxGeometry>
        </mxCell>
        <mxCell id="Wobj9NWWxrkdj5AmO_Qd-103" value="" style="strokeColor=#dddddd;fillColor=#ffffff;shadow=1;strokeWidth=1;rounded=1;absoluteArcSize=1;arcSize=2;fontSize=10;fontColor=#9E9E9E;align=center;html=1;" parent="1" vertex="1">
          <mxGeometry x="1154" y="870" width="150" height="60" as="geometry"/>
        </mxCell>
        <mxCell id="Wobj9NWWxrkdj5AmO_Qd-104" value="&lt;font color=&quot;#000000&quot;&gt;&lt;span&gt;云会议&lt;/span&gt;&lt;/font&gt;&lt;br&gt;Cloud Service" style="dashed=0;connectable=0;html=1;fillColor=#5184F3;strokeColor=none;shape=mxgraph.gcp2.hexIcon;prIcon=cloud_storage;part=1;labelPosition=right;verticalLabelPosition=middle;align=left;verticalAlign=middle;spacingLeft=5;fontColor=#999999;fontSize=12;" parent="Wobj9NWWxrkdj5AmO_Qd-103" vertex="1">
          <mxGeometry y="0.5" width="44" height="39" relative="1" as="geometry">
            <mxPoint x="5" y="-19.5" as="offset"/>
          </mxGeometry>
        </mxCell>
        <mxCell id="Wobj9NWWxrkdj5AmO_Qd-105" value="" style="strokeColor=#dddddd;fillColor=#ffffff;shadow=1;strokeWidth=1;rounded=1;absoluteArcSize=1;arcSize=2;fontSize=10;fontColor=#9E9E9E;align=center;html=1;" parent="1" vertex="1">
          <mxGeometry x="530.5" y="522" width="139" height="60" as="geometry"/>
        </mxCell>
        <mxCell id="Wobj9NWWxrkdj5AmO_Qd-106" value="&lt;font color=&quot;#000000&quot;&gt;&lt;span&gt;用户中心&lt;/span&gt;&lt;/font&gt;&lt;br&gt;Cloud&amp;nbsp;Security" style="dashed=0;connectable=0;html=1;fillColor=#5184F3;strokeColor=none;shape=mxgraph.gcp2.hexIcon;prIcon=cloud_storage;part=1;labelPosition=right;verticalLabelPosition=middle;align=left;verticalAlign=middle;spacingLeft=5;fontColor=#999999;fontSize=12;" parent="Wobj9NWWxrkdj5AmO_Qd-105" vertex="1">
          <mxGeometry y="0.5" width="44" height="39" relative="1" as="geometry">
            <mxPoint x="5" y="-19.5" as="offset"/>
          </mxGeometry>
        </mxCell>
        <mxCell id="Wobj9NWWxrkdj5AmO_Qd-107" value="" style="edgeStyle=orthogonalEdgeStyle;fontSize=12;html=1;endArrow=blockThin;endFill=1;rounded=0;strokeWidth=2;endSize=4;startSize=4;dashed=1;dashPattern=1 3;strokeColor=#4284F3;exitX=1;exitY=0.5;exitDx=0;exitDy=0;entryX=0;entryY=0.5;entryDx=0;entryDy=0;" parent="1" source="Wobj9NWWxrkdj5AmO_Qd-38" target="Wobj9NWWxrkdj5AmO_Qd-44" edge="1">
          <mxGeometry width="100" relative="1" as="geometry">
            <mxPoint x="750" y="380" as="sourcePoint"/>
            <mxPoint x="850" y="380" as="targetPoint"/>
          </mxGeometry>
        </mxCell>
        <mxCell id="Wobj9NWWxrkdj5AmO_Qd-108" value="register" style="text;html=1;resizable=0;points=[];align=center;verticalAlign=middle;labelBackgroundColor=#ffffff;fontColor=#000000;" parent="Wobj9NWWxrkdj5AmO_Qd-107" vertex="1" connectable="0">
          <mxGeometry x="-0.08" y="3" relative="1" as="geometry">
            <mxPoint x="6" y="-7" as="offset"/>
          </mxGeometry>
        </mxCell>
        <mxCell id="Wobj9NWWxrkdj5AmO_Qd-109" value="" style="edgeStyle=orthogonalEdgeStyle;fontSize=12;html=1;endArrow=blockThin;endFill=1;rounded=0;strokeWidth=2;endSize=4;startSize=4;dashed=1;dashPattern=1 3;strokeColor=#4284F3;" parent="1" edge="1">
          <mxGeometry width="100" relative="1" as="geometry">
            <mxPoint x="320" y="531.5" as="sourcePoint"/>
            <mxPoint x="420" y="531.5" as="targetPoint"/>
          </mxGeometry>
        </mxCell>
        <mxCell id="Wobj9NWWxrkdj5AmO_Qd-110" value="Optional Path" style="text;html=1;resizable=0;points=[];autosize=1;align=left;verticalAlign=top;spacingTop=-4;fontColor=#000000;" parent="1" vertex="1">
          <mxGeometry x="325" y="512" width="90" height="20" as="geometry"/>
        </mxCell>
        <mxCell id="Wobj9NWWxrkdj5AmO_Qd-111" value="" style="edgeStyle=orthogonalEdgeStyle;fontSize=12;html=1;endArrow=blockThin;endFill=1;rounded=0;strokeWidth=2;endSize=4;startSize=4;dashed=1;dashPattern=1 3;strokeColor=#4284F3;exitX=1;exitY=0.5;exitDx=0;exitDy=0;entryX=0;entryY=0.5;entryDx=0;entryDy=0;" parent="1" edge="1">
          <mxGeometry width="100" relative="1" as="geometry">
            <mxPoint x="991" y="350" as="sourcePoint"/>
            <mxPoint x="1129" y="350" as="targetPoint"/>
          </mxGeometry>
        </mxCell>
        <mxCell id="Wobj9NWWxrkdj5AmO_Qd-112" value="auth" style="text;html=1;resizable=0;points=[];align=center;verticalAlign=middle;labelBackgroundColor=#ffffff;fontColor=#000000;" parent="Wobj9NWWxrkdj5AmO_Qd-111" vertex="1" connectable="0">
          <mxGeometry x="-0.08" y="3" relative="1" as="geometry">
            <mxPoint x="6" y="-7" as="offset"/>
          </mxGeometry>
        </mxCell>
        <mxCell id="Wobj9NWWxrkdj5AmO_Qd-113" value="Monitoring" style="html=1;fillColor=#5184F3;strokeColor=none;verticalAlign=top;labelPosition=center;verticalLabelPosition=bottom;align=center;spacingTop=-6;fontSize=11;fontStyle=1;fontColor=#999999;shape=mxgraph.gcp2.hexIcon;prIcon=cloud_deployment_manager" parent="1" vertex="1">
          <mxGeometry x="1400" y="690" width="66" height="58.5" as="geometry"/>
        </mxCell>
        <mxCell id="Wobj9NWWxrkdj5AmO_Qd-114" value="Logging" style="html=1;fillColor=#5184F3;strokeColor=none;verticalAlign=top;labelPosition=center;verticalLabelPosition=bottom;align=center;spacingTop=-6;fontSize=11;fontStyle=1;fontColor=#999999;shape=mxgraph.gcp2.hexIcon;prIcon=logging" parent="1" vertex="1">
          <mxGeometry x="1400" y="870" width="66" height="58.5" as="geometry"/>
        </mxCell>
        <mxCell id="Wobj9NWWxrkdj5AmO_Qd-115" value="Cloud Service Mesh" style="html=1;fillColor=#5184F3;strokeColor=none;verticalAlign=top;labelPosition=center;verticalLabelPosition=bottom;align=center;spacingTop=-6;fontSize=11;fontStyle=1;fontColor=#999999;shape=mxgraph.gcp2.hexIcon;prIcon=cloud_service_mesh" parent="1" vertex="1">
          <mxGeometry x="1400" y="512" width="66" height="58.5" as="geometry"/>
        </mxCell>
        <mxCell id="Wobj9NWWxrkdj5AmO_Qd-116" value="Trace" style="html=1;fillColor=#5184F3;strokeColor=none;verticalAlign=top;labelPosition=center;verticalLabelPosition=bottom;align=center;spacingTop=-6;fontSize=11;fontStyle=1;fontColor=#999999;shape=mxgraph.gcp2.hexIcon;prIcon=trace" parent="1" vertex="1">
          <mxGeometry x="1400" y="778" width="66" height="58.5" as="geometry"/>
        </mxCell>
        <mxCell id="Wobj9NWWxrkdj5AmO_Qd-117" value="" style="edgeStyle=orthogonalEdgeStyle;fontSize=12;html=1;endArrow=blockThin;endFill=1;rounded=0;strokeWidth=2;endSize=4;startSize=4;dashed=0;strokeColor=#4284F3;exitX=0.5;exitY=1;exitDx=0;exitDy=0;entryX=0.5;entryY=0;entryDx=0;entryDy=0;" parent="1" source="Wobj9NWWxrkdj5AmO_Qd-105" target="Wobj9NWWxrkdj5AmO_Qd-41" edge="1">
          <mxGeometry width="100" relative="1" as="geometry">
            <mxPoint x="330" y="577" as="sourcePoint"/>
            <mxPoint x="430" y="577" as="targetPoint"/>
          </mxGeometry>
        </mxCell>
        <mxCell id="Wobj9NWWxrkdj5AmO_Qd-118" value="&lt;div style=&quot;text-align: left&quot;&gt;&lt;br&gt;&lt;/div&gt;" style="text;html=1;resizable=0;points=[];align=center;verticalAlign=middle;labelBackgroundColor=#ffffff;fontColor=#000000;" parent="Wobj9NWWxrkdj5AmO_Qd-117" vertex="1" connectable="0">
          <mxGeometry x="-0.1538" y="-2" relative="1" as="geometry">
            <mxPoint as="offset"/>
          </mxGeometry>
        </mxCell>
        <mxCell id="Wobj9NWWxrkdj5AmO_Qd-119" value="identity" style="text;html=1;resizable=0;points=[];align=center;verticalAlign=middle;labelBackgroundColor=#ffffff;fontColor=#000000;" parent="Wobj9NWWxrkdj5AmO_Qd-117" vertex="1" connectable="0">
          <mxGeometry x="0.0256" y="-3" relative="1" as="geometry">
            <mxPoint as="offset"/>
          </mxGeometry>
        </mxCell>
        <mxCell id="Wobj9NWWxrkdj5AmO_Qd-120" value="Cloud Tasks" style="html=1;fillColor=#5184F3;strokeColor=none;verticalAlign=top;labelPosition=center;verticalLabelPosition=bottom;align=center;spacingTop=-6;fontSize=11;fontStyle=1;fontColor=#999999;shape=mxgraph.gcp2.hexIcon;prIcon=cloud_tasks" parent="1" vertex="1">
          <mxGeometry x="1400" y="601" width="66" height="58.5" as="geometry"/>
        </mxCell>
        <mxCell id="Wobj9NWWxrkdj5AmO_Qd-121" value="Cloud Build" style="html=1;fillColor=#5184F3;strokeColor=none;verticalAlign=top;labelPosition=center;verticalLabelPosition=bottom;align=center;spacingTop=-6;fontSize=11;fontStyle=1;fontColor=#999999;shape=mxgraph.gcp2.hexIcon;prIcon=container_builder" parent="1" vertex="1">
          <mxGeometry x="1400" y="320" width="66" height="58.5" as="geometry"/>
        </mxCell>
        <mxCell id="Wobj9NWWxrkdj5AmO_Qd-122" value="" style="edgeStyle=orthogonalEdgeStyle;fontSize=12;html=1;endArrow=blockThin;endFill=1;rounded=0;strokeWidth=2;endSize=4;startSize=4;dashed=0;strokeColor=#4284F3;exitX=0.5;exitY=1;exitDx=0;exitDy=0;exitPerimeter=0;entryX=0.5;entryY=0;entryDx=0;entryDy=0;entryPerimeter=0;" parent="1" source="Wobj9NWWxrkdj5AmO_Qd-40" target="Wobj9NWWxrkdj5AmO_Qd-43" edge="1">
          <mxGeometry width="100" relative="1" as="geometry">
            <mxPoint x="360" y="990" as="sourcePoint"/>
            <mxPoint x="460" y="990" as="targetPoint"/>
          </mxGeometry>
        </mxCell>
        <mxCell id="Wobj9NWWxrkdj5AmO_Qd-123" value="&amp;nbsp; &amp;nbsp;" style="text;html=1;resizable=0;points=[];autosize=1;align=left;verticalAlign=top;spacingTop=-4;fontColor=#000000;" parent="1" vertex="1">
          <mxGeometry x="846" y="1948" width="30" height="20" as="geometry"/>
        </mxCell>
        <mxCell id="Wobj9NWWxrkdj5AmO_Qd-124" value="route" style="text;html=1;resizable=0;points=[];autosize=1;align=left;verticalAlign=top;spacingTop=-4;fontColor=#000000;" parent="1" vertex="1">
          <mxGeometry x="703" y="1190" width="40" height="20" as="geometry"/>
        </mxCell>
      </root>
    </mxGraphModel>
  </diagram>
</mxfile>
